pitch,start,end,velocity,instrument
73,2.6923049999999997,2.9967918749999995,113,52
65,2.6923049999999997,3.0128174999999997,113,52
70,2.6923049999999997,3.0689071875,113,52
68,2.6923049999999997,3.0689071875,113,52
68,3.0769199999999994,3.2932659374999997,113,52
70,3.0769199999999994,3.30127875,113,52
73,3.0769199999999994,3.3573684374999995,113,52
65,3.0769199999999994,3.3814068749999997,113,52
73,3.4615349999999996,3.7900603124999996,113,52
68,3.4615349999999996,3.8060859375,113,52
65,3.4615349999999996,3.8060859375,113,52
70,3.4615349999999996,3.8221115624999995,113,52
73,3.8461499999999997,4.503200625,113,52
65,3.8461499999999997,4.5272390625,113,52
68,3.8461499999999997,4.551277499999999,113,52
70,3.8461499999999997,4.567303125,113,52
68,4.615379999999999,5.2483921874999995,113,52
70,4.615379999999999,5.2644178125,113,52
73,4.615379999999999,5.288456249999999,113,52
65,4.615379999999999,5.304481875,113,52
70,5.769225,6.065699062499999,113,52
67,5.769225,6.065699062499999,113,52
73,5.769225,6.073711874999999,113,52
63,5.769225,6.089737499999999,113,52
67,6.153839999999999,6.482365312499999,113,52
70,6.153839999999999,6.498390937499999,113,52
73,6.153839999999999,6.530442187499999,113,52
63,6.153839999999999,6.530442187499999,113,52
70,6.538454999999999,6.858967499999999,113,52
68,6.538454999999999,6.891018749999999,113,52
65,6.538454999999999,6.9150571874999995,113,52
73,6.923069999999999,7.299672187499999,113,52
70,6.923069999999999,7.299672187499999,113,52
67,6.923069999999999,7.299672187499999,113,52
68,7.307684999999999,7.491979687499999,113,52
65,7.307684999999999,7.491979687499999,113,52
67,7.499992499999999,8.189094375,113,52
63,7.499992499999999,8.301273749999998,113,52
66,8.46153,8.749991249999999,113,52
72,8.46153,8.7820425,113,52
63,8.46153,8.81409375,113,52
68,8.46153,8.822106562499998,113,52
66,8.846144999999998,9.13460625,113,52
63,8.846144999999998,9.1666575,113,52
68,8.846144999999998,9.174670312499998,113,52
72,8.846144999999998,9.182683124999999,113,52
66,9.230759999999998,9.527234062499998,113,52
72,9.230759999999998,9.583323749999998,113,52
63,9.230759999999998,9.583323749999998,113,52
68,9.230759999999998,9.6073621875,113,52
73,9.615374999999998,10.376592187499998,113,52
70,9.615374999999998,10.376592187499998,113,52
66,9.615374999999998,10.376592187499998,113,52
63,9.615374999999998,10.376592187499998,113,52
66,10.384604999999999,10.576912499999999,113,52
63,10.384604999999999,10.600950937499999,113,52
68,10.384604999999999,11.0496684375,113,52
72,10.384604999999999,11.145822187499999,113,52
68,11.153834999999999,11.466334687499998,113,52
65,11.53845,11.7067190625,113,52
68,11.53845,11.714731874999998,113,52
61,11.53845,11.714731874999998,113,52
73,11.53845,11.746783124999999,113,52
65,11.923065,12.107359687499999,113,52
68,11.923065,12.267615937499999,113,52
73,11.923065,12.299667187499999,113,52
61,11.923065,12.299667187499999,113,52
66,12.307679999999998,12.6041540625,113,52
70,12.307679999999998,12.6842821875,113,52
68,12.692294999999998,13.0688971875,113,52
65,12.692294999999998,13.0688971875,113,52
66,13.076909999999998,13.453512187499998,113,52
63,13.076909999999998,13.453512187499998,113,52
65,13.461524999999998,14.871779999999998,113,52
61,13.461524999999998,14.919856874999999,113,52
58,15.384599999999999,15.713125312499999,123,0
65,15.384599999999999,15.801266249999998,122,0
61,15.384599999999999,15.865368749999998,123,0
53,15.384599999999999,18.0368409375,123,0
46,15.384599999999999,18.429468749999998,120,0
65,15.384599999999999,16.025624999999998,104,48
58,15.384599999999999,18.341327812499998,113,52
53,15.384599999999999,18.4214559375,113,52
46,15.384599999999999,18.4214559375,113,52
65,15.384599999999999,18.453507187499998,113,52
61,15.384599999999999,18.453507187499998,113,52
58,15.769214999999999,16.193894062499997,95,0
65,16.15383,16.506393749999997,122,0
61,16.15383,16.602547499999996,121,0
65,16.15383,16.482355312499998,111,48
58,16.538445,16.971136875,104,0
65,16.538445,18.004789687499997,110,48
65,16.92306,17.307675,122,0
61,16.92306,17.3797903125,121,0
58,17.307675,17.772418124999998,109,0
65,17.692289999999996,18.10895625,120,0
61,17.692289999999996,18.141007499999997,120,0
58,18.076904999999996,18.237161249999996,116,0
65,18.076904999999996,18.413443124999997,111,48
59,18.461519999999997,18.749981249999998,123,0
61,18.461519999999997,18.862160624999998,123,0
65,18.461519999999997,18.910237499999997,123,0
56,18.461519999999997,21.290042812499998,122,0
49,18.461519999999997,24.607347187499997,123,0
65,18.461519999999997,18.7900453125,117,48
59,18.461519999999997,19.222737187499998,113,52
59,18.846134999999997,19.310878125,118,0
65,18.846134999999997,19.230749999999997,116,48
65,19.230749999999997,19.639403437499997,123,0
61,19.230749999999997,19.679467499999998,122,0
66,19.230749999999997,19.655429062499998,115,48
66,19.230749999999997,19.6073521875,113,52
59,19.615364999999997,20.040044062499998,110,0
68,19.615364999999997,20.41664625,113,48
68,19.615364999999997,20.3765821875,113,52
65,19.999979999999997,20.41664625,118,0
61,19.999979999999997,20.448697499999998,121,0
59,20.384594999999997,20.817286874999997,117,0
61,20.384594999999997,21.233953125,103,48
61,20.384594999999997,21.1458121875,113,52
65,20.769209999999998,21.129786562499998,122,0
61,20.769209999999998,21.28203,120,0
59,21.153824999999998,21.330106875,117,0
70,21.153824999999998,24.0304246875,101,48
70,21.153824999999998,24.607347187499997,113,52
66,21.153824999999998,24.607347187499997,113,52
70,21.538439999999998,21.971131874999998,121,0
66,21.538439999999998,22.0111959375,118,0
61,21.538439999999998,22.019208749999997,123,0
54,21.538439999999998,24.591321562499996,118,0
42,21.538439999999998,24.623372812499998,121,0
58,21.923054999999998,22.3477340625,116,0
70,22.307669999999998,22.676259374999997,121,0
66,22.307669999999998,22.692285,121,0
61,22.307669999999998,22.724336249999997,122,0
58,22.692285,23.124976874999998,117,0
70,23.0769,23.4855534375,123,0
66,23.0769,23.533630312499998,122,0
61,23.0769,23.541643124999997,121,0
58,23.461515,23.902219687499997,116,0
70,23.84613,24.246770624999996,121,0
66,23.84613,24.270809062499996,119,0
61,23.84613,24.270809062499996,120,0
58,24.230745,24.647411249999998,115,0
70,24.615359999999995,24.983949374999998,123,0
66,24.615359999999995,25.032026249999998,122,0
63,24.615359999999995,25.088115937499996,123,0
51,24.615359999999995,27.740356874999996,123,0
82,24.615359999999995,25.352538749999997,47,48
70,24.615359999999995,25.745166562499996,107,48
63,24.615359999999995,27.684267187499998,113,52
58,24.615359999999995,27.684267187499998,113,52
58,24.999974999999996,25.424654062499997,109,0
70,25.384589999999996,25.753179375,122,0
66,25.384589999999996,25.793243437499996,119,0
63,25.384589999999996,25.817281874999995,122,0
82,25.384589999999996,27.708305624999998,104,48
58,25.769204999999996,26.201896874999996,115,0
70,25.769204999999996,26.490358124999997,117,48
70,26.153819999999996,26.442281249999997,120,0
66,26.153819999999996,26.538434999999996,120,0
63,26.153819999999996,26.586511874999996,122,0
58,26.538434999999996,26.963114062499997,108,0
70,26.538434999999996,27.692279999999997,115,48
66,26.923049999999996,27.195485624999996,117,0
63,26.923049999999996,27.33971625,121,0
70,26.923049999999996,27.660228749999998,122,0
58,27.307664999999997,27.491959687499996,115,0
60,27.692279999999997,27.932664374999998,119,0
68,27.692279999999997,28.076894999999997,123,0
63,27.692279999999997,28.100933437499997,122,0
56,27.692279999999997,28.132984687499995,122,0
44,27.692279999999997,29.431060312499998,109,0
68,27.692279999999997,27.996766874999995,111,48
80,27.692279999999997,28.004779687499997,76,48
68,27.692279999999997,28.4534971875,113,52
60,27.692279999999997,28.4534971875,113,52
56,27.692279999999997,28.4534971875,113,52
51,28.076894999999997,28.4534971875,120,0
60,28.076894999999997,28.517599687499995,119,0
68,28.076894999999997,28.501574062499998,116,48
80,28.076894999999997,28.509586874999997,110,48
63,28.461509999999997,28.814073749999995,122,0
56,28.461509999999997,28.870163437499997,123,0
70,28.461509999999997,28.886189062499998,123,0
70,28.461509999999997,28.846124999999997,117,48
82,28.461509999999997,28.910227499999998,112,48
70,28.461509999999997,28.8381121875,113,52
58,28.461509999999997,28.8381121875,113,52
68,28.846124999999997,29.094522187499997,119,0
51,28.846124999999997,29.887790624999997,119,0
60,28.846124999999997,29.895803437499996,114,0
80,28.846124999999997,29.070483749999998,112,48
68,28.846124999999997,29.078496562499996,111,48
68,28.846124999999997,29.030419687499997,113,52
56,28.846124999999997,29.030419687499997,113,52
66,29.038432499999995,29.302855312499997,113,0
78,29.038432499999995,29.222727187499995,108,48
66,29.038432499999995,29.222727187499995,113,48
66,29.038432499999995,29.222727187499995,113,52
63,29.230739999999997,29.847726562499997,115,0
75,29.230739999999997,29.535226874999996,118,48
63,29.230739999999997,29.559265312499996,116,48
63,29.230739999999997,29.390996249999997,113,52
65,29.999969999999998,30.368559374999997,121,0
65,29.999969999999998,30.488751562499996,83,48
65,29.999969999999998,30.376572187499995,113,52
66,30.384584999999998,30.761187187499996,117,0
66,30.384584999999998,30.817276874999997,112,48
66,30.384584999999998,30.761187187499996,113,52
66,30.769199999999998,30.777212812499997,122,0
71,30.769199999999998,31.017597187499998,123,0
63,30.769199999999998,31.033622812499996,121,0
47,30.769199999999998,31.041635624999998,117,0
59,30.769199999999998,31.049648437499997,123,0
54,30.769199999999998,31.378173749999995,122,0
71,30.769199999999998,31.073686874999996,115,48
59,30.769199999999998,31.025609999999997,113,52
71,30.769199999999998,31.049648437499997,113,52
63,30.769199999999998,31.049648437499997,113,52
59,31.153814999999998,31.362148124999997,122,0
47,31.153814999999998,31.370160937499996,113,0
66,31.153814999999998,31.418237812499996,122,0
63,31.153814999999998,31.466314687499995,123,0
71,31.153814999999998,31.498365937499997,122,0
71,31.153814999999998,31.562468437499998,114,48
63,31.153814999999998,31.434263437499997,113,52
71,31.153814999999998,31.498365937499997,113,52
59,31.153814999999998,31.530417187499996,113,52
70,31.538429999999998,31.754775937499996,123,0
62,31.538429999999998,31.770801562499997,123,0
58,31.538429999999998,31.818878437499997,123,0
53,31.538429999999998,31.818878437499997,123,0
65,31.538429999999998,31.826891249999996,123,0
46,31.538429999999998,31.899006562499995,117,0
70,31.538429999999998,31.826891249999996,116,48
70,31.538429999999998,31.802852812499996,113,52
65,31.538429999999998,31.858942499999998,113,52
58,31.538429999999998,31.890993749999996,113,52
69,32.30766,32.5720828125,117,0
61,32.30766,32.5720828125,113,0
57,32.30766,32.580095625,123,0
45,32.30766,32.596121249999996,120,0
64,32.30766,32.61214687499999,123,0
52,32.30766,32.644198124999996,123,0
69,32.30766,32.61214687499999,111,48
69,32.30766,32.564069999999994,113,52
57,32.30766,32.5720828125,113,52
64,32.30766,32.604134062499995,113,52
45,32.692274999999995,32.836505624999994,117,0
64,32.692274999999995,32.8605440625,123,0
57,32.692274999999995,32.8925953125,122,0
52,32.692274999999995,32.9406721875,117,0
69,32.692274999999995,32.956697812499996,120,0
61,32.692274999999995,32.9887490625,123,0
69,32.692274999999995,33.07689,118,48
69,32.692274999999995,33.052851562499995,113,52
57,32.692274999999995,33.052851562499995,113,52
64,32.692274999999995,33.06887718749999,113,52
62,33.07689,33.3092615625,123,0
46,33.07689,33.381376874999994,118,0
65,33.07689,33.3893896875,123,0
53,33.07689,33.3974025,123,0
70,33.07689,33.413428124999996,123,0
58,33.07689,33.445479375,123,0
70,33.07689,33.42945374999999,117,48
65,33.07689,33.3974025,113,52
58,33.07689,33.421440937499995,113,52
70,33.07689,33.469517812499994,113,52
63,33.84612,34.0784915625,122,0
71,33.84612,34.11054281249999,123,0
59,33.84612,34.11054281249999,123,0
47,33.84612,34.1265684375,119,0
66,33.84612,34.1666325,119,0
54,33.84612,34.455093749999996,121,0
71,33.84612,34.15861968749999,110,48
59,33.84612,34.086504375,113,52
71,33.84612,34.13458125,113,52
66,33.84612,34.150606874999994,113,52
59,34.230734999999996,34.43105531249999,123,0
47,34.230734999999996,34.43105531249999,117,0
66,34.230734999999996,34.455093749999996,119,0
63,34.230734999999996,34.487145,121,0
71,34.230734999999996,34.535221875,123,0
71,34.230734999999996,34.61535,118,48
66,34.230734999999996,34.591311562499996,113,52
71,34.230734999999996,34.60733718749999,113,52
59,34.230734999999996,34.60733718749999,113,52
62,34.61535,34.8477215625,123,0
70,34.61535,34.90381125,121,0
53,34.61535,34.967913749999994,121,0
58,34.61535,34.9919521875,123,0
65,34.61535,35.007977812499995,123,0
46,34.61535,35.056054687499994,18,0
70,34.61535,35.056054687499994,117,48
70,34.61535,34.983939375,113,52
65,34.61535,35.007977812499995,113,52
58,34.61535,35.01599062499999,113,52
61,35.38457999999999,35.5849003125,122,0
57,35.38457999999999,35.6169515625,120,0
69,35.38457999999999,35.640989999999995,117,0
64,35.38457999999999,35.649002812499994,123,0
45,35.38457999999999,35.873361562499994,117,0
52,35.38457999999999,35.977528125,121,0
69,35.38457999999999,35.681054062499996,115,48
57,35.38457999999999,35.67304125,113,52
69,35.38457999999999,35.7611821875,113,52
64,35.38457999999999,35.7611821875,113,52
64,35.769194999999996,35.921438437499994,119,0
57,35.769194999999996,35.9855409375,116,0
69,35.769194999999996,36.089707499999996,116,0
61,35.769194999999996,36.089707499999996,120,0
69,35.769194999999996,35.99355375,115,48
57,35.769194999999996,36.145797187499994,113,52
62,36.15380999999999,36.66663,121,0
58,36.15380999999999,36.7066940625,122,0
46,36.15380999999999,36.842911875,112,0
65,36.15380999999999,36.8990015625,122,0
53,36.15380999999999,36.8990015625,122,0
70,36.15380999999999,36.963104062499994,122,0
70,36.15380999999999,37.1153475,113,48
70,36.15380999999999,36.466309687499994,113,52
65,36.15380999999999,36.546437812499995,113,52
58,36.15380999999999,36.586501874999996,113,52
63,36.92303999999999,37.179449999999996,122,0
67,36.92303999999999,37.411821562499995,123,0
58,36.92303999999999,37.459898437499994,123,0
51,36.92303999999999,37.7483596875,123,0
63,36.92303999999999,38.42944875,113,52
67,36.92303999999999,38.4374615625,113,52
70,36.92303999999999,38.453487187499995,113,52
63,37.307655,37.732334062499994,118,0
67,37.307655,37.588103437499996,76,48
70,37.69226999999999,38.044833749999995,122,0
58,37.69226999999999,38.10092343749999,123,0
67,37.69226999999999,38.453487187499995,122,0
67,37.69226999999999,38.01278249999999,117,48
63,38.076885,38.413423124999994,118,0
51,38.076885,38.477525625,122,0
67,38.076885,38.55765374999999,118,48
62,38.461499999999994,38.7098971875,122,0
65,38.461499999999994,38.91823031249999,123,0
58,38.461499999999994,39.05444812499999,121,0
50,38.461499999999994,39.23874281249999,121,0
65,38.461499999999994,39.222717187499995,115,48
65,38.461499999999994,39.415024687499994,113,52
62,38.461499999999994,39.415024687499994,113,52
62,38.846115,39.278806874999994,121,0
58,39.230729999999994,39.64739624999999,122,0
65,39.230729999999994,39.6554090625,123,0
70,39.230729999999994,39.951883124999995,120,0
70,39.230729999999994,40.03201125,112,48
70,39.42303749999999,39.991947187499996,113,52
62,39.615345,39.78361406249999,121,0
50,39.615345,40.040024062499995,120,0
61,39.999959999999994,40.23233156249999,123,0
64,39.999959999999994,40.4727159375,123,0
67,39.999959999999994,40.48072875,123,0
58,39.999959999999994,40.721113124999995,123,0
49,39.999959999999994,41.6105353125,122,0
64,39.999959999999994,40.32848531249999,115,48
64,39.999959999999994,40.37656218749999,113,52
61,39.999959999999994,40.37656218749999,113,52
61,40.384575,41.05765124999999,120,0
64,40.384575,40.6970746875,117,48
67,40.384575,40.761177187499996,113,52
64,40.769189999999995,41.129766562499995,123,0
67,40.769189999999995,41.4342534375,122,0
64,40.769189999999995,41.09771531249999,117,48
70,40.769189999999995,41.530407187499996,113,52
58,41.153805,41.442266249999996,122,0
61,41.153805,41.45829187499999,118,0
70,41.153805,41.490343124999995,122,0
65,41.153805,41.530407187499996,110,48
60,41.538419999999995,41.770791562499994,123,0
65,41.538419999999995,42.0272015625,123,0
69,41.538419999999995,42.05123999999999,123,0
57,41.538419999999995,42.59611124999999,123,0
48,41.538419999999995,42.716303437499995,117,0
65,41.538419999999995,42.355726874999995,117,48
69,41.538419999999995,42.2996371875,113,52
65,41.538419999999995,42.2996371875,113,52
60,41.538419999999995,42.2996371875,113,52
60,41.923035,42.41181656249999,112,0
65,42.307649999999995,42.772393124999994,123,0
69,42.307649999999995,44.23072499999999,122,0
60,42.307649999999995,42.676239374999994,113,48
63,42.307649999999995,43.0688671875,113,52
60,42.69226499999999,43.926238125,117,0
63,42.69226499999999,44.807647499999995,110,48
63,43.076879999999996,44.471109375,123,0
72,43.076879999999996,44.54322468749999,122,0
67,43.076879999999996,44.583288749999994,123,0
41,43.076879999999996,45.336493125,120,0
65,43.076879999999996,44.711493749999995,103,48
69,43.076879999999996,44.73553218749999,104,48
72,43.076879999999996,44.711493749999995,113,52
48,43.46149499999999,45.392582812499995,119,0
57,43.846109999999996,45.08809593749999,123,0
60,44.23072499999999,45.160211249999996,119,0
69,44.615339999999996,44.64739125,117,0
72,44.615339999999996,45.22431374999999,121,0
63,44.615339999999996,45.344505937499996,18,0
57,45.38457,46.08969749999999,122,0
57,45.38457,46.17783843749999,98,48
57,45.38457,46.1457871875,113,52
58,46.1538,46.67463281249999,119,0
34,46.1538,49.014374062499996,121,0
46,46.1538,52.03520437499999,123,0
58,46.1538,51.85892249999999,89,48
58,46.1538,51.874948124999996,113,52
53,46.53841499999999,47.81245218749999,115,0
58,46.92303,48.8701434375,117,0
62,47.307644999999994,48.5977078125,115,0
79,47.69226,49.302835312499994,116,0
67,47.69226,50.41661625,116,0
53,48.076874999999994,48.509566875,101,0
65,48.46149,49.158604687499995,117,0
77,48.46149,49.1906559375,118,0
53,48.846104999999994,49.278796875,107,0
62,49.23071999999999,49.67943749999999,123,0
58,49.23071999999999,49.6874503125,118,0
34,49.23071999999999,52.02719156249999,123,0
53,49.615334999999995,50.85732093749999,104,0
58,49.99994999999999,51.90699937499999,113,0
62,50.384564999999995,51.2739871875,116,0
79,50.76917999999999,52.379755312499995,116,0
67,50.76917999999999,52.379755312499995,116,0
53,51.153794999999995,51.63456374999999,108,0
77,51.53840999999999,52.26757593749999,118,0
65,51.53840999999999,52.26757593749999,118,0
53,51.923024999999996,52.331678437499995,115,0
72,52.30763999999999,52.39578093749999,121,60
74,52.30763999999999,54.951868125,119,60
58,52.30763999999999,52.6361653125,122,0
62,52.30763999999999,53.08488281249999,122,0
46,52.30763999999999,55.368534374999996,123,0
34,52.30763999999999,55.39257281249999,123,0
53,52.692254999999996,53.886164062499994,113,0
58,53.07686999999999,55.02398343749999,115,0
62,53.461484999999996,54.647381249999995,115,0
67,53.84609999999999,55.44866249999999,117,0
79,53.84609999999999,55.456675312499996,116,0
53,54.230715,54.831675937499995,115,0
77,54.61532999999999,55.34449593749999,118,0
65,54.61532999999999,55.416611249999995,120,0
70,54.999945,55.38455999999999,121,60
53,54.999945,55.40058562499999,114,0
72,55.38455999999999,55.745136562499994,122,60
58,55.38455999999999,55.825264687499995,120,0
62,55.38455999999999,56.233918124999995,123,0
43,55.38455999999999,58.47750562499999,122,0
74,55.769175,57.908595937499996,117,60
55,55.769175,57.091289062499996,116,0
73,55.961482499999995,56.105713124999994,118,60
58,56.153789999999994,58.16500593749999,117,0
62,56.53840499999999,57.70827562499999,118,0
69,56.923019999999994,57.33968624999999,117,0
81,56.923019999999994,58.53359531249999,116,0
55,57.30763499999999,58.42942874999999,117,0
79,57.692249999999994,58.421415937499994,118,0
67,57.692249999999994,58.541608124999996,121,0
74,58.07686499999999,58.453467187499996,123,60
62,58.07686499999999,58.20506999999999,117,0
75,58.461479999999995,58.84609499999999,123,60
60,58.461479999999995,58.814043749999996,123,0
63,58.461479999999995,59.006351249999994,123,0
48,58.461479999999995,61.314041249999995,123,0
36,58.461479999999995,61.354105312499996,123,0
77,58.84609499999999,59.046415312499995,122,60
60,58.84609499999999,60.11211937499999,119,0
75,59.0384025,59.42301749999999,121,60
63,59.230709999999995,61.01756718749999,117,0
74,59.42301749999999,59.75955562499999,120,60
67,59.61532499999999,60.83327249999999,109,0
72,59.80763249999999,61.049618437499994,120,60
74,59.999939999999995,60.44064468749999,116,0
86,59.999939999999995,61.61051531249999,116,0
60,60.38455499999999,61.586476874999995,119,0
84,60.769169999999995,61.498335937499995,118,0
72,60.769169999999995,63.01275749999999,121,0
72,61.15378499999999,61.410194999999995,120,60
63,61.15378499999999,61.88295093749999,121,0
74,61.34609249999999,61.626540937499996,122,60
75,61.538399999999996,61.906989374999995,121,60
36,61.538399999999996,61.9871175,123,0
67,61.538399999999996,62.267565937499995,123,0
48,61.538399999999996,63.044808749999994,123,0
77,61.92301499999999,62.19545062499999,121,60
60,61.92301499999999,62.668206562499996,114,0
75,62.11532249999999,62.43583499999999,120,60
36,62.11532249999999,62.34769406249999,99,0
63,62.307629999999996,62.69224499999999,118,0
74,62.499937499999994,62.804424374999996,120,60
72,62.69224499999999,64.5271790625,118,60
67,62.69224499999999,63.05282156249999,117,0
69,63.076859999999996,64.182628125,123,0
53,63.076859999999996,64.61532,121,0
41,63.076859999999996,64.64737124999999,113,0
63,63.46147499999999,64.182628125,117,0
65,63.84608999999999,64.2707690625,119,0
72,64.23070499999999,64.342884375,119,0
73,64.61532,64.65538406249999,122,60
74,64.61532,64.91980687499999,123,60
58,64.61532,65.0720503125,119,0
62,64.61532,65.46467812499999,122,0
46,64.61532,67.7002528125,121,0
74,64.999935,65.817241875,122,60
53,64.999935,66.20986968749999,113,0
58,65.38454999999999,67.323650625,118,0
72,65.76916499999999,65.95345968749999,120,60
62,65.76916499999999,66.906984375,120,0
70,65.9614725,66.12974156249999,120,60
72,66.15378,66.41018999999999,118,60
79,66.15378,67.76435531249999,116,0
67,66.15378,67.76435531249999,120,0
74,66.3460875,66.57845906249999,118,60
53,66.538395,66.971086875,116,0
77,66.92300999999999,67.65217593749999,118,0
65,66.92300999999999,67.67621437499999,119,0
77,67.30762499999999,67.612111875,123,60
53,67.30762499999999,67.65217593749999,112,0
80,67.69224,67.74832968749999,122,60
81,67.69224,68.2290984375,122,60
58,67.69224,68.1409575,122,0
62,67.69224,68.5976878125,123,0
43,67.69224,70.785185625,120,0
55,68.076855,69.27076406249999,117,0
79,68.2691625,70.41659625,120,60
58,68.46146999999999,70.3204425,121,0
62,68.84608499999999,70.1361478125,120,0
69,69.2307,69.63935343749999,117,0
81,69.2307,70.84127531249999,116,0
55,69.615315,70.03198124999999,121,0
79,69.99992999999999,70.72909593749999,118,0
67,69.99992999999999,72.37973531249999,120,0
78,70.38454499999999,70.54480124999999,122,60
55,70.38454499999999,70.72909593749999,117,0
79,70.57685249999999,70.76915999999999,122,60
82,70.76915999999999,71.08967249999999,123,60
60,70.76915999999999,71.21787749999999,123,0
63,70.76915999999999,71.2419159375,122,0
48,70.76915999999999,72.1553765625,123,0
82,71.153775,71.330056875,122,60
55,71.153775,71.8989665625,117,0
82,71.3460825,72.09928687499999,122,60
60,71.53838999999999,72.02717156249999,118,0
47,71.92300499999999,72.163389375,122,0
63,71.92300499999999,72.1714021875,121,0
55,71.92300499999999,72.27556874999999,119,0
81,72.11531249999999,72.18742781249999,120,60
82,72.11531249999999,72.6842221875,119,60
58,72.30761999999999,72.67620937499998,123,0
63,72.30761999999999,72.76435031249999,122,0
46,72.30761999999999,73.04479875,123,0
67,72.4999275,73.11691406249999,18,0
79,72.692235,73.03678593749999,123,60
55,72.692235,73.1329396875,117,0
75,73.07685,73.17300374999999,123,60
74,73.07685,73.58967,123,60
57,73.07685,73.44543937499999,123,0
63,73.07685,73.6137084375,123,0
45,73.07685,73.85409281249999,123,0
72,73.46146499999999,75.41659125,123,60
55,73.46146499999999,73.84607999999999,118,0
58,73.84607999999999,74.230695,123,0
63,73.84607999999999,74.4230025,123,0
44,73.84607999999999,75.3444759375,123,0
56,74.230695,74.57524593749999,120,0
63,74.61531,75.10409156249999,120,0
60,74.61531,75.38453999999999,121,0
56,74.99992499999999,75.36050156249999,116,0
58,75.38453999999999,75.7771678125,123,0
63,75.38453999999999,76.041590625,123,0
43,75.38453999999999,76.18582124999999,122,0
55,75.769155,76.041590625,113,0
56,76.15377,76.57043624999999,123,0
63,76.15377,76.69864125,123,0
41,76.15377,76.91498718749999,122,0
53,76.53838499999999,76.89896156249999,117,0
78,76.92299999999999,76.98710249999999,123,60
79,76.92299999999999,79.214664375,123,60
67,76.92299999999999,77.37171749999999,123,0
58,76.92299999999999,77.38774312499999,123,0
63,76.92299999999999,77.419794375,123,0
51,76.92299999999999,79.18261312499999,122,0
39,76.92299999999999,79.27075406249999,123,0
75,76.92299999999999,79.310818125,80,48
82,76.92299999999999,80.02395843749999,92,48
39,76.971076875,77.9566528125,125,33
55,77.307615,77.7643453125,93,0
67,77.69223,78.09287062499999,123,0
58,77.69223,78.16498593749999,123,0
63,77.69223,78.19703718749999,122,0
55,78.07684499999999,78.52556249999999,117,0
39,78.124921875,78.2451140625,125,33
67,78.46145999999999,78.83806218749999,123,0
58,78.46145999999999,78.91017749999999,122,0
63,78.46145999999999,79.0624209375,121,0
39,78.509536875,79.27876687499999,125,33
55,78.84607499999998,79.15857468749999,118,0
77,79.23069,79.65536906249999,123,60
62,79.23069,79.57524093749998,123,0
58,79.23069,79.61530499999999,123,0
50,79.23069,79.88774062499999,123,0
38,79.23069,79.98389437499999,122,0
65,79.23069,80.0399840625,123,0
74,79.23069,79.99991999999999,101,48
34,79.27876687499999,80.07203531249999,125,33
79,79.61530499999999,79.83966374999999,122,60
53,79.61530499999999,79.9438303125,117,0
80,79.80761249999999,80.01594562499999,121,60
79,79.99991999999999,82.28357156249999,122,60
60,79.99991999999999,80.25632999999999,123,0
63,79.99991999999999,80.44863749999999,123,0
36,79.99991999999999,82.54799437499999,123,0
48,79.99991999999999,82.63613531249999,123,0
79,79.99991999999999,83.06081437499999,69,48
75,79.99991999999999,83.07683999999999,80,48
72,79.99991999999999,85.83324749999998,91,48
84,79.99991999999999,86.2178625,91,48
36,80.047996875,80.91338062499999,125,33
60,80.38453499999999,80.83325249999999,116,0
63,80.76915,81.4181878125,121,0
67,81.15376499999999,81.56241843749999,117,0
36,81.20184187499999,81.330046875,125,33
62,81.53837999999999,81.939020625,119,0
74,81.53837999999999,82.0592128125,118,0
77,81.53837999999999,82.227481875,100,48
36,81.586456875,82.38773812499998,125,33
63,81.92299499999999,82.98068624999999,119,0
60,82.30761,83.23709625,116,0
72,82.30761,83.509531875,122,0
82,82.30761,83.06081437499999,95,48
31,82.35568687499999,82.7643403125,125,33
79,82.692225,83.028763125,123,60
67,82.692225,83.01273749999999,114,0
30,82.74030187499999,83.17299374999999,125,33
79,83.07683999999999,83.19703218749999,123,60
80,83.07683999999999,83.61369843749999,119,60
68,83.07683999999999,83.47748062499998,123,0
65,83.07683999999999,83.65376249999998,122,0
53,83.07683999999999,84.054403125,123,0
41,83.07683999999999,84.27876187499999,120,0
77,83.07683999999999,83.958249375,98,48
80,83.07683999999999,86.24190093749999,96,48
29,83.124916875,84.26273624999999,125,33
60,83.46145499999999,83.88613406249999,120,0
79,83.65376249999998,83.91818531249999,123,60
65,83.84607,84.15055687499999,123,0
68,83.84607,84.4951078125,121,0
72,83.84607,85.18420968749999,120,0
76,83.84607,84.54318468749999,96,48
79,84.0383775,84.26273624999999,123,60
77,84.230685,84.45504374999999,122,60
52,84.230685,84.44703093749999,115,0
64,84.230685,84.487095,122,0
40,84.230685,84.63933843749999,121,0
60,84.230685,84.87972281249999,112,0
40,84.27876187499999,84.71145374999999,125,33
77,84.61529999999999,86.0335678125,123,60
63,84.61529999999999,85.05600468749999,123,0
68,84.61529999999999,85.144145625,123,0
51,84.61529999999999,85.28837624999998,123,0
39,84.61529999999999,85.47267093749998,122,0
75,84.61529999999999,85.44863249999999,92,48
39,84.663376875,85.47267093749998,125,33
60,84.99991499999999,85.42459406249999,95,0
50,85.38452999999998,85.70504249999999,123,0
68,85.38452999999998,85.7611321875,123,0
72,85.38452999999998,85.7771578125,123,0
62,85.38452999999998,85.87331156249999,123,0
38,85.38452999999998,86.11369593749998,122,0
74,85.38452999999998,86.14574718749999,99,48
38,85.43260687499999,85.92138843749999,125,33
60,85.769145,86.08164468749999,110,0
70,85.9614525,86.137734375,123,60
36,86.00952937499999,86.297990625,119,33
70,86.15375999999999,86.4822853125,123,60
66,86.15375999999999,86.394144375,18,0
62,86.15375999999999,86.61850312499999,123,0
70,86.15375999999999,87.37170749999999,122,0
34,86.15375999999999,88.87010343749999,121,0
46,86.15375999999999,88.91818031249998,123,0
74,86.15375999999999,86.2178625,86,48
77,86.15375999999999,89.3027953125,74,48
70,86.15375999999999,92.26753593749999,92,48
82,86.15375999999999,92.33965124999999,88,48
34,86.20183687499998,87.18741281249999,125,33
77,86.53837499999999,86.7707465625,122,60
58,86.53837499999999,86.97907968749999,107,0
77,86.92298999999998,87.28356656249998,123,60
65,86.92298999999998,87.35568187499999,123,0
62,86.92298999999998,87.37972031249998,123,0
79,87.307605,87.53196374999999,123,60
58,87.307605,87.71625843749999,105,0
34,87.35568187499999,87.53997656249999,121,33
79,87.69221999999999,88.10888624999998,123,60
62,87.69221999999999,88.16497593749999,122,0
65,87.69221999999999,88.18901437499999,122,0
70,87.69221999999999,88.25311687499999,120,0
34,87.74029687499998,87.97266843749999,125,33
80,88.07683499999999,88.37330906249998,122,60
58,88.07683499999999,89.41497468749999,117,0
34,88.124911875,88.42939874999999,125,33
80,88.46144999999999,88.862090625,122,60
70,88.46144999999999,88.6617703125,117,0
62,88.46144999999999,88.7739496875,122,0
65,88.46144999999999,88.78997531249999,122,0
80,88.46144999999999,89.25471843749999,90,48
34,88.50952687499999,88.70183437499999,125,33
36,88.70183437499999,88.89414187499999,125,33
82,88.846065,89.25471843749999,122,60
38,88.89414187499999,89.27074406249999,125,33
80,89.23067999999999,89.59125656249999,119,60
67,89.23067999999999,89.59125656249999,123,0
63,89.23067999999999,90.36048656249999,122,0
51,89.23067999999999,90.63292218749999,122,0
39,89.23067999999999,90.79317843749999,121,0
75,89.23067999999999,89.60728218749999,90,48
79,89.23067999999999,90.72907593749999,92,48
39,89.26273124999999,89.5752309375,125,33
79,89.61529499999999,90.304396875,118,60
58,89.61529499999999,90.62490937499999,102,0
75,89.61529499999999,90.69702468749999,18,48
39,89.64734624999998,89.82362812499998,125,33
67,89.99990999999999,90.4726659375,117,0
39,90.03196125,90.28035843749998,125,33
77,90.384525,90.5768325,123,60
65,90.384525,90.5688196875,114,0
39,90.41657624999999,90.79317843749999,125,33
75,90.5768325,90.72907593749999,122,60
63,90.5768325,90.81721687499999,115,0
77,90.76914,91.95503624999999,119,60
58,90.76914,91.00952437499998,123,0
65,90.76914,91.24990874999999,123,0
62,90.76914,91.26593437499999,123,0
50,90.76914,92.19542062499998,119,0
38,90.76914,92.33965124999999,119,0
74,90.76914,92.31561281249999,98,48
77,90.76914,92.3957409375,73,48
38,90.80119124999999,91.00151156249999,125,33
58,91.15375499999999,92.09125406249998,93,0
38,91.18580624999998,91.41016499999999,125,33
62,91.53836999999999,91.85888249999999,117,0
65,91.53836999999999,92.01112593749998,117,0
38,91.57042125,91.77074156249999,125,33
75,91.92298499999998,92.16336937499999,123,60
63,91.92298499999998,92.13933093749999,107,0
38,91.95503624999999,92.33965124999999,125,33
74,92.1152925,92.3076,116,60
62,92.1152925,92.3076,115,0
75,92.3076,93.50952187499999,119,60
60,92.3076,92.77234312499999,122,0
63,92.3076,92.78035593749999,118,0
48,92.3076,93.8540728125,121,0
36,92.3076,93.86208562499999,119,0
72,92.3076,93.90214968749999,91,48
75,92.3076,95.44862249999998,83,48
36,92.35567687499999,92.62811249999999,125,33
55,92.69221499999999,93.14093249999999,63,0
36,92.74029187499998,92.99670187499999,125,33
60,93.07682999999999,93.45343218749998,117,0
63,93.07682999999999,93.52554749999999,117,0
36,93.124906875,93.4854834375,125,33
70,93.46144499999998,93.573624375,121,60
55,93.46144499999998,93.82202156249998,112,0
31,93.50952187499999,93.88612406249999,125,33
70,93.6537525,93.82202156249998,122,60
71,93.84606,94.18259812499998,122,60
63,93.84606,94.3027903125,117,0
59,93.84606,94.31080312499999,122,0
44,93.84606,95.2963790625,122,0
71,93.84606,95.13612281249999,92,48
68,93.84606,95.50471218749999,67,48
32,93.89413687499999,95.4726609375,125,33
73,94.23067499999999,94.4790721875,119,60
56,94.23067499999999,94.64734124999998,107,0
71,94.42298249999999,94.67137968749999,120,60
73,94.61528999999999,94.78355906249999,119,60
59,94.61528999999999,95.36048156249998,121,0
63,94.61528999999999,95.45663531249998,117,0
71,94.80759749999999,94.94381531249999,119,60
73,94.99990499999998,95.13612281249999,119,60
56,94.99990499999998,95.31240468749999,109,0
71,95.19221249999998,95.32843031249999,121,60
70,95.38452,97.1152875,120,60
39,95.38452,99.95983593749999,121,0
51,95.38452,99.97586156249999,117,0
63,95.38452,96.8348390625,63,48
70,95.38452,96.91496718749998,77,48
39,95.43259687499999,99.51913124999999,125,33
27,95.43259687499999,99.53515687499998,125,33
63,95.76913499999999,99.87970781249999,114,0
67,96.15374999999999,96.51432656249999,117,0
70,96.53836499999998,96.91496718749998,120,0
72,96.92298,97.32362062499999,116,0
68,96.92298,97.39573593749999,121,0
75,96.92298,97.66817156249999,18,48
80,96.92298,97.68419718749999,51,48
68,96.92298,97.71624843749998,76,48
72,96.92298,97.72426124999998,60,48
75,97.30759499999999,97.72426124999998,112,0
67,97.69220999999999,98.13291468749999,116,0
70,97.69220999999999,98.17297874999998,118,0
70,97.69220999999999,98.50951687499999,90,48
67,97.69220999999999,98.54958093749998,96,48
75,98.07682499999999,98.50150406249999,116,0
69,98.46143999999998,98.85406781249999,118,0
66,98.46143999999998,98.926183125,108,0
69,98.46143999999998,98.99028562499998,63,48
66,98.46143999999998,99.26272124999998,63,48
75,98.84605499999999,99.24669562499999,119,0
68,99.23066999999999,99.72746437499998,120,0
65,99.23066999999999,99.83964375,119,0
68,99.23066999999999,99.79957968749999,88,48
65,99.23066999999999,99.96784874999999,97,48
75,99.61528499999999,99.89573343749998,121,0
58,99.99989999999998,100.52073281249999,119,0
34,99.99989999999998,102.86047406249999,121,0
46,99.99989999999998,105.88130437499998,123,0
34,99.99989999999998,100.95342468749999,125,33
53,100.384515,101.65855218749999,115,0
58,100.76912999999999,102.71624343749998,117,0
62,101.15374499999999,102.44380781249998,115,0
34,101.16977062499998,101.32201406249999,122,33
34,101.53034718749998,102.86047406249999,124,33
79,101.53835999999998,103.14893531249999,116,0
67,101.53835999999998,104.26271624999998,116,0
53,101.922975,102.35566687499998,101,0
65,102.30758999999999,103.0047046875,117,0
77,102.30758999999999,103.03675593749999,118,0
53,102.69220499999999,103.12489687499999,107,0
34,103.06880718749998,103.97425499999999,125,33
62,103.07681999999998,103.52553749999998,123,0
58,103.07681999999998,103.53355031249998,118,0
34,103.07681999999998,105.87329156249999,123,0
53,103.461435,104.70342093749998,104,0
58,103.84604999999999,105.75309937499999,113,0
34,104.22265218749999,104.374895625,125,33
62,104.23066499999999,105.12008718749999,116,0
34,104.60726718749999,105.40854843749999,125,33
79,104.61527999999998,106.22585531249999,116,0
67,104.61527999999998,106.22585531249999,116,0
53,104.999895,105.48066374999999,108,0
29,105.3764971875,106.14572718749999,123,33
77,105.38450999999999,106.11367593749999,118,0
65,105.38450999999999,106.11367593749999,118,0
53,105.76912499999999,106.17777843749998,115,0
62,106.14572718749999,108.84604499999999,122,65
34,106.14572718749999,107.03514937499999,125,33
58,106.15373999999998,106.48226531249999,122,0
62,106.15373999999998,106.93098281249999,122,0
46,106.15373999999998,109.21463437499999,123,0
34,106.15373999999998,109.23867281249998,123,0
53,106.53835499999998,107.7322640625,113,0
58,106.92296999999999,108.87008343749999,115,0
34,107.29957218749999,107.4598284375,122,33
62,107.30758499999999,108.49348124999999,115,0
34,107.68418718749999,109.21463437499999,125,33
67,107.69219999999999,109.29476249999999,117,0
79,107.69219999999999,109.30277531249999,116,0
53,108.07681499999998,108.67777593749999,115,0
77,108.46143,109.19059593749999,118,0
65,108.46143,109.26271124999998,120,0
53,108.84604499999999,109.24668562499998,114,0
58,108.86207062499999,109.14251906249999,123,65
60,109.21463437499999,109.55117249999999,123,65
31,109.22264718749999,110.10405656249999,125,33
58,109.23065999999999,109.67136468749999,120,0
62,109.23065999999999,110.08001812499998,123,0
43,109.23065999999999,112.32360562499998,122,0
62,109.57521093749999,111.40213218749999,123,65
55,109.61527499999998,110.93738906249999,116,0
58,109.99989,112.01110593749999,117,0
31,110.37649218749999,110.56078687499999,123,33
62,110.38450499999999,111.55437562499999,118,0
31,110.76110718749999,112.33963124999998,124,33
69,110.76911999999999,111.18578624999999,117,0
81,110.76911999999999,112.37969531249999,116,0
55,111.15373499999998,112.27552874999999,117,0
79,111.53835,112.2675159375,118,0
67,111.53835,112.38770812499999,121,0
62,111.92296499999999,112.05116999999998,117,0
62,111.93097781249999,112.2675159375,122,65
36,112.29956718749999,113.15693812499998,124,33
63,112.30757999999999,112.66815656249999,122,65
60,112.30757999999999,112.66014374999999,123,0
63,112.30757999999999,112.85245124999999,123,0
48,112.30757999999999,115.16014124999998,123,0
36,112.30757999999999,115.20020531249999,123,0
60,112.69219499999998,113.95821937499998,119,0
65,112.70020781249998,112.97264343749998,122,65
63,112.88450249999998,113.2691175,123,65
63,113.07680999999998,114.86366718749998,117,0
62,113.2691175,113.48546343749999,122,65
36,113.45341218749999,113.60565562499998,122,33
67,113.46142499999999,114.67937249999999,109,0
60,113.49347624999999,114.52712906249998,122,65
36,113.83802718749999,114.98385937499998,125,33
74,113.84603999999999,114.28674468749999,116,0
86,113.84603999999999,115.45661531249999,116,0
60,114.23065499999998,115.43257687499998,119,0
84,114.61526999999998,115.34443593749998,118,0
72,114.61526999999998,116.85885749999998,121,0
60,114.97584656249998,115.22424374999999,122,65
31,114.9918721875,115.41655124999998,123,33
63,114.99988499999999,115.72905093749999,121,0
62,115.17616687499999,115.37648718749999,122,65
36,115.37648718749999,116.50629374999998,125,33
36,115.38449999999999,115.83321749999999,123,0
67,115.38449999999999,116.11366593749999,123,0
48,115.38449999999999,116.89090874999998,123,0
63,115.39251281249999,115.70501249999998,122,65
65,115.73706374999999,116.01751218749999,122,65
60,115.76911499999999,116.51430656249998,114,0
36,115.96142249999998,116.19379406249999,99,0
63,115.97744812499998,116.28994781249999,122,65
63,116.15372999999998,116.53834499999999,118,0
62,116.27392218749999,116.46622968749999,122,65
31,116.5303321875,116.74667812499999,123,33
67,116.53834499999999,116.89892156249999,117,0
62,116.54635781249999,116.89892156249999,122,65
30,116.72263968749999,116.96302406249998,120,33
60,116.89892156249999,118.42936874999998,122,65
29,116.91494718749999,117.67616437499998,125,33
69,116.92295999999999,118.02872812499999,123,0
53,116.92295999999999,118.46141999999999,121,0
41,116.92295999999999,118.49347124999998,113,0
63,117.30757499999999,118.02872812499999,117,0
29,117.68417718749998,118.45340718749999,125,33
65,117.69218999999998,118.11686906249999,119,0
72,118.076805,118.18898437499999,119,0
34,118.45340718749999,119.42295749999998,125,33
58,118.46141999999999,118.91815031249999,119,0
62,118.46141999999999,119.31077812499998,122,0
46,118.46141999999999,121.54635281249999,121,0
62,118.46943281249999,119.64731624999999,122,65
53,118.84603499999999,120.05596968749998,113,0
58,119.23064999999998,121.16975062499999,118,0
34,119.60725218749998,119.89571343749999,121,33
60,119.61526499999998,119.7995596875,122,65
62,119.61526499999998,120.75308437499999,120,0
58,119.7995596875,119.94379031249998,122,65
60,119.98385437499999,120.20020031249999,122,65
34,119.99186718749999,121.49026312499998,125,33
79,119.99987999999999,121.61045531249998,116,0
67,119.99987999999999,121.61045531249998,120,0
62,120.20821312499999,120.3444309375,122,65
53,120.38449499999999,120.81718687499999,116,0
77,120.76910999999998,121.49827593749998,118,0
65,120.76910999999998,121.522314375,119,0
65,121.13769937499998,121.26590437499999,122,65
53,121.15372499999998,121.49827593749998,112,0
67,121.522314375,122.18737781249999,122,65
31,121.53032718749999,122.27551874999999,125,33
58,121.53833999999999,121.98705749999999,122,0
62,121.53833999999999,122.44378781249999,123,0
43,121.53833999999999,124.63128562499999,120,0
60,121.62648093749999,121.63449374999999,109,0
55,121.92295499999999,123.11686406249999,117,0
65,122.18737781249999,122.29955718749999,122,65
67,122.26750593749999,123.75788906249998,122,65
34,122.29955718749999,122.70821062499999,124,33
58,122.30756999999998,124.16654249999999,121,0
38,122.68417218749998,123.08481281249999,122,33
62,122.69218499999998,123.98224781249999,120,0
43,123.06878718749999,124.21461937499998,125,33
69,123.07679999999999,123.48545343749998,117,0
81,123.07679999999999,124.68737531249998,116,0
55,123.46141499999999,123.87808124999998,121,0
79,123.84602999999998,124.57519593749998,118,0
67,123.84602999999998,126.22583531249998,120,0
65,124.17455531249999,124.43897812499999,122,65
38,124.22263218749998,124.68737531249998,125,33
55,124.23064499999998,124.57519593749998,117,0
67,124.37487562499999,124.59122156249998,122,65
36,124.60724718749998,125.76910499999998,124,33
60,124.61525999999999,125.0639775,123,0
63,124.61525999999999,125.08801593749999,122,0
48,124.61525999999999,126.00147656249999,123,0
70,124.65532406249999,124.96782374999998,122,65
55,124.99987499999999,125.74506656249999,117,0
70,125.07199031249999,125.25628499999999,122,65
60,125.38448999999999,125.87327156249998,118,0
70,125.42455406249998,125.60884874999999,122,65
70,125.68096406249998,125.88128437499999,122,65
35,125.76109218749998,126.12968156249998,125,33
47,125.76910499999998,126.00948937499999,122,0
63,125.76910499999998,126.01750218749999,121,0
55,125.76910499999998,126.12166874999998,119,0
70,125.99346374999999,126.70660406249999,122,65
34,126.14570718749998,126.93096281249998,125,33
58,126.15371999999999,126.52230937499999,123,0
63,126.15371999999999,126.61045031249999,122,0
46,126.15371999999999,126.89089874999999,123,0
67,126.34602749999999,126.96301406249998,18,0
55,126.53833499999999,126.97903968749999,117,0
67,126.65852718749998,126.91493718749999,122,65
33,126.91493718749999,127.66814156249998,125,33
57,126.92294999999999,127.29153937499999,123,0
63,126.92294999999999,127.45980843749999,123,0
45,126.92294999999999,127.70019281249999,123,0
62,126.93096281249998,127.55596218749999,122,65
55,127.30756499999998,127.69217999999998,118,0
60,127.50788531249998,129.6232678125,122,65
32,127.68416718749998,129.26269125,125,33
58,127.69217999999998,128.07679499999998,123,0
63,127.69217999999998,128.26910249999997,123,0
44,127.69217999999998,129.19057593749997,123,0
56,128.07679499999998,128.42134593749998,120,0
63,128.46140999999997,128.95019156249998,120,0
60,128.46140999999997,129.23064,121,0
56,128.846025,129.2066015625,116,0
31,129.2226271875,129.96781875,124,33
58,129.23064,129.6232678125,123,0
63,129.23064,129.88769062499998,123,0
43,129.23064,130.03192124999998,122,0
55,129.615255,129.88769062499998,113,0
34,129.9918571875,130.78512562499998,121,33
56,129.99987,130.41653624999998,123,0
63,129.99987,130.54474125,123,0
41,129.99987,130.76108718749998,122,0
53,130.38448499999998,130.74506156249998,117,0
39,130.76108718749998,131.44217625,125,33
67,130.76909999999998,131.2178175,123,0
58,130.76909999999998,131.233843125,123,0
63,130.76909999999998,131.265894375,123,0
51,130.76909999999998,133.028713125,122,0
39,130.76909999999998,133.11685406249998,123,0
70,130.76909999999998,133.07679,97,48
75,130.76909999999998,133.092815625,86,48
67,130.77711281249998,133.0687771875,123,65
55,131.15371499999998,131.6104453125,93,0
39,131.53031718749997,131.71461187499997,123,33
67,131.53832999999997,131.938970625,123,0
58,131.53832999999997,132.01108593749998,123,0
63,131.53832999999997,132.04313718749998,122,0
39,131.91493218749997,132.099226875,123,33
55,131.922945,132.37166249999999,117,0
39,132.2995471875,132.4998675,124,33
67,132.30756,132.6841621875,123,0
58,132.30756,132.75627749999998,122,0
63,132.30756,132.9085209375,121,0
39,132.6841621875,133.0126875,123,33
55,132.692175,133.00467468749997,118,0
38,133.0687771875,133.34121281249998,124,33
62,133.07679,133.4213409375,123,0
58,133.07679,133.46140499999998,123,0
50,133.07679,133.733840625,123,0
38,133.07679,133.82999437499998,122,0
65,133.07679,133.88608406249998,123,0
77,133.07679,133.88608406249998,102,48
74,133.07679,133.89409687499997,100,48
65,133.0848028125,133.50146906249998,123,65
38,133.4533921875,133.765891875,123,33
53,133.46140499999998,133.7899303125,117,0
67,133.46941781249998,136.01749218749998,123,65
36,133.83800718749998,134.05435312499998,123,33
60,133.84601999999998,134.10243,123,0
63,133.84601999999998,134.2947375,123,0
36,133.84601999999998,136.39409437499998,123,0
48,133.84601999999998,136.4822353125,123,0
72,133.84601999999998,135.4085184375,98,48
75,133.84601999999998,135.41653125,92,48
36,134.22262218749998,134.37486562499998,122,33
60,134.23063499999998,134.6793525,116,0
36,134.60723718749998,134.94377531249998,123,33
63,134.61524999999997,135.2642878125,121,0
79,134.61524999999997,136.96300406249998,98,48
31,134.99185218749997,135.2482621875,125,33
67,134.99986499999997,135.4085184375,117,0
36,135.3764671875,135.68095406249998,123,33
62,135.38448,135.785120625,119,0
74,135.38448,135.90531281249997,118,0
69,135.38448,135.432556875,92,48
71,135.38448,136.08159468749997,77,48
74,135.38448,136.0976203125,95,48
36,135.7610821875,136.02550499999998,121,33
63,135.769095,136.82678625,119,0
36,136.1456971875,136.24986374999997,123,33
60,136.15371,137.08319625,116,0
72,136.15371,137.35563187499997,122,0
75,136.15371,136.97101687499998,92,48
72,136.15371,137.003068125,99,48
36,136.3380046875,136.522299375,122,33
67,136.5142865625,136.66653,112,65
31,136.5303121875,136.73063249999998,122,33
67,136.538325,136.8588375,114,0
72,136.61044031249997,136.74665812499998,117,65
75,136.7065940625,136.842811875,123,65
30,136.72261968749999,136.90691437499999,125,33
79,136.80274781249997,137.7562725,123,65
29,136.91492718749998,137.2434525,123,33
68,136.92293999999998,137.32358062499998,123,0
65,136.92293999999998,137.49986249999998,122,0
53,136.92293999999998,137.90050312499997,123,0
41,136.92293999999998,138.124861875,120,0
68,136.92293999999998,138.4614,99,48
77,136.92293999999998,140.03191124999998,98,48
29,137.29954218749998,137.51588812499998,122,33
60,137.30755499999998,137.7322340625,120,0
29,137.68415718749998,138.00466968749998,120,33
65,137.69216999999998,137.99665687499999,123,0
68,137.69216999999998,138.3412078125,121,0
72,137.69216999999998,139.0303096875,120,0
79,137.83640062499998,138.08479781249997,123,65
77,138.06877218749997,138.25306687499997,123,65
41,138.06877218749997,138.22902843749998,125,33
52,138.07678499999997,138.2931309375,115,0
64,138.07678499999997,138.333195,122,0
40,138.07678499999997,138.4854384375,121,0
60,138.07678499999997,138.72582281249998,112,0
40,138.26107968749997,138.477425625,125,33
77,138.333195,139.599219375,123,65
39,138.45338718749997,138.76588687499998,125,33
63,138.4614,138.90210468749999,123,0
68,138.4614,138.99024562499997,123,0
51,138.4614,139.13447624999998,123,0
39,138.4614,139.31877093749998,122,0
67,138.4614,139.26268124999999,104,48
39,138.8380021875,139.23063,120,33
60,138.846015,139.27069406249998,95,0
38,139.2226171875,139.49505281249998,125,33
50,139.23063,139.5511425,123,0
68,139.23063,139.6072321875,123,0
72,139.23063,139.6232578125,123,0
62,139.23063,139.71941156249997,123,0
38,139.23063,139.9597959375,122,0
68,139.23063,140.01588562499998,100,48
38,139.6072321875,139.83960374999998,125,33
60,139.615245,139.9277446875,110,0
70,139.759475625,139.9437703125,123,65
36,139.7995396875,139.99184718749999,121,33
34,139.99184718749999,140.3203725,125,33
66,139.99985999999998,140.24024437499997,18,0
62,139.99985999999998,140.464603125,123,0
70,139.99985999999998,141.2178075,122,0
34,139.99985999999998,142.71620343749998,121,0
46,139.99985999999998,142.76428031249998,123,0
70,139.99985999999998,141.6104353125,95,48
74,139.99985999999998,141.618448125,96,48
70,140.03191124999998,140.3444109375,123,65
34,140.37646218749998,140.56876968749998,121,33
77,140.38447499999998,140.6809490625,123,65
58,140.38447499999998,140.8251796875,107,0
34,140.76107718749998,140.97742312499997,122,33
65,140.76908999999998,141.201781875,123,0
62,140.76908999999998,141.2258203125,123,0
77,140.77710281249998,141.12966656249998,123,65
34,141.14569218749998,141.33799968749997,123,33
58,141.15370499999997,141.5623584375,105,0
79,141.16973062499997,141.48223031249998,123,65
34,141.53030718749997,141.7706915625,125,33
62,141.53831999999997,142.01107593749998,122,0
65,141.53831999999997,142.03511437499998,122,0
70,141.53831999999997,142.099216875,120,0
72,141.53831999999997,142.2995371875,100,48
75,141.53831999999997,142.323575625,96,48
79,141.57037125,141.906909375,123,65
34,141.9149221875,142.131268125,125,33
58,141.922935,143.0687671875,117,0
80,141.9469734375,142.23543468749997,123,65
34,142.2995371875,142.483831875,123,33
70,142.30755,142.5078703125,117,0
62,142.30755,142.62004968749997,122,0
65,142.30755,142.6360753125,122,0
74,142.30755,143.08479281249998,95,48
77,142.30755,143.10883124999998,96,48
80,142.3315884375,143.44536937499998,123,65
36,142.4918446875,142.7001778125,124,33
38,142.6841521875,142.98863906249997,125,33
39,143.0687671875,144.01427906249998,122,33
58,143.07677999999999,143.26107468749998,123,0
51,143.07677999999999,143.6136384375,123,0
67,143.07677999999999,143.7899203125,122,0
63,143.07677999999999,144.23062499999997,122,0
39,143.07677999999999,144.52709906249999,122,0
75,143.07677999999999,143.83799718749998,98,48
79,143.07677999999999,144.663316875,102,48
79,143.4213309375,144.90370124999998,123,65
67,143.82197156249998,144.22261218749998,122,30
67,143.84600999999998,144.26267624999997,122,0
58,143.84600999999998,144.55915031249998,122,0
51,143.84600999999998,144.60722718749997,123,0
75,143.84600999999998,144.55915031249998,74,48
70,143.84600999999998,145.46459812499998,87,48
65,144.19857374999998,144.39889406249998,124,30
67,144.20658656249998,144.60722718749997,117,30
39,144.22261218749998,144.58318874999998,120,33
65,144.23062499999997,144.43895812499997,122,0
63,144.40690687499998,144.56716312499998,124,30
63,144.42293249999997,144.59120156249998,112,0
65,144.58318874999998,144.78350906249997,119,30
70,144.59120156249998,145.7610721875,124,30
38,144.60722718749997,145.51267499999997,123,33
62,144.61523999999997,145.5847903125,123,0
58,144.61523999999997,145.64087999999998,102,0
65,144.61523999999997,145.68094406249998,123,0
70,144.61523999999997,145.73703375,122,0
38,144.61523999999997,146.00145656249998,123,0
77,144.61523999999997,145.46459812499998,89,48
63,144.79152187499997,144.95177812499998,119,30
70,144.97581656249997,146.1456871875,119,30
50,145.38447,146.17773843749998,122,0
74,145.38447,146.12164875,89,48
65,145.38447,146.1456871875,82,48
38,145.7610721875,146.1456871875,124,33
67,145.7610721875,146.137674375,124,30
67,145.769085,146.0895975,122,0
36,146.1456871875,147.13126312499998,122,33
72,146.1456871875,147.5399165625,124,30
67,146.1456871875,146.52228937499999,119,30
60,146.1537,147.53190374999997,122,0
72,146.1537,147.5559421875,122,0
36,146.1537,147.563955,123,0
63,146.1537,147.5719678125,122,0
67,146.1537,147.579980625,123,0
75,146.1537,146.96299406249997,77,48
67,146.1537,146.97100687499997,89,48
72,146.53030218749998,147.9245315625,119,30
48,146.92292999999998,148.30113375,121,0
79,146.92292999999998,147.70818562499997,92,48
72,146.92292999999998,147.740236875,77,48
36,147.29953218749998,147.44376281249998,119,33
72,147.66812156249998,148.124851875,124,30
36,147.68414718749997,148.4533771875,122,33
60,147.69215999999997,147.94857,123,0
63,147.69215999999997,148.04472374999997,123,0
67,147.69215999999997,148.15690312499999,123,0
72,147.69215999999997,148.333185,123,0
36,147.69215999999997,149.022286875,123,0
84,147.69215999999997,148.445364375,78,48
75,147.69215999999997,149.214594375,86,48
72,148.05273656249997,148.509466875,119,30
62,148.07677499999997,148.2610696875,122,0
74,148.07677499999997,148.2690825,124,30
75,148.2610696875,148.51747968749999,124,30
63,148.2690825,148.77388968749997,119,0
31,148.4533771875,148.8540178125,122,33
60,148.46139,148.68574875,123,0
67,148.46139,148.88606906249998,123,0
48,148.46139,149.1745303125,121,0
72,148.46139,150.24824718749997,122,0
79,148.46139,149.214594375,84,48
74,148.46139,148.6536975,119,30
72,148.5014540625,148.88606906249998,124,30
75,148.6456846875,148.90209468749998,119,30
30,148.8379921875,149.2386328125,120,33
62,148.846005,149.09440218749998,119,0
74,148.8540178125,149.06235093749999,124,30
72,148.88606906249998,149.27068406249998,119,30
43,149.0383125,149.13446624999997,118,0
63,149.0383125,149.16651749999997,114,0
75,149.0383125,149.25465843749998,124,30
29,149.2226071875,150.36042656249998,123,33
65,149.23062,150.2963240625,121,0
41,149.23062,150.2963240625,122,0
68,149.23062,150.74504156249998,121,0
77,149.23062,150.04792687499997,89,48
80,149.23062,152.33959124999998,84,48
74,149.2386328125,149.44696593749998,119,30
77,149.27068406249998,150.40049062499997,124,30
75,149.4229275,149.63927343749998,119,30
77,149.65529906249998,150.78510562499997,119,30
53,149.99984999999998,150.28831125,122,0
76,149.99984999999998,150.77709281249997,94,48
41,150.37645218749998,150.59279812499997,122,33
64,150.38446499999998,150.6488878125,123,0
72,150.38446499999998,150.72100312499998,123,0
52,150.38446499999998,150.78510562499997,122,0
40,150.38446499999998,150.79311843749997,123,0
60,150.38446499999998,151.46619468749998,123,0
72,150.40850343749997,150.688951875,124,30
40,150.56875968749998,150.817156875,121,33
77,150.72901593749998,150.96138749999997,124,30
39,150.76106718749998,151.49023312499997,123,33
72,150.76907999999997,151.3700409375,123,0
63,150.76907999999997,151.37805375,123,0
39,150.76907999999997,151.586386875,123,0
68,150.76907999999997,152.0911940625,123,0
75,150.76907999999997,151.586386875,84,48
72,150.79311843749997,151.07356687499998,119,30
79,150.96138749999997,151.10561812499998,123,30
77,151.11363093749998,151.34600249999997,119,30
80,151.18574625,151.29792562499998,124,30
82,151.34600249999997,151.43414343749998,124,30
79,151.34600249999997,151.49023312499997,118,30
82,151.52228437499997,152.77228312499997,124,30
38,151.5302971875,152.33959124999998,125,33
72,151.53831,151.85080968749998,123,0
50,151.53831,151.9309378125,123,0
60,151.53831,151.938950625,123,0
62,151.53831,152.22741187499997,123,0
74,151.53831,152.27548875,87,48
80,151.57036125,151.68254062499997,119,30
82,151.7306175,151.81875843749998,119,30
82,151.906899375,153.15689812499997,119,30
34,152.2995271875,153.33317999999997,125,33
46,152.30754,152.87644968749998,123,0
34,152.30754,153.09279562499998,123,0
58,152.30754,153.30112874999998,123,0
62,152.30754,153.78991031249998,123,0
65,152.30754,153.96619218749998,123,0
70,152.30754,154.33478156249998,123,0
70,152.30754,153.24503906249998,84,48
82,152.30754,154.6793325,83,48
80,152.75625749999998,152.88446249999998,124,30
82,152.89247531249998,153.06074437499998,124,30
80,153.028693125,153.14888531249997,124,30
46,153.07676999999998,154.40689687499997,120,0
76,153.07676999999998,153.204975,89,48
75,153.07676999999998,153.23702624999999,89,48
72,153.07676999999998,153.7738846875,97,48
80,153.14087249999997,153.26907749999998,119,30
79,153.14888531249997,153.28510312499998,124,30
75,153.26907749999998,153.68574374999997,42,48
82,153.27709031249998,153.44535937499998,119,30
80,153.28510312499998,153.4052953125,124,30
79,153.3892696875,153.5254875,124,30
80,153.413308125,153.5335003125,119,30
34,153.45337218749998,153.62965406249998,119,33
34,153.46138499999998,153.7738846875,119,0
58,153.46138499999998,154.55914031249998,118,0
77,153.51747468749997,153.62965406249998,124,30
79,153.5335003125,153.66971812499997,119,30
79,153.60561562499998,153.7578590625,124,30
80,153.66971812499997,153.78991031249998,119,30
77,153.7097821875,153.84599999999998,124,30
79,153.7738846875,153.9101025,119,30
34,153.83798718749998,154.8155503125,123,33
75,153.83798718749998,153.97420499999998,124,30
34,153.84599999999998,154.6713196875,117,0
62,153.84599999999998,154.77548624999997,120,0
77,153.84599999999998,155.368434375,89,48
74,153.84599999999998,155.3764471875,92,48
77,153.9020896875,154.01426906249998,119,30
77,153.97420499999998,154.0783715625,124,30
79,153.99023062499998,154.14247406249999,119,30
75,154.06234593749997,154.19055093749998,124,30
77,154.0943971875,154.23061499999997,119,30
74,154.17452531249998,154.2546534375,124,30
75,154.22260218749997,154.35881999999998,119,30
65,154.23061499999997,154.663306875,120,0
75,154.2546534375,154.36683281249998,124,30
74,154.35080718749998,154.4469609375,124,30
77,154.35881999999998,154.4629865625,119,30
75,154.4469609375,154.57516593749997,119,30
72,154.45497375,154.61523,124,30
74,154.55914031249998,154.6392684375,119,30
70,154.58317874999997,155.3443959375,124,30
46,154.61523,155.208178125,122,0
70,154.61523,155.24824218749998,120,0
58,154.61523,155.27228062499998,120,0
80,154.61523,155.3924728125,82,48
75,154.6392684375,154.75144781249998,119,30
74,154.73542218749998,154.8315759375,119,30
36,154.7995246875,154.999845,121,33
65,154.8075375,155.3604215625,107,0
72,154.83958875,154.999845,119,30
70,154.96779374999997,155.7290109375,119,30
38,154.9918321875,155.400485625,124,33
34,154.999845,155.12003718749997,116,0
39,155.3764471875,156.02548499999997,123,33
58,155.38446,156.37003593749998,123,0
39,155.38446,156.39407437499997,123,0
70,155.38446,156.40208718749997,123,0
67,155.38446,156.41811281249997,123,0
63,155.38446,156.4661896875,123,0
79,155.38446,156.21779249999997,88,48
75,155.38446,156.92291999999998,83,48
70,155.63285718749998,155.79311343749998,124,30
72,155.80913906249998,156.00945937499998,124,30
74,155.96939531249998,156.0976003125,124,30
70,156.01747218749998,156.17772843749998,119,30
75,156.1296515625,156.24183093749997,124,30
39,156.14567718749998,156.36202312499998,119,33
51,156.15368999999998,156.93093281249998,120,0
82,156.15368999999998,156.92291999999998,90,48
72,156.19375406249998,156.39407437499997,119,30
77,156.2738821875,156.42612562499997,124,30
74,156.35401031249998,156.4822153125,119,30
79,156.40208718749997,156.52227937499998,124,30
75,156.51426656249998,156.6264459375,119,30
39,156.53029218749998,156.92291999999998,122,33
39,156.53830499999998,156.842791875,122,0
63,156.53830499999998,156.88285593749998,120,0
67,156.53830499999998,156.89888156249998,120,0
58,156.53830499999998,157.25144531249998,123,0
70,156.53830499999998,157.82836781249998,122,0
80,156.53830499999998,156.66651,124,30
82,156.6584971875,157.17933,124,30
77,156.6584971875,156.810740625,119,30
79,156.78670218749997,156.90689437499998,119,30
38,156.91490718749998,157.63606031249998,125,33
62,156.92291999999998,157.33958625,123,0
65,156.92291999999998,157.5559321875,123,0
38,156.92291999999998,157.77227812499999,121,0
77,156.92291999999998,158.50144406249998,78,48
74,156.92291999999998,158.54150812499998,92,48
80,156.92291999999998,157.05112499999998,119,30
82,157.0431121875,157.563945,119,30
70,157.1713171875,157.27548374999998,124,30
72,157.29952218749997,157.48381687499997,124,30
58,157.30753499999997,157.7642653125,117,0
74,157.45176562499998,157.579970625,124,30
62,157.49984249999997,158.092790625,110,0
70,157.5559321875,157.66009874999997,119,30
75,157.59599624999998,157.7161884375,124,30
38,157.68413718749997,157.80432937499998,121,33
72,157.68413718749997,157.86843187499997,119,30
50,157.69214999999997,158.46138,123,0
82,157.69214999999997,158.42131593749997,78,48
77,157.7322140625,157.91650875,124,30
74,157.83638062499998,157.96458562499998,119,30
65,157.8844575,158.14086749999998,123,0
70,157.8844575,158.253046875,122,0
58,157.8844575,158.31714937499999,122,0
79,157.8844575,158.01266249999998,124,30
75,157.98061124999998,158.1008034375,119,30
80,158.03670093749997,158.15689312499998,124,30
38,158.0687521875,158.51746968749998,125,33
43,158.076765,158.4693928125,116,0
77,158.1168290625,158.30112375,119,30
82,158.17291874999998,159.61522499999998,124,30
67,158.2690725,158.31714937499999,112,0
79,158.2690725,158.39727749999997,119,30
80,158.42131593749997,158.54150812499998,119,30
36,158.4533671875,159.5431096875,125,33
60,158.46138,159.27868687499998,123,0
63,158.46138,159.51907125,123,0
67,158.46138,159.63926343749998,123,0
72,158.46138,159.82355812499998,123,0
36,158.46138,159.919711875,123,0
75,158.46138,159.98381437499998,86,48
72,158.46138,160.00785281249998,89,48
82,158.55753374999998,159.99983999999998,119,30
48,159.23060999999998,160.48060875,122,0
82,159.23060999999998,159.99983999999998,87,48
31,159.60721218749998,159.86362218749997,121,33
62,159.61522499999998,159.79951968749998,117,0
74,159.61522499999998,159.79150687499998,124,30
34,159.79951968749998,159.97580156249998,122,33
63,159.80753249999998,160.0719553125,116,0
75,159.80753249999998,159.99983999999998,124,30
36,159.99182718749998,160.76906999999997,124,33
60,159.99983999999998,160.272275625,122,0
67,159.99983999999998,160.640865,122,0
72,159.99983999999998,160.656890625,123,0
36,159.99983999999998,161.0174671875,121,0
70,159.99983999999998,160.76105718749997,81,48
77,159.99983999999998,160.8331725,78,48
74,159.99983999999998,160.89727499999998,74,48
72,159.99983999999998,160.36041656249998,124,30
74,159.99983999999998,160.17612187499998,119,30
75,160.19214749999998,160.38445499999997,119,30
62,160.38445499999997,160.57676249999997,120,0
74,160.38445499999997,160.57676249999997,124,30
72,160.38445499999997,160.74503156249997,119,30
75,160.55272406249998,160.7931084375,124,30
63,160.57676249999997,160.77708281249997,122,0
31,160.76105718749997,161.1777234375,122,33
60,160.76906999999997,160.96939031249997,123,0
67,160.76906999999997,161.22580031249998,123,0
48,160.76906999999997,161.3379796875,122,0
72,160.76906999999997,161.37804375,123,0
82,160.76906999999997,160.87323656249998,74,48
72,160.76906999999997,161.5383,74,48
75,160.76906999999997,161.5383,90,48
74,160.76906999999997,160.96137749999997,119,30
72,160.78509562499997,161.201761875,124,30
75,160.93733906249997,161.1777234375,119,30
30,161.14567218749997,161.50624874999997,122,33
74,161.14567218749997,161.3379796875,124,30
62,161.153685,161.394069375,114,0
72,161.169710625,161.58637687499998,119,30
75,161.32195406249997,161.5302871875,124,30
43,161.3459925,161.44214624999998,119,0
63,161.3459925,161.47419749999997,117,0
29,161.5302871875,162.6681065625,124,33
74,161.5302871875,161.7225946875,119,30
60,161.5383,162.17932499999998,123,0
65,161.5383,162.291504375,123,0
72,161.5383,162.31554281249998,123,0
68,161.5383,162.33156843749998,122,0
41,161.5383,162.69214499999998,119,0
72,161.5383,162.30752999999999,81,48
77,161.5383,162.49983749999998,81,48
65,161.5383,162.49983749999998,81,48
80,161.5383,162.59599124999997,81,48
77,161.554325625,162.612016875,124,30
75,161.7065690625,161.9149021875,119,30
77,161.938940625,162.996631875,119,30
53,162.30752999999999,162.71618343749998,123,0
65,162.6200296875,162.93252937499997,124,30
41,162.68413218749998,162.90849093749998,125,33
65,162.69214499999998,162.78028593749997,122,0
77,162.69214499999998,162.78829875,121,0
77,162.69214499999998,162.78829875,100,48
65,162.69214499999998,162.78829875,100,48
53,162.69214499999998,162.78829875,100,48
89,162.69214499999998,162.8123371875,92,48
67,162.86842687499998,163.11682406249997,124,30
40,162.87643968749998,163.10881124999997,121,33
52,162.88445249999998,162.91650374999998,120,0
67,162.88445249999998,162.95656781249997,123,0
79,162.88445249999998,162.9886190625,123,0
91,162.88445249999998,162.98060625,100,48
79,162.88445249999998,162.98060625,100,48
64,162.88445249999998,162.98060625,100,48
52,162.88445249999998,162.98060625,100,48
65,163.0046446875,163.31714437499997,119,30
39,163.06874718749998,163.80592593749998,125,33
68,163.07675999999998,163.42131093749998,122,0
80,163.07675999999998,163.50945187499997,123,0
63,163.07675999999998,163.5254775,123,0
51,163.07675999999998,163.55752875,122,0
51,163.07675999999998,163.46137499999998,100,48
68,163.07675999999998,163.5174646875,100,48
80,163.07675999999998,163.55752875,100,48
63,163.07675999999998,163.58156718749999,100,48
75,163.07675999999998,163.7097721875,100,48
92,163.07675999999998,163.717785,100,48
68,163.12483687499997,163.78188749999998,124,30
67,163.25304187499998,163.50143906249997,119,30
68,163.50945187499997,164.16650249999998,119,30
77,163.80592593749998,164.61522,124,30
38,163.83797718749997,164.6072071875,125,33
89,163.84598999999997,164.20656656249997,122,0
77,163.84598999999997,164.21457937499997,123,0
50,163.84598999999997,164.2546434375,121,0
62,163.84598999999997,164.26265625,123,0
89,163.84598999999997,164.278681875,103,48
77,163.84598999999997,164.31874593749998,104,48
50,163.84598999999997,164.35880999999998,95,48
62,163.84598999999997,164.38284843749997,90,48
77,164.19054093749997,164.999835,119,30
37,164.6072071875,165.5687446875,125,33
68,164.6072071875,165.64085999999998,124,30
68,164.61522,165.42451406249998,123,0
80,164.61522,165.45656531249998,122,0
61,164.61522,165.57675749999999,123,0
49,164.61522,165.83316749999997,123,0
68,164.61522,165.41650124999998,103,48
80,164.61522,165.43252687499998,98,48
61,164.61522,165.68893687499997,104,48
49,164.61522,165.720988125,97,48
68,164.9918221875,166.02547499999997,119,30
37,165.5687446875,166.53028218749998,123,33
85,165.57675749999999,165.6969496875,118,0
73,165.57675749999999,165.6969496875,118,0
61,165.57675749999999,166.53829499999998,118,0
85,165.57675749999999,165.7129753125,102,48
73,165.57675749999999,165.7129753125,100,48
73,165.63284718749998,165.79310343749998,124,30
36,165.85720593749997,166.17771843749998,125,33
85,165.86521874999997,166.02547499999997,123,0
73,165.86521874999997,166.02547499999997,123,0
60,165.86521874999997,166.073551875,121,0
48,165.86521874999997,166.073551875,117,0
73,165.86521874999997,166.0895775,124,30
85,165.96137249999998,166.0975903125,100,48
60,165.96137249999998,166.1136159375,89,48
73,165.96137249999998,166.12162874999999,100,48
48,165.96137249999998,166.13765437499998,92,48
73,166.01746218749997,166.17771843749998,119,30
35,166.14566718749998,166.91489718749997,125,33
85,166.15367999999998,166.52226937499998,122,0
73,166.15367999999998,166.57034624999997,123,0
47,166.15367999999998,166.66649999999998,123,0
59,166.15367999999998,166.69053843749998,123,0
85,166.15367999999998,166.53028218749998,103,48
73,166.15367999999998,166.58637187499997,104,48
47,166.15367999999998,166.6023975,95,48
59,166.15367999999998,166.63444875,100,48
73,166.18573124999998,166.89085874999998,124,30
73,166.24983375,166.4741925,119,30
73,166.57034624999997,167.27547374999997,119,30
61,166.90688437499998,167.47579406249997,124,30
34,166.91489718749997,167.65207593749997,125,33
73,166.92290999999997,167.31553781249997,123,0
58,166.92290999999997,167.31553781249997,123,0
61,166.92290999999997,167.3475890625,123,0
46,166.92290999999997,167.3716275,120,0
61,166.92290999999997,167.38765312499999,104,48
46,166.92290999999997,167.38765312499999,102,48
73,166.92290999999997,167.40367874999998,100,48
58,166.92290999999997,167.41970437499998,102,48
61,167.29149937499997,167.86040906249997,119,30
33,167.68412718749997,167.95656281249998,125,33
69,167.69214,167.80431937499998,123,0
76,167.69214,167.81233218749998,123,0
81,167.69214,167.82034499999997,123,0
33,167.69214,167.8764346875,123,0
45,167.69214,167.8844475,123,0
57,167.69214,167.91649875,121,48
33,167.69214,167.91649875,119,48
45,167.69214,167.94854999999998,122,48
57,168.076755,168.14085749999998,120,0
64,168.076755,168.16489593749998,122,0
61,168.076755,168.16489593749998,122,0
61,168.46137,168.53348531249998,119,0
57,168.46137,168.53348531249998,121,0
64,168.46137,168.55752374999997,122,0
57,168.84598499999998,168.93412593749997,121,0
61,168.84598499999998,168.94213874999997,121,0
64,168.84598499999998,168.95816437499997,123,0
57,169.23059999999998,169.31874093749997,120,0
61,169.23059999999998,169.3347665625,120,0
64,169.23059999999998,169.342779375,120,0
61,169.61521499999998,169.7033559375,119,0
57,169.61521499999998,169.7033559375,121,0
64,169.61521499999998,169.727394375,118,0
57,169.99982999999997,170.0719453125,115,0
64,169.99982999999997,170.09598375,119,0
61,169.99982999999997,170.09598375,118,0
57,170.38444499999997,170.464573125,118,0
61,170.38444499999997,170.48059874999998,118,0
64,170.38444499999997,170.48861156249998,120,0
57,170.76905999999997,170.85720093749998,122,0
62,170.76905999999997,170.89726499999998,123,0
66,170.76905999999997,170.91329062499997,122,0
74,170.76905999999997,171.08155968749998,119,69
57,171.153675,171.22579031249998,122,0
64,171.153675,171.24181593749998,123,0
61,171.153675,171.24181593749998,121,0
73,171.153675,171.22579031249998,118,69
57,171.3459825,171.39405937499998,117,0
64,171.3459825,171.43412343749998,118,0
61,171.3459825,171.43412343749998,121,0
73,171.3459825,171.43412343749998,119,69
60,171.53829,171.65046937499997,122,0
57,171.53829,171.65046937499997,122,0
63,171.53829,171.69854625,122,0
71,171.53829,171.57034124999998,113,69
72,171.53829,171.61841812499998,117,69
72,171.7305975,171.81072562499998,118,69
57,171.922905,172.02707156249997,123,0
64,171.922905,172.05111,123,0
61,171.922905,172.0591228125,123,0
73,171.922905,171.99502031249997,119,69
73,172.11521249999998,172.17931499999997,118,69
57,172.30751999999998,172.39566093749997,123,0
62,172.30751999999998,172.419699375,123,0
66,172.30751999999998,172.4437378125,122,0
74,172.30751999999998,172.37963531249997,118,69
74,172.49982749999998,172.58796843749997,119,69
61,172.69213499999998,172.76425031249997,123,0
57,172.69213499999998,172.76425031249997,122,0
64,172.69213499999998,172.7802759375,122,0
73,172.69213499999998,172.77226312499997,119,69
57,172.88444249999998,172.93251937499997,118,0
64,172.88444249999998,172.9565578125,122,0
61,172.88444249999998,172.9565578125,119,0
73,172.88444249999998,172.964570625,118,69
60,173.07674999999998,173.28508312499997,123,0
57,173.07674999999998,173.29309593749997,121,0
63,173.07674999999998,173.31713437499997,123,0
72,173.07674999999998,173.38123687499998,118,69
37,173.45335218749997,173.56553156249998,125,33
88,173.46136499999997,173.5334803125,121,60
64,173.46136499999997,173.5254675,123,0
61,173.46136499999997,173.541493125,121,0
57,173.46136499999997,173.541493125,120,0
81,173.46136499999997,173.5254675,96,48
76,173.46136499999997,173.541493125,115,48
73,173.46136499999997,173.5495059375,112,48
69,173.46136499999997,173.5495059375,114,48
64,173.46136499999997,173.58956999999998,119,48
76,173.46136499999997,173.5334803125,120,62
37,173.64565968749997,173.79790312499998,124,33
88,173.65367249999997,173.733800625,120,60
57,173.65367249999997,173.74181343749999,118,0
64,173.65367249999997,173.74982624999998,123,0
61,173.65367249999997,173.75783906249998,121,0
69,173.65367249999997,173.74982624999998,115,48
81,173.65367249999997,173.75783906249998,112,48
73,173.65367249999997,173.78989031249998,112,48
76,173.65367249999997,173.79790312499998,117,48
64,173.65367249999997,173.82995437499997,119,48
76,173.65367249999997,173.733800625,119,62
38,173.83796718749997,174.16649249999998,125,33
93,173.84597999999997,174.16649249999998,122,60
57,173.84597999999997,174.0463003125,123,0
69,173.84597999999997,174.07033875,123,0
62,173.84597999999997,174.0943771875,123,0
66,173.84597999999997,174.11841562499998,123,0
74,173.84597999999997,174.10238999999999,121,48
62,173.84597999999997,174.14245406249998,119,48
78,173.84597999999997,174.19053093749997,118,48
81,173.84597999999997,174.20655656249997,118,48
66,173.84597999999997,174.20655656249997,110,48
69,173.84597999999997,174.21456937499997,121,48
81,173.84597999999997,174.16649249999998,121,62
37,174.22258218749997,174.31873593749998,124,33
88,174.230595,174.31072312499998,120,60
64,174.230595,174.278671875,118,0
57,174.230595,174.28668468749999,115,0
61,174.230595,174.30271031249998,118,0
81,174.230595,174.2546334375,18,48
73,174.230595,174.31072312499998,115,48
69,174.230595,174.31072312499998,114,48
64,174.230595,174.31072312499998,112,48
76,174.230595,174.32674874999998,116,48
61,174.230595,174.35879999999997,108,48
76,174.230595,174.31072312499998,119,62
37,174.4148896875,174.52706906249998,125,33
88,174.4229025,174.51104343749998,122,60
57,174.4229025,174.51104343749998,113,0
61,174.4229025,174.54309468749997,118,0
64,174.4229025,174.55912031249997,123,0
81,174.4229025,174.51905624999998,114,48
69,174.4229025,174.52706906249998,117,48
76,174.4229025,174.55110749999997,108,48
73,174.4229025,174.55110749999997,115,48
61,174.4229025,174.56713312499997,118,48
64,174.4229025,174.6392484375,108,48
76,174.4229025,174.51104343749998,120,62
38,174.6071971875,174.91969687499997,125,33
93,174.61521,174.9597609375,122,60
57,174.61521,174.87963281249998,123,0
69,174.61521,174.88764562499998,123,0
62,174.61521,174.88764562499998,123,0
66,174.61521,174.92770968749997,123,0
74,174.61521,174.8155303125,120,48
81,174.61521,174.93572249999997,119,48
78,174.61521,174.93572249999997,119,48
62,174.61521,174.94373531249997,123,48
66,174.61521,174.95174812499997,119,48
69,174.61521,175.07995312499997,119,48
81,174.61521,174.9597609375,121,62
37,174.9918121875,175.08796593749997,125,33
88,174.999825,175.08796593749997,121,60
57,174.999825,175.06392749999998,117,0
64,174.999825,175.07194031249998,122,0
61,174.999825,175.07995312499997,121,0
76,174.999825,175.07995312499997,112,48
61,174.999825,175.09597874999997,113,48
73,174.999825,175.10399156249997,114,48
64,174.999825,175.12001718749997,117,48
76,174.999825,175.08796593749997,120,62
37,175.1841196875,175.3283503125,125,33
88,175.19213249999999,175.30431187499997,120,60
64,175.19213249999999,175.28027343749997,122,0
57,175.19213249999999,175.28828624999997,117,0
61,175.19213249999999,175.29629906249997,121,0
69,175.19213249999999,175.31232468749997,122,0
81,175.19213249999999,175.22418374999998,101,48
76,175.19213249999999,175.26424781249997,114,48
69,175.19213249999999,175.26424781249997,115,48
73,175.19213249999999,175.29629906249997,116,48
64,175.19213249999999,175.29629906249997,120,48
61,175.19213249999999,175.30431187499997,107,48
76,175.19213249999999,175.30431187499997,119,62
36,175.37642718749998,175.496619375,123,33
87,175.38443999999998,175.48059374999997,121,60
57,175.38443999999998,175.45655531249997,121,0
69,175.38443999999998,175.47258093749997,123,0
60,175.38443999999998,175.48059374999997,121,0
63,175.38443999999998,175.48860656249997,123,0
69,175.38443999999998,175.45655531249997,111,48
75,175.38443999999998,175.47258093749997,118,48
72,175.38443999999998,175.48059374999997,118,48
63,175.38443999999998,175.48059374999997,116,48
60,175.38443999999998,175.48860656249997,113,48
75,175.38443999999998,175.48059374999997,120,62
36,175.56873468749998,175.720978125,122,33
87,175.57674749999998,175.688926875,119,60
60,175.57674749999998,175.66488843749997,117,0
57,175.57674749999998,175.66488843749997,122,0
69,175.57674749999998,175.67290124999997,122,0
63,175.57674749999998,175.688926875,122,0
69,175.57674749999998,175.63283718749997,113,48
72,175.57674749999998,175.65687562499997,115,48
75,175.57674749999998,175.67290124999997,114,48
60,175.57674749999998,175.6969396875,112,48
63,175.57674749999998,175.7129653125,115,48
75,175.57674749999998,175.688926875,118,62
37,175.76104218749998,175.93732406249998,125,33
88,175.76905499999998,175.92129843749998,121,60
69,175.76905499999998,175.86520875,121,0
57,175.76905499999998,175.89726,123,0
64,175.76905499999998,175.913285625,123,0
61,175.76905499999998,175.92129843749998,123,0
69,175.76905499999998,175.9052728125,119,48
76,175.76905499999998,175.92931124999998,118,48
73,175.76905499999998,175.93732406249998,116,48
61,175.76905499999998,175.97738812499998,116,48
64,175.76905499999998,175.99341374999997,112,48
76,175.76905499999998,175.92129843749998,119,62
38,176.14565718749998,176.39405437499997,125,33
90,176.15366999999998,176.34597749999998,121,60
57,176.15366999999998,176.29790062499998,123,0
62,176.15366999999998,176.31392624999998,122,0
69,176.15366999999998,176.33796468749998,123,0
66,176.15366999999998,176.37001593749997,122,0
69,176.15366999999998,176.24982375,120,48
74,176.15366999999998,176.28187499999999,119,48
78,176.15366999999998,176.32193906249998,119,48
66,176.15366999999998,176.32995187499998,111,48
62,176.15366999999998,176.35399031249997,119,48
78,176.15366999999998,176.34597749999998,120,62
37,176.53027218749997,176.71456687499997,125,33
88,176.53828499999997,176.69854124999998,122,60
64,176.53828499999997,176.71456687499997,123,0
61,176.53828499999997,176.71456687499997,123,0
57,176.53828499999997,176.71456687499997,123,0
69,176.53828499999997,176.73860531249997,123,0
69,176.53828499999997,176.66648999999998,122,48
73,176.53828499999997,176.69052843749998,118,48
76,176.53828499999997,176.71456687499997,122,48
64,176.53828499999997,176.73059249999997,120,48
61,176.53828499999997,176.73860531249997,119,48
76,176.53828499999997,176.69854124999998,121,62
36,176.91488718749997,177.03507937499998,125,33
64,176.92289999999997,176.9870025,123,0
60,176.92289999999997,176.9870025,123,0
67,176.92289999999997,176.9950153125,123,0
48,176.92289999999997,177.003028125,120,0
55,176.92289999999997,177.01104093749998,123,0
72,176.92289999999997,176.9870025,120,48
67,176.92289999999997,176.9870025,119,48
60,176.92289999999997,176.9870025,120,48
76,176.92289999999997,176.9950153125,118,48
64,176.92289999999997,176.9950153125,119,48
36,176.92289999999997,176.9870025,122,47
48,176.92289999999997,176.9950153125,118,47
88,176.95495125,176.970976875,113,52
76,176.970976875,177.05911781249998,113,52
55,177.08315624999997,177.21136124999998,119,0
60,177.09116906249997,177.17931,123,0
48,177.09116906249997,177.19533562499998,118,0
67,177.09116906249997,177.20334843749998,123,0
64,177.09918187499997,177.19533562499998,123,0
36,177.10719468749997,177.22738687499998,120,33
72,177.11520749999997,177.18732281249999,114,48
67,177.11520749999997,177.19533562499998,116,48
76,177.11520749999997,177.20334843749998,116,48
60,177.11520749999997,177.21136124999998,116,48
64,177.11520749999997,177.21937406249998,108,48
48,177.11520749999997,177.18732281249999,117,47
36,177.11520749999997,177.20334843749998,122,47
88,177.1392459375,177.21136124999998,113,52
76,177.1392459375,177.22738687499998,113,52
60,177.28347656249997,177.37963031249998,122,0
67,177.29148937499997,177.39565593749998,123,0
48,177.29148937499997,177.40366874999998,123,0
55,177.29148937499997,177.41168156249998,121,0
64,177.29950218749997,177.38764312499998,123,0
36,177.29950218749997,177.45975843749997,116,33
72,177.30751499999997,177.37963031249998,116,48
67,177.30751499999997,177.38764312499998,113,48
76,177.30751499999997,177.39565593749998,113,48
64,177.30751499999997,177.41969437499998,117,48
60,177.30751499999997,177.41969437499998,115,48
88,177.30751499999997,177.3155278125,113,52
48,177.30751499999997,177.37963031249998,117,47
36,177.30751499999997,177.37963031249998,120,47
76,177.323540625,177.39565593749998,113,52
48,177.46777124999997,177.62001468749997,109,0
60,177.47578406249997,177.57995062499998,122,0
67,177.47578406249997,177.58796343749998,123,0
55,177.47578406249997,177.59597624999998,122,0
64,177.48379687499997,177.61200187499998,122,0
88,177.48379687499997,177.57995062499998,113,52
76,177.48379687499997,177.57995062499998,113,52
31,177.49180968749997,177.63604031249997,125,33
67,177.4998225,177.60398906249998,119,48
72,177.4998225,177.62802749999997,120,48
76,177.4998225,177.63604031249997,117,48
64,177.4998225,177.63604031249997,118,48
60,177.4998225,177.65206593749997,115,48
48,177.4998225,177.57193781249998,118,47
36,177.4998225,177.57193781249998,120,47
47,177.6841171875,177.82834781249997,120,0
35,177.6841171875,177.8844375,125,33
55,177.69213,177.83636062499997,123,0
59,177.69213,177.84437343749997,123,0
67,177.69213,177.85238624999997,123,0
62,177.69213,177.85238624999997,123,0
67,177.69213,177.82834781249997,119,48
71,177.69213,177.83636062499997,121,48
74,177.69213,177.8603990625,119,48
62,177.69213,177.868411875,119,48
59,177.69213,177.8764246875,118,48
48,177.69213,177.77225812499998,120,47
36,177.69213,177.77225812499998,119,47
86,177.7001428125,177.81232218749997,113,52
74,177.7001428125,177.81232218749997,113,52
47,178.060719375,178.253026875,120,0
67,178.0687321875,178.220975625,123,0
55,178.0687321875,178.2289884375,123,0
35,178.0687321875,178.2610396875,125,33
59,178.076745,178.19693718749997,123,0
62,178.076745,178.253026875,123,0
71,178.076745,178.17289874999997,121,48
62,178.076745,178.20494999999997,119,48
67,178.076745,178.220975625,117,48
59,178.076745,178.220975625,115,48
74,178.076745,178.253026875,119,48
48,178.076745,178.14886031249998,122,47
36,178.076745,178.15687312499998,122,47
86,178.0847578125,178.21296281249997,113,52
74,178.0847578125,178.2289884375,113,52
53,178.445334375,178.57353937499997,123,0
34,178.4533471875,178.64565468749998,125,33
62,178.46135999999998,178.55751374999997,123,0
58,178.46135999999998,178.56552656249997,123,0
46,178.46135999999998,178.58155218749997,122,0
70,178.46135999999998,178.54950093749997,118,48
77,178.46135999999998,178.55751374999997,116,48
74,178.46135999999998,178.56552656249997,122,48
65,178.46135999999998,178.56552656249997,114,48
58,178.46135999999998,178.589565,121,48
86,178.46135999999998,178.46937281249998,113,52
48,178.46135999999998,178.53347531249997,120,47
36,178.46135999999998,178.54148812499997,119,47
65,178.46937281249998,178.58155218749997,123,0
74,178.47738562499998,178.55751374999997,113,52
62,178.62161625,178.73379562499997,115,0
58,178.6296290625,178.74982124999997,120,0
53,178.6296290625,178.75783406249997,122,0
65,178.63764187499999,178.74982124999997,123,0
46,178.63764187499999,178.74982124999997,121,0
33,178.64565468749998,178.7738596875,125,33
74,178.65366749999998,178.73379562499997,104,48
70,178.65366749999998,178.74982124999997,120,48
77,178.65366749999998,178.7738596875,117,48
65,178.65366749999998,178.7818725,114,48
58,178.65366749999998,178.7898853125,115,48
86,178.65366749999998,178.72578281249997,113,52
74,178.65366749999998,178.73379562499997,113,52
48,178.65366749999998,178.72578281249997,118,47
36,178.65366749999998,178.72578281249997,121,47
62,178.81392375,178.92610312499997,123,0
58,178.82193656249999,178.94212874999997,123,0
65,178.82193656249999,178.9501415625,113,0
53,178.82193656249999,179.10238499999997,122,0
86,178.82994937499998,178.84597499999998,113,52
46,178.83796218749998,178.94212874999997,120,0
32,178.83796218749998,179.01424406249998,125,33
74,178.84597499999998,178.92610312499997,105,48
70,178.84597499999998,178.94212874999997,105,48
77,178.84597499999998,178.9501415625,105,48
65,178.84597499999998,179.00623124999998,105,48
74,178.84597499999998,178.91809031249997,113,52
48,178.84597499999998,178.90206468749997,119,47
36,178.84597499999998,178.91809031249997,122,47
62,179.00623124999998,179.11039781249997,123,0
58,179.00623124999998,179.13443625,122,0
65,179.01424406249998,179.13443625,117,0
66,179.02225687499998,179.11841062499997,120,0
46,179.02225687499998,179.1745003125,121,0
74,179.02225687499998,179.09437218749997,113,52
86,179.02225687499998,179.11039781249997,113,52
31,179.03026968749998,179.1745003125,125,33
74,179.03828249999998,179.11841062499997,111,48
70,179.03828249999998,179.1424490625,116,48
77,179.03828249999998,179.1745003125,118,48
58,179.03828249999998,179.18251312499999,119,48
48,179.03828249999998,179.11039781249997,119,47
36,179.03828249999998,179.11841062499997,122,47
66,179.21456437499998,179.42289749999998,123,0
60,179.22257718749998,179.40687187499998,123,0
54,179.22257718749998,179.42289749999998,123,0
50,179.22257718749998,179.43892312499997,122,0
62,179.22257718749998,179.44693593749997,123,0
30,179.22257718749998,179.47898718749997,125,33
74,179.23058999999998,179.39084624999998,117,48
50,179.23058999999998,179.40687187499998,122,48
78,179.23058999999998,179.41488468749998,118,48
72,179.23058999999998,179.43091031249998,117,48
62,179.23058999999998,179.45494874999997,123,48
78,179.23058999999998,179.23860281249998,113,52
48,179.23058999999998,179.310718125,120,47
36,179.23058999999998,179.3187309375,122,47
90,179.24661562499998,179.342769375,113,52
28,179.60719218749998,179.66328187499997,125,33
26,179.60719218749998,179.83956374999997,125,33
62,179.61520499999997,179.75943562499998,120,48
72,179.61520499999997,179.77546124999998,121,48
74,179.61520499999997,179.78347406249998,122,48
78,179.61520499999997,179.79148687499998,119,48
50,179.61520499999997,179.80751249999997,122,48
48,179.61520499999997,179.695333125,120,47
36,179.61520499999997,179.71135875,120,47
90,179.62321781249997,179.73539718749998,113,52
78,179.62321781249997,179.73539718749998,113,52
54,179.63123062499997,179.81552531249997,123,0
50,179.63123062499997,179.84757656249997,122,0
60,179.63924343749997,179.80751249999997,123,0
62,179.63924343749997,179.83155093749997,123,0
66,179.63924343749997,179.855589375,123,0
31,179.99180718749997,180.2642428125,125,33
71,179.99981999999997,180.16808906249997,122,48
74,179.99981999999997,180.19212749999997,121,48
43,179.99981999999997,180.19212749999997,121,48
79,179.99981999999997,180.20014031249997,119,48
55,179.99981999999997,180.20014031249997,122,48
36,179.99981999999997,180.079948125,122,47
48,179.99981999999997,180.0879609375,120,47
67,180.00783281249997,180.28026843749998,123,0
50,180.00783281249997,180.29629406249998,123,0
79,180.00783281249997,180.01584562499997,113,52
91,180.00783281249997,180.13603781249998,113,52
62,180.01584562499997,180.2642428125,123,0
59,180.01584562499997,180.27225562499999,123,0
55,180.01584562499997,180.28828124999998,123,0
43,180.01584562499997,180.28828124999998,123,0
66,180.047896875,180.0719353125,101,0
67,180.38443499999997,180.48058874999998,119,69
59,180.38443499999997,180.49661437499998,119,69
67,180.57674249999997,180.66488343749998,119,69
59,180.57674249999997,180.76905,119,69
60,180.76905,181.00142156249998,120,69
67,180.76905,181.04148562499998,120,69
59,180.9613575,181.09757531249997,120,69
62,181.153665,181.22578031249998,114,48
50,181.153665,181.22578031249998,116,48
62,181.153665,181.22578031249998,113,52
74,181.153665,181.24981874999997,113,52
50,181.3459725,181.39404937499998,113,48
62,181.3459725,181.40206218749998,114,48
74,181.3459725,181.45013906249997,113,52
62,181.3459725,181.45013906249997,113,52
52,181.53828,181.7065490625,119,48
64,181.53828,181.72257468749999,119,48
76,181.53828,181.72257468749999,113,52
64,181.53828,181.72257468749999,113,52
62,181.73058749999998,181.81071562499997,114,48
50,181.73058749999998,181.81872843749997,115,48
74,181.73058749999998,181.8988565625,113,52
62,181.73058749999998,181.92289499999998,113,52
67,181.92289499999998,182.00302312499997,120,69
59,181.92289499999998,182.01904874999997,120,69
67,182.11520249999998,182.19533062499997,120,69
59,182.11520249999998,182.30750999999998,120,69
60,182.30750999999998,182.49180468749998,120,69
67,182.30750999999998,182.49981749999998,120,69
59,182.49981749999998,182.611996875,120,69
50,182.69212499999998,182.74821468749997,116,48
62,182.69212499999998,182.75622749999997,118,48
74,182.69212499999998,182.7802659375,113,52
60,182.69212499999998,182.804304375,113,52
50,182.88443249999997,182.948535,116,48
62,182.88443249999997,182.9565478125,116,48
74,182.88443249999997,182.9885990625,113,52
52,183.07673999999997,183.20494499999998,119,48
64,183.07673999999997,183.22097062499998,119,48
76,183.07673999999997,183.26103468749997,113,52
64,183.07673999999997,183.26103468749997,113,52
62,183.26904749999997,183.3411628125,119,48
50,183.26904749999997,183.349175625,116,48
74,183.26904749999997,183.39725249999998,113,52
62,183.26904749999997,183.39725249999998,113,52
62,183.46135499999997,183.5014190625,119,48
74,183.46135499999997,183.5334703125,119,48
67,183.46135499999997,183.55750874999998,120,69
59,183.46135499999997,183.56552156249998,120,69
55,183.46135499999997,183.56552156249998,120,69
62,183.65366249999997,183.74180343749998,119,48
74,183.65366249999997,183.78988031249997,121,48
67,183.65366249999997,183.76584187499998,120,69
55,183.65366249999997,183.79789312499997,120,69
59,183.65366249999997,183.83795718749997,119,69
76,183.84596999999997,184.01423906249997,116,48
64,183.84596999999997,184.054303125,121,48
60,183.84596999999997,184.03026468749997,119,69
57,183.84596999999997,184.0382775,120,69
67,183.84596999999997,184.58314875,120,69
62,184.0382775,184.19052093749997,119,48
74,184.0382775,184.20654656249997,117,48
55,184.0382775,184.20654656249997,119,69
59,184.0382775,184.2546234375,111,69
72,184.230585,184.36680281249997,120,48
60,184.230585,184.36680281249997,119,48
54,184.230585,184.34276437499997,119,69
57,184.230585,184.44693093749999,119,69
71,184.4228925,184.54308468749997,119,48
59,184.4228925,184.56712312499997,119,48
55,184.4228925,184.58314875,120,69
52,184.4228925,184.6152,120,69
69,184.6152,184.73539218749997,120,48
57,184.6152,184.791481875,119,48
50,184.6152,184.7834690625,120,69
54,184.6152,184.80750749999999,120,69
66,184.6152,184.82353312499998,120,69
62,184.6152,184.84757156249998,120,69
84,184.99981499999998,185.12000718749997,119,60
72,184.99981499999998,185.12802,113,52
72,184.99981499999998,185.12000718749997,117,62
72,184.99981499999998,185.12000718749997,118,69
84,185.19212249999998,185.28827624999997,119,60
72,185.19212249999998,185.336353125,113,52
72,185.19212249999998,185.28827624999997,117,62
72,185.19212249999998,185.28827624999997,118,69
84,185.38442999999998,186.5943646875,119,60
72,185.38442999999998,185.56872468749998,113,52
72,185.38442999999998,186.5943646875,117,62
72,185.38442999999998,186.5943646875,118,69
81,185.57673749999998,187.11519749999997,119,60
69,185.57673749999998,185.95333968749998,113,52
69,185.57673749999998,187.11519749999997,117,62
69,185.57673749999998,187.11519749999997,118,69
77,185.96135249999998,187.1552615625,119,60
65,185.96135249999998,186.33795468749997,113,52
65,185.96135249999998,187.1552615625,117,62
65,185.96135249999998,187.1552615625,118,69
74,186.34596749999997,187.17128718749998,120,60
62,186.34596749999997,186.72256968749997,113,52
62,186.34596749999997,187.17128718749998,119,62
62,186.34596749999997,187.17128718749998,119,69
72,186.73058249999997,187.23538968749997,120,60
60,186.73058249999997,187.1232103125,113,52
60,186.73058249999997,187.23538968749997,118,62
60,186.73058249999997,187.23538968749997,119,69
68,187.307505,187.39564593749998,113,0
73,187.307505,187.40365874999998,113,0
65,187.307505,187.40365874999998,113,0
61,187.307505,187.42769718749997,113,0
49,187.307505,187.37962031249998,116,48
61,187.307505,187.38763312499998,113,48
56,187.307505,187.39564593749998,113,48
67,187.69212,187.75622249999998,114,0
64,187.69212,187.75622249999998,114,0
72,187.69212,187.77224812499998,114,0
60,187.69212,187.77224812499998,114,0
55,187.69212,187.75622249999998,107,48
48,187.69212,187.75622249999998,103,48
60,187.69212,187.76423531249998,111,48
64,187.8844275,187.94852999999998,114,0
72,187.8844275,187.95654281249998,114,0
67,187.8844275,187.95654281249998,114,0
60,187.8844275,187.96455562499997,114,0
55,187.8844275,187.94051718749998,111,48
60,187.8844275,187.95654281249998,108,48
48,187.8844275,187.95654281249998,113,48
63,188.07673499999999,188.14885031249997,114,0
59,188.07673499999999,188.18891437499997,114,0
71,188.07673499999999,188.19692718749997,114,0
66,188.07673499999999,188.20493999999997,114,0
59,188.07673499999999,188.14083749999998,118,48
54,188.07673499999999,188.14083749999998,117,48
47,188.07673499999999,188.14885031249997,117,48
64,188.46134999999998,188.54147812499997,114,0
72,188.46134999999998,188.5815421875,114,0
67,188.46134999999998,188.589555,114,0
60,188.46134999999998,188.62160624999999,114,0
55,188.46134999999998,188.53346531249997,116,48
60,188.46134999999998,188.54147812499997,119,48
48,188.46134999999998,188.54949093749997,114,48
68,188.84596499999998,188.9501315625,114,0
65,188.84596499999998,188.9501315625,114,0
73,188.84596499999998,188.9661571875,114,0
61,188.84596499999998,188.99820843749998,114,0
61,188.84596499999998,188.92609312499997,118,48
56,188.84596499999998,188.92609312499997,117,48
49,188.84596499999998,188.9341059375,116,48
64,189.23057999999997,189.28666968749997,114,0
67,189.23057999999997,189.3026953125,114,0
60,189.23057999999997,189.310708125,114,0
72,189.23057999999997,189.32673375,114,0
55,189.23057999999997,189.3026953125,113,48
48,189.23057999999997,189.3026953125,113,48
60,189.23057999999997,189.310708125,114,48
64,189.42288749999997,189.46295156249997,114,0
72,189.42288749999997,189.5110284375,114,0
67,189.42288749999997,189.5110284375,114,0
60,189.42288749999997,189.5110284375,114,0
55,189.42288749999997,189.47096437499997,100,48
60,189.42288749999997,189.48699,110,48
48,189.42288749999997,189.4950028125,104,48
63,189.61519499999997,189.80750249999997,114,0
71,189.61519499999997,189.83955374999996,114,0
66,189.61519499999997,189.83955374999996,114,0
59,189.61519499999997,189.95974593749997,114,0
54,189.61519499999997,189.94372031249998,116,48
59,189.61519499999997,189.95173312499998,114,48
47,189.61519499999997,189.97577156249997,118,48
60,189.99980999999997,190.15205343749997,122,0
64,189.99980999999997,190.2482071875,122,0
72,189.99980999999997,190.25621999999998,120,0
67,189.99980999999997,190.38442499999996,120,0
55,189.99980999999997,190.18410468749997,115,48
60,189.99980999999997,190.2321815625,117,48
48,189.99980999999997,190.34436093749997,118,48
29,190.37641218749997,190.63282218749998,125,33
53,190.38442499999996,190.56070687499997,123,0
41,190.38442499999996,190.6007709375,117,0
65,190.38442499999996,190.60878375,123,0
70,190.38442499999996,190.68089906249998,123,0
74,190.38442499999996,190.68891187499997,121,0
65,190.38442499999996,190.63282218749998,117,48
53,190.38442499999996,190.64083499999998,119,48
74,190.38442499999996,190.64884781249998,120,48
70,190.38442499999996,190.67288624999998,118,48
86,190.38442499999996,190.74500156249997,113,52
74,190.38442499999996,190.7610271875,113,52
74,190.38442499999996,190.69692468749997,123,55
48,190.38442499999996,190.44051468749998,122,47
36,190.38442499999996,190.45654031249998,121,47
29,190.7610271875,190.84916812499998,125,33
53,190.76904,190.84115531249998,114,0
69,190.76904,190.84916812499998,123,0
65,190.76904,190.84916812499998,123,0
41,190.76904,190.85718093749998,122,0
72,190.76904,190.86519374999997,123,0
69,190.76904,190.82512968749998,119,48
72,190.76904,190.83314249999998,119,48
65,190.76904,190.83314249999998,117,48
53,190.76904,190.84115531249998,117,48
84,190.76904,190.84115531249998,113,52
72,190.76904,190.85718093749998,113,52
72,190.76904,190.84115531249998,123,55
48,190.76904,190.83314249999998,121,47
36,190.76904,190.84115531249998,122,47
29,190.9533346875,191.03346281249998,124,33
65,190.9613475,191.00942437499998,117,0
69,190.9613475,191.01743718749998,121,0
41,190.9613475,191.03346281249998,116,0
53,190.9613475,191.04948843749997,118,0
72,190.9613475,191.06551406249997,116,0
65,190.9613475,191.00942437499998,114,48
69,190.9613475,191.01743718749998,118,48
53,190.9613475,191.01743718749998,116,48
72,190.9613475,191.04948843749997,113,48
84,190.9613475,191.04147562499998,113,52
72,190.9613475,191.05750124999997,113,52
72,190.9613475,191.03346281249998,122,55
29,191.1456421875,191.44211624999997,125,33
65,191.153655,191.38602656249998,120,0
41,191.153655,191.39403937499998,118,0
68,191.153655,191.40205218749998,122,0
53,191.153655,191.40205218749998,123,0
71,191.153655,191.44211624999997,117,0
65,191.153655,191.40205218749998,119,48
53,191.153655,191.40205218749998,117,48
68,191.153655,191.41006499999997,117,48
71,191.153655,191.43410343749997,119,48
71,191.153655,191.44211624999997,113,52
83,191.153655,191.45814187499997,113,52
71,191.153655,191.28185999999997,123,55
48,191.153655,191.20974468749998,121,47
36,191.153655,191.20974468749998,121,47
29,191.53025718749998,191.81070562499997,125,33
65,191.53826999999998,191.79467999999997,123,0
41,191.53826999999998,191.80269281249997,117,0
53,191.53826999999998,191.81070562499997,123,0
69,191.53826999999998,191.81871843749997,123,0
72,191.53826999999998,191.842756875,123,0
65,191.53826999999998,191.80269281249997,114,48
69,191.53826999999998,191.83474406249996,118,48
53,191.53826999999998,191.83474406249996,117,48
72,191.53826999999998,191.842756875,115,48
84,191.53826999999998,191.8667953125,113,52
72,191.53826999999998,191.8828209375,113,52
72,191.53826999999998,191.73859031249998,123,55
48,191.53826999999998,191.61038531249997,121,47
36,191.53826999999998,191.61038531249997,120,47
29,191.91487218749998,192.00301312499997,125,33
70,191.92288499999998,191.97897468749997,123,0
74,191.92288499999998,191.98698749999997,118,0
65,191.92288499999998,191.98698749999997,123,0
41,191.92288499999998,191.98698749999997,105,0
53,191.92288499999998,191.99500031249997,119,0
70,191.92288499999998,191.97897468749997,119,48
65,191.92288499999998,191.97897468749997,115,48
74,191.92288499999998,191.98698749999997,112,48
53,191.92288499999998,191.98698749999997,120,48
86,191.92288499999998,192.00301312499997,113,52
74,191.92288499999998,192.01102593749997,113,52
74,191.92288499999998,192.01102593749997,123,55
48,191.92288499999998,191.97897468749997,121,47
36,191.92288499999998,191.99500031249997,120,47
29,192.10717968749998,192.2033334375,123,33
74,192.11519249999998,192.15525656249997,120,0
65,192.11519249999998,192.16326937499997,120,0
41,192.11519249999998,192.17128218749997,117,0
53,192.11519249999998,192.18730781249997,120,0
70,192.11519249999998,192.2033334375,120,0
65,192.11519249999998,192.15525656249997,113,48
74,192.11519249999998,192.17929499999997,117,48
53,192.11519249999998,192.17929499999997,118,48
70,192.11519249999998,192.18730781249997,118,48
86,192.11519249999998,192.21134625,113,52
74,192.11519249999998,192.21134625,113,52
74,192.11519249999998,192.2033334375,121,55
29,192.29948718749998,192.59596125,125,33
69,192.30749999999998,192.53185874999997,122,0
41,192.30749999999998,192.54788437499997,120,0
65,192.30749999999998,192.5719228125,122,0
72,192.30749999999998,192.579935625,117,0
53,192.30749999999998,192.579935625,120,0
69,192.30749999999998,192.5719228125,121,48
65,192.30749999999998,192.579935625,117,48
53,192.30749999999998,192.59596125,121,48
72,192.30749999999998,192.61999968749998,116,48
72,192.30749999999998,192.65205093749998,113,52
84,192.30749999999998,192.66807656249998,113,52
72,192.30749999999998,192.46775624999998,124,55
48,192.30749999999998,192.36358968749997,119,47
36,192.30749999999998,192.36358968749997,121,47
29,192.68410218749997,192.78826875,125,33
71,192.69211499999997,192.74019187499997,117,0
65,192.69211499999997,192.7642303125,114,0
41,192.69211499999997,192.7642303125,117,0
53,192.69211499999997,192.7802559375,120,0
68,192.69211499999997,192.78826875,122,0
71,192.69211499999997,192.7562175,114,48
65,192.69211499999997,192.7642303125,104,48
53,192.69211499999997,192.7802559375,119,48
68,192.69211499999997,192.78826875,117,48
83,192.69211499999997,192.7642303125,113,52
71,192.69211499999997,192.7642303125,113,52
71,192.69211499999997,192.7642303125,124,55
48,192.69211499999997,192.7482046875,121,47
36,192.69211499999997,192.7482046875,120,47
29,192.87640968749997,193.00461468749998,122,33
65,192.88442249999997,192.97256343749999,93,0
41,192.88442249999997,192.97256343749999,114,0
53,192.88442249999997,192.98858906249998,122,0
68,192.88442249999997,192.99660187499998,110,0
71,192.88442249999997,193.00461468749998,115,0
65,192.88442249999997,192.97256343749999,113,48
53,192.88442249999997,192.98057624999998,118,48
68,192.88442249999997,193.00461468749998,114,48
71,192.88442249999997,193.02064031249998,116,48
83,192.88442249999997,192.964550625,113,52
71,192.88442249999997,192.97256343749999,113,52
71,192.88442249999997,192.97256343749999,124,55
29,193.06871718749997,193.42929374999997,125,33
69,193.07672999999997,193.22096062499998,123,0
72,193.07672999999997,193.22897343749997,123,0
41,193.07672999999997,193.22897343749997,119,0
53,193.07672999999997,193.26903749999997,123,0
65,193.07672999999997,193.28506312499997,123,0
53,193.07672999999997,193.34115281249998,119,48
69,193.07672999999997,193.35717843749998,121,48
65,193.07672999999997,193.35717843749998,117,48
72,193.07672999999997,193.37320406249998,119,48
84,193.07672999999997,193.317114375,113,52
72,193.07672999999997,193.33314,113,52
72,193.07672999999997,193.23698624999997,123,55
48,193.07672999999997,193.1488453125,122,47
36,193.07672999999997,193.1488453125,121,47
34,193.45333218749997,193.74179343749998,125,33
65,193.46134499999997,193.6776909375,123,0
74,193.46134499999997,193.6937165625,121,0
70,193.46134499999997,193.70974218749998,123,0
46,193.46134499999997,193.72576781249998,121,0
58,193.46134499999997,193.74980624999998,122,0
65,193.46134499999997,193.72576781249998,111,48
70,193.46134499999997,193.74179343749998,118,48
74,193.46134499999997,193.74980624999998,117,48
58,193.46134499999997,193.76583187499998,118,48
74,193.46134499999997,193.70172937499999,113,52
86,193.46134499999997,193.71775499999998,113,52
74,193.46134499999997,193.58954999999997,122,55
36,193.46134499999997,193.51743468749999,122,47
48,193.46134499999997,193.53346031249998,122,47
34,193.8379471875,193.96615218749997,125,33
74,193.84596,194.08634437499998,122,0
70,193.84596,194.09435718749998,122,0
65,193.84596,194.11038281249998,123,0
58,193.84596,194.11839562499998,123,0
46,193.84596,194.12640843749998,119,0
65,193.84596,193.94211374999998,112,48
58,193.84596,193.96615218749997,119,48
74,193.84596,193.98217781249997,119,48
70,193.84596,193.99019062499997,117,48
86,193.84596,193.96615218749997,113,52
74,193.84596,194.022241875,113,52
74,193.84596,193.93410093749998,123,55
34,194.0302546875,194.19051093749997,119,33
76,194.0382675,194.15845968749997,117,0
65,194.0382675,194.11038281249998,107,48
76,194.0382675,194.12640843749998,104,48
58,194.0382675,194.17448531249997,117,48
76,194.0382675,194.17448531249997,113,52
88,194.0382675,194.18249812499997,113,52
76,194.0382675,194.13442124999997,122,55
33,194.2225621875,194.47897218749998,125,33
72,194.230575,194.35076718749997,123,0
69,194.230575,194.35877999999997,123,0
57,194.230575,194.35877999999997,122,0
45,194.230575,194.35877999999997,123,0
65,194.230575,194.36679281249997,122,0
65,194.230575,194.33474156249997,121,48
69,194.230575,194.34275437499997,120,48
57,194.230575,194.35877999999997,119,48
72,194.230575,194.36679281249997,117,48
84,194.230575,194.43890812499998,113,52
72,194.230575,194.44692093749998,113,52
72,194.230575,194.35877999999997,124,55
48,194.230575,194.30269031249998,122,47
36,194.230575,194.30269031249998,122,47
33,194.60717718749999,194.71935656249997,125,33
65,194.61518999999998,194.70333093749997,123,0
72,194.61518999999998,194.7834590625,123,0
69,194.61518999999998,194.79948468749998,123,0
57,194.61518999999998,194.85557437499997,123,0
45,194.61518999999998,194.90365124999997,123,0
57,194.61518999999998,194.70333093749997,119,48
72,194.61518999999998,194.759420625,119,48
69,194.61518999999998,194.7674334375,119,48
84,194.61518999999998,194.68730531249997,113,52
72,194.61518999999998,194.70333093749997,113,52
72,194.61518999999998,194.68730531249997,123,55
33,194.79948468749998,194.951728125,123,33
65,194.80749749999998,195.15204843749999,122,0
65,194.80749749999998,194.9276896875,118,48
57,194.80749749999998,194.9597409375,119,48
84,194.80749749999998,194.90365124999997,113,52
72,194.80749749999998,194.91967687499996,113,52
72,194.80749749999998,194.89563843749997,121,55
31,194.99179218749998,195.304291875,125,33
71,194.99980499999998,195.144035625,123,0
55,194.99980499999998,195.15204843749999,120,0
43,194.99980499999998,195.15204843749999,123,0
67,194.99980499999998,195.16006124999998,122,0
65,194.99980499999998,195.111984375,116,48
67,194.99980499999998,195.1199971875,118,48
71,194.99980499999998,195.12801,119,48
55,194.99980499999998,195.15204843749999,121,48
83,194.99980499999998,195.18409968749998,113,52
71,194.99980499999998,195.20012531249998,113,52
71,194.99980499999998,195.111984375,123,55
48,194.99980499999998,195.07192031249997,122,47
36,194.99980499999998,195.07192031249997,122,47
31,195.37640718749998,195.46454812499996,123,33
67,195.38441999999998,195.46454812499996,123,0
43,195.38441999999998,195.4725609375,123,0
65,195.38441999999998,195.48057375,123,0
71,195.38441999999998,195.4885865625,118,0
55,195.38441999999998,195.496599375,123,0
65,195.38441999999998,195.48057375,117,48
67,195.38441999999998,195.496599375,119,48
71,195.38441999999998,195.5046121875,121,48
55,195.38441999999998,195.51262499999999,117,48
83,195.38441999999998,195.46454812499996,113,52
71,195.38441999999998,195.46454812499996,113,52
71,195.38441999999998,195.45653531249997,123,55
48,195.38441999999998,195.44852249999997,121,47
36,195.38441999999998,195.46454812499996,122,47
31,195.56871468749998,195.76903499999997,123,33
65,195.57672749999998,195.656855625,121,0
67,195.57672749999998,195.67288125,122,0
71,195.57672749999998,195.71294531249998,115,0
43,195.57672749999998,195.76102218749998,113,0
55,195.57672749999998,195.76903499999997,123,0
67,195.57672749999998,195.70493249999998,115,48
65,195.57672749999998,195.70493249999998,115,48
71,195.57672749999998,195.76102218749998,116,48
55,195.57672749999998,195.80108624999997,115,48
83,195.57672749999998,195.6808940625,113,52
71,195.57672749999998,195.70493249999998,113,52
71,195.57672749999998,195.6648684375,124,55
36,195.76102218749998,196.0494834375,125,33
60,195.76903499999997,195.8732015625,122,0
67,195.76903499999997,195.92929124999998,123,0
72,195.76903499999997,195.96935531249997,122,0
48,195.76903499999997,196.05749624999999,122,0
48,195.76903499999997,195.95332968749997,119,48
60,195.76903499999997,195.96134249999997,121,48
64,195.76903499999997,195.96935531249997,119,48
67,195.76903499999997,195.97736812499997,121,48
72,195.76903499999997,196.00140656249997,119,48
84,195.76903499999997,195.91326562499998,113,52
72,195.76903499999997,195.96134249999997,113,52
72,195.76903499999997,195.8732015625,123,55
48,195.76903499999997,195.8411503125,122,47
36,195.76903499999997,195.86518875,122,47
72,196.15364999999997,196.233778125,123,0
72,196.34595749999997,196.50621374999997,121,0
74,196.53826499999997,196.68249562499997,119,0
70,196.53826499999997,196.92287999999996,122,0
77,196.73057249999997,196.91486718749996,117,0
72,196.92287999999996,197.1151875,121,0
69,196.92287999999996,197.24339249999997,123,0
77,197.1151875,197.3155078125,121,0
71,197.307495,197.483776875,118,0
68,197.307495,197.69210999999999,118,0
77,197.4998025,197.70813562499998,118,0
67,197.69210999999999,197.868391875,122,0
70,197.69210999999999,197.90845593749998,123,0
77,197.88441749999998,197.95653281249997,120,0
37,198.06871218749998,198.18890437499996,118,33
65,198.07672499999998,198.13281468749997,120,0
68,198.07672499999998,198.14884031249997,122,0
73,198.07672499999998,198.16486593749997,120,0
61,198.07672499999998,198.2129428125,123,0
49,198.07672499999998,198.10076343749998,113,48
61,198.07672499999998,198.12480187499997,113,48
56,198.07672499999998,198.12480187499997,113,48
37,198.26101968749998,198.42928874999998,106,33
65,198.26903249999998,198.32512218749997,120,0
68,198.26903249999998,198.34114781249997,122,0
73,198.26903249999998,198.35717343749997,120,0
61,198.26903249999998,198.4052503125,123,0
56,198.26903249999998,198.32512218749997,115,48
49,198.26903249999998,198.33313499999997,113,48
36,198.45332718749998,198.59755781249999,121,33
64,198.46133999999998,198.52544249999997,119,0
72,198.46133999999998,198.53345531249997,112,0
67,198.46133999999998,198.53345531249997,119,0
60,198.46133999999998,198.54146812499997,123,0
36,198.46133999999998,198.50941687499997,114,48
48,198.46133999999998,198.51742968749997,118,48
43,198.46133999999998,198.51742968749997,116,48
35,198.83794218749998,198.9340959375,116,33
63,198.84595499999998,198.90204468749997,117,0
59,198.84595499999998,198.91807031249996,117,0
71,198.84595499999998,198.926083125,112,0
66,198.84595499999998,198.94210875,117,0
35,198.84595499999998,198.87800624999997,103,48
47,198.84595499999998,198.88601906249997,112,48
42,198.84595499999998,198.89403187499997,113,48
35,199.03024968749997,199.19851874999998,111,33
63,199.03826249999997,199.13441625,95,0
71,199.03826249999997,199.14242906249999,102,0
66,199.03826249999997,199.14242906249999,109,0
59,199.03826249999997,199.23056999999997,117,0
47,199.03826249999997,199.07832656249997,100,48
35,199.03826249999997,199.07832656249997,108,48
42,199.03826249999997,199.08633937499997,112,48
36,199.22255718749997,199.41486468749997,118,33
64,199.23056999999997,199.310698125,118,0
67,199.23056999999997,199.3187109375,113,0
72,199.23056999999997,199.32672374999999,116,0
60,199.23056999999997,199.35076218749998,122,0
43,199.23056999999997,199.3026853125,112,48
48,199.23056999999997,199.310698125,113,48
36,199.23056999999997,199.310698125,118,48
37,199.60717218749997,199.6792875,118,33
65,199.61518499999997,199.68730031249999,115,0
68,199.61518499999997,199.69531312499998,120,0
61,199.61518499999997,199.71133874999998,119,0
73,199.61518499999997,199.71935156249998,118,0
44,199.61518499999997,199.663261875,117,48
49,199.61518499999997,199.6792875,112,48
37,199.61518499999997,199.6792875,115,48
37,199.79947968749997,199.91967187499998,118,33
65,199.80749249999997,199.8475565625,107,0
73,199.80749249999997,199.87960781249998,120,0
68,199.80749249999997,199.88762062499998,120,0
61,199.80749249999997,199.94371031249997,117,0
49,199.80749249999997,199.87159499999999,104,48
44,199.80749249999997,199.87159499999999,112,48
37,199.80749249999997,199.87159499999999,115,48
36,199.99178718749997,200.11197937499998,117,33
67,199.99979999999996,200.05588968749998,117,0
64,199.99979999999996,200.06390249999998,121,0
72,199.99979999999996,200.07191531249998,117,0
60,199.99979999999996,200.07191531249998,118,0
43,199.99979999999996,200.05588968749998,112,48
48,199.99979999999996,200.06390249999998,111,48
36,199.99979999999996,200.07191531249998,111,48
36,200.18409468749996,200.3764021875,114,33
72,200.1921075,200.26422281249998,105,0
67,200.1921075,200.27223562499998,108,0
60,200.1921075,200.35236374999997,112,0
48,200.1921075,200.26422281249998,100,48
36,200.1921075,200.28024843749998,104,48
35,200.3764021875,200.71294031249997,120,33
66,200.384415,200.46454312499998,113,0
63,200.384415,200.560696875,123,0
71,200.384415,200.5847353125,119,0
59,200.384415,200.72095312499997,120,0
42,200.384415,200.44851749999998,114,48
47,200.384415,200.47255593749998,115,48
35,200.384415,200.54467124999996,115,48
36,200.7610171875,200.9212734375,125,33
67,200.76903,200.84915812499997,123,0
64,200.76903,200.84915812499997,123,0
60,200.76903,200.86518374999997,123,0
72,200.76903,200.88922218749997,123,0
48,200.76903,200.96133749999998,123,0
60,200.76903,200.87319656249997,116,48
48,200.76903,200.88120937499997,116,48
64,200.76903,200.89723499999997,116,48
67,200.76903,200.90524781249997,116,48
72,200.76903,200.96133749999998,116,48
72,200.76903,201.03345281249997,124,55
60,200.76903,201.03345281249997,122,55
48,200.76903,200.84114531249998,121,47
36,200.76903,200.84114531249998,122,47
29,201.14563218749998,201.31390125,125,33
69,201.15364499999998,201.24178593749997,123,0
53,201.15364499999998,201.24979874999997,123,0
77,201.15364499999998,201.26582437499997,123,0
72,201.15364499999998,201.26582437499997,123,0
65,201.15364499999998,201.27383718749996,123,0
41,201.15364499999998,201.2898628125,123,0
60,201.15364499999998,201.24979874999997,116,48
65,201.15364499999998,201.27383718749996,116,48
41,201.15364499999998,201.27383718749996,116,48
72,201.15364499999998,201.28185,116,48
69,201.15364499999998,201.28185,116,48
77,201.15364499999998,201.34595249999998,116,48
48,201.15364499999998,201.22576031249997,121,47
36,201.15364499999998,201.22576031249997,123,47
77,201.16165781249998,201.41005499999997,122,55
65,201.16165781249998,201.44210624999997,124,55
36,201.53024718749998,201.73056749999998,125,33
64,201.53825999999998,201.59434968749997,123,0
67,201.53825999999998,201.61037531249997,123,0
48,201.53825999999998,201.62640093749997,123,0
72,201.53825999999998,201.650439375,123,0
36,201.53825999999998,201.6744778125,123,0
60,201.53825999999998,201.61838812499997,119,48
64,201.53825999999998,201.650439375,118,48
67,201.53825999999998,201.666465,120,48
48,201.53825999999998,201.68249062499999,117,48
48,201.53825999999998,201.61037531249997,121,47
36,201.53825999999998,201.61037531249997,122,47
60,201.55428562499998,201.79466999999997,120,55
72,201.57031124999997,201.77864437499997,121,55
41,201.91486218749998,202.42768218749998,125,33
29,201.91486218749998,202.46774624999998,125,33
77,201.92287499999998,202.33954124999997,123,0
72,201.92287499999998,202.34755406249997,123,0
69,201.92287499999998,202.36357968749996,123,0
65,201.92287499999998,202.3715925,123,0
29,201.92287499999998,202.46774624999998,123,0
41,201.92287499999998,202.49178468749997,123,0
65,201.92287499999998,202.28345156249998,119,48
77,201.92287499999998,202.30748999999997,122,48
72,201.92287499999998,202.31550281249997,119,48
69,201.92287499999998,202.31550281249997,121,48
41,201.92287499999998,202.31550281249997,114,48
48,201.92287499999998,202.00300312499996,122,47
36,201.92287499999998,202.00300312499996,122,47
65,201.95492624999997,202.47575906249998,124,55
77,201.95492624999997,202.49979749999997,123,55
64,202.49979749999997,202.5558871875,117,0
60,202.49979749999997,202.5558871875,117,0
67,202.49979749999997,202.5719128125,117,0
67,202.49979749999997,202.579925625,121,62
60,202.49979749999997,202.579925625,121,62
64,202.49979749999997,202.5879384375,119,62
48,202.49979749999997,202.5558871875,111,47
36,202.49979749999997,202.5719128125,114,47
60,202.69210499999997,202.73216906249996,118,0
67,202.69210499999997,202.85236124999997,118,0
64,202.69210499999997,202.88441249999997,118,0
64,202.69210499999997,202.7642203125,119,62
60,202.69210499999997,202.7642203125,120,62
67,202.69210499999997,202.78024593749998,120,62
48,202.69210499999997,202.7481946875,112,47
36,202.69210499999997,202.7481946875,116,47
60,202.88441249999997,202.95652781249998,116,0
65,202.88441249999997,203.07671999999997,116,0
69,202.88441249999997,203.1167840625,116,0
65,202.88441249999997,202.9405021875,118,62
69,202.88441249999997,202.948515,119,62
60,202.88441249999997,202.948515,119,62
48,202.88441249999997,202.9405021875,118,47
36,202.88441249999997,202.95652781249998,122,47
70,203.07671999999997,203.13280968749999,117,0
60,203.07671999999997,203.24498906249997,117,0
67,203.07671999999997,203.26902749999996,117,0
67,203.07671999999997,203.13280968749999,119,62
60,203.07671999999997,203.14082249999998,117,62
70,203.07671999999997,203.17287374999998,120,62
48,203.07671999999997,203.14883531249998,117,47
36,203.07671999999997,203.14883531249998,120,47
65,203.26902749999996,203.461335,118,0
69,203.26902749999996,203.52543749999998,118,0
69,203.26902749999996,203.34114281249998,119,62
65,203.26902749999996,203.34114281249998,120,62
60,203.26902749999996,203.34915562499998,119,62
48,203.26902749999996,203.34114281249998,119,47
36,203.26902749999996,203.34114281249998,122,47
67,203.461335,203.49338625,123,0
64,203.461335,203.6536425,123,0
67,203.461335,203.56550156249997,122,62
64,203.461335,203.56550156249997,121,62
60,203.461335,203.57351437499997,121,62
48,203.461335,203.53345031249998,121,47
36,203.461335,203.54146312499998,120,47
41,203.6456296875,203.74979624999997,125,33
29,203.6456296875,203.74979624999997,125,33
65,203.6536425,203.71774499999998,123,0
69,203.6536425,203.73377062499998,123,0
77,203.6536425,203.74979624999997,123,0
72,203.6536425,203.74979624999997,123,0
53,203.6536425,203.77383468749997,123,0
41,203.6536425,203.78184749999997,123,0
41,203.6536425,203.74178343749998,123,48
65,203.6536425,203.75780906249997,119,48
29,203.6536425,203.76582187499997,118,48
77,203.6536425,203.78184749999997,118,48
72,203.6536425,203.78184749999997,119,48
77,203.67768093749999,203.78184749999997,120,55
65,203.67768093749999,203.78986031249997,123,55
41,203.8379371875,203.93409093749997,125,33
29,203.8379371875,203.94210374999997,124,33
65,203.84595,203.91806531249998,123,0
69,203.84595,203.92607812499998,123,0
77,203.84595,203.93409093749997,123,0
72,203.84595,203.94210374999997,123,0
41,203.84595,203.95812937499997,120,0
53,203.84595,203.96614218749997,123,0
65,203.84595,203.95812937499997,119,48
77,203.84595,203.96614218749997,117,48
41,203.84595,203.97415499999997,116,48
29,203.84595,203.97415499999997,116,48
72,203.84595,203.98216781249997,119,48
77,203.86998843749998,203.98216781249997,120,55
65,203.87800124999998,203.98216781249997,121,55
41,204.0302446875,204.49498781249997,125,33
29,204.0302446875,204.62319281249998,125,33
77,204.0382575,204.31870593749997,123,0
72,204.0382575,204.32671874999997,123,0
69,204.0382575,204.35075718749997,123,0
65,204.0382575,204.35075718749997,123,0
53,204.0382575,204.35075718749997,123,0
41,204.0382575,204.40684687499999,123,0
77,204.0382575,204.45492374999998,119,48
72,204.0382575,204.47094937499998,116,48
65,204.0382575,204.47094937499998,123,48
41,204.0382575,204.58312875,122,48
29,204.0382575,204.58312875,113,48
77,204.07030874999998,204.51101343749997,123,55
65,204.09434718749998,204.51101343749997,123,55
36,204.60716718749998,204.79947468749998,125,33
60,204.61517999999998,204.69530812499997,123,0
64,204.61517999999998,204.71133374999997,123,0
67,204.61517999999998,204.72735937499996,123,0
48,204.61517999999998,204.743385,123,0
72,204.61517999999998,204.759410625,123,0
36,204.61517999999998,204.77543624999998,123,0
60,204.61517999999998,204.68729531249997,119,48
72,204.61517999999998,204.76742343749999,120,48
36,204.61517999999998,204.81550031249998,120,48
60,204.61517999999998,204.88761562499997,121,55
48,204.61517999999998,204.68729531249997,121,47
36,204.61517999999998,204.68729531249997,123,47
72,204.63921843749998,204.85556437499997,123,55
29,204.99178218749998,205.18408968749998,125,33
41,204.99178218749998,205.23216656249997,125,33
41,204.99979499999998,205.06389749999997,123,0
29,204.99979499999998,205.09594875,123,0
65,204.99979499999998,205.1039615625,123,0
77,204.99979499999998,205.111974375,123,0
72,204.99979499999998,205.111974375,123,0
69,204.99979499999998,205.128,123,0
65,204.99979499999998,205.1199871875,120,48
77,204.99979499999998,205.13601281249998,122,48
72,204.99979499999998,205.14402562499998,118,48
69,204.99979499999998,205.14402562499998,120,48
41,204.99979499999998,205.16806406249998,120,48
29,204.99979499999998,205.16806406249998,119,48
48,204.99979499999998,205.07191031249997,122,47
36,204.99979499999998,205.07191031249997,122,47
77,205.03985906249997,205.24017937499997,123,55
65,205.03985906249997,205.27223062499996,124,55
36,205.37639718749998,205.55267906249998,125,33
64,205.38440999999997,205.44049968749997,123,0
60,205.38440999999997,205.44049968749997,123,0
67,205.38440999999997,205.45652531249996,123,0
48,205.38440999999997,205.4725509375,123,0
36,205.38440999999997,205.4885765625,123,0
72,205.38440999999997,205.50460218749998,123,0
60,205.38440999999997,205.4725509375,121,48
64,205.38440999999997,205.4885765625,119,48
67,205.38440999999997,205.49658937499999,122,48
72,205.38440999999997,205.52062781249998,121,48
36,205.38440999999997,205.59274312499997,118,48
36,205.38440999999997,205.45652531249996,122,47
48,205.38440999999997,205.464538125,121,47
72,205.40043562499997,205.61678156249997,124,55
60,205.40043562499997,205.6488328125,122,55
41,205.76101218749997,206.28985781249997,125,33
29,205.76101218749997,206.29787062499997,125,33
77,205.76902499999997,206.12158874999997,123,0
72,205.76902499999997,206.14562718749997,123,0
69,205.76902499999997,206.16966562499996,123,0
65,205.76902499999997,206.17767843749996,123,0
41,205.76902499999997,206.24979374999998,123,0
29,205.76902499999997,206.25780656249998,123,0
72,205.76902499999997,206.27383218749998,122,48
65,205.76902499999997,206.27383218749998,119,48
77,205.76902499999997,206.28184499999998,123,48
69,205.76902499999997,206.28184499999998,121,48
41,205.76902499999997,206.29787062499997,123,48
29,205.76902499999997,206.29787062499997,117,48
48,205.76902499999997,205.8411403125,120,47
36,205.76902499999997,205.85716593749999,121,47
77,205.79306343749997,206.24178093749998,123,55
65,205.79306343749997,206.25780656249998,123,55
60,206.34594749999997,206.42607562499998,113,0
64,206.34594749999997,206.43408843749998,113,0
67,206.34594749999997,206.46613968749998,113,0
60,206.34594749999997,206.43408843749998,116,62
67,206.34594749999997,206.44210124999998,117,62
64,206.34594749999997,206.44210124999998,115,62
36,206.34594749999997,206.40203718749999,111,47
48,206.34594749999997,206.41806281249998,105,47
64,206.53825499999996,206.65844718749997,113,0
67,206.53825499999996,206.70652406249997,113,0
64,206.53825499999996,206.62639593749998,113,62
60,206.53825499999996,206.64242156249998,115,62
67,206.53825499999996,206.68248562499997,116,62
48,206.53825499999996,206.60235749999998,110,47
36,206.53825499999996,206.61037031249998,113,47
65,206.7305625,206.86678031249997,113,0
69,206.7305625,206.88280593749997,113,0
65,206.7305625,206.81069062499998,117,62
60,206.7305625,206.81870343749998,119,62
69,206.7305625,206.85075468749997,117,62
48,206.7305625,206.80267781249998,120,47
36,206.7305625,206.81069062499998,122,47
60,206.92287,206.97094687499998,113,0
70,206.92287,207.01101093749998,113,0
67,206.92287,207.03504937499997,113,0
60,206.92287,207.02703656249997,114,62
67,206.92287,207.05107499999997,119,62
70,206.92287,207.06710062499997,119,62
48,206.92287,206.97895968749998,120,47
36,206.92287,206.99498531249998,122,47
65,207.1151775,207.291459375,113,0
69,207.1151775,207.36357468749998,113,0
65,207.1151775,207.20331843749997,117,62
60,207.1151775,207.21133124999997,119,62
69,207.1151775,207.22735687499997,119,62
48,207.1151775,207.18729281249998,118,47
36,207.1151775,207.20331843749997,120,47
67,207.30748499999999,207.36357468749998,113,0
64,207.30748499999999,207.49979249999998,113,0
60,207.30748499999999,207.41966437499997,119,62
64,207.30748499999999,207.42767718749997,119,62
67,207.30748499999999,207.45171562499996,119,62
48,207.30748499999999,207.39562593749997,122,47
36,207.30748499999999,207.39562593749997,120,47
41,207.49177968749999,207.58793343749997,125,33
29,207.49177968749999,207.58793343749997,123,33
65,207.49979249999998,207.55588218749998,123,0
69,207.49979249999998,207.56389499999997,123,0
72,207.49979249999998,207.57992062499997,123,0
41,207.49979249999998,207.60395906249997,123,0
77,207.49979249999998,207.61197187499997,123,0
29,207.49979249999998,207.63601031249996,123,0
77,207.49979249999998,207.62799749999996,111,48
72,207.49979249999998,207.62799749999996,118,48
65,207.49979249999998,207.62799749999996,119,48
65,207.50780531249998,207.61998468749997,124,55
77,207.53184374999998,207.60395906249997,123,55
41,207.68408718749998,207.78024093749997,125,33
29,207.68408718749998,207.78024093749997,124,33
77,207.69209999999998,207.76421531249997,123,0
72,207.69209999999998,207.76421531249997,123,0
69,207.69209999999998,207.76421531249997,123,0
65,207.69209999999998,207.77222812499997,123,0
29,207.69209999999998,207.85235624999999,123,0
41,207.69209999999998,207.86838187499998,123,0
65,207.69209999999998,207.8283178125,117,48
77,207.69209999999998,207.8443434375,117,48
72,207.69209999999998,207.85235624999999,117,48
77,207.72415124999998,207.80427937499996,123,55
65,207.72415124999998,207.820305,123,55
29,207.87639468749998,208.14081749999997,125,33
41,207.87639468749998,208.16485593749996,125,33
60,207.88440749999998,207.96453562499997,112,0
64,207.88440749999998,207.97254843749997,112,0
67,207.88440749999998,208.0045996875,112,0
77,207.88440749999998,207.98056124999997,117,48
72,207.88440749999998,208.07671499999998,117,48
65,207.88440749999998,208.07671499999998,117,48
67,207.88440749999998,207.96453562499997,118,62
60,207.88440749999998,207.98056124999997,119,62
64,207.88440749999998,207.98857406249996,117,62
77,207.90844593749998,208.26100968749998,124,55
65,207.90844593749998,208.26100968749998,122,55
64,208.07671499999998,208.1969071875,112,0
67,208.07671499999998,208.24498406249998,112,0
77,208.07671499999998,208.99818843749998,98,48
64,208.07671499999998,208.15684312499997,115,62
60,208.07671499999998,208.16485593749996,116,62
67,208.07671499999998,208.1969071875,119,62
36,208.07671499999998,208.14081749999997,119,47
48,208.07671499999998,208.15684312499997,114,47
65,208.26902249999998,208.40524031249998,112,0
69,208.26902249999998,208.42126593749998,112,0
65,208.26902249999998,208.34113781249997,118,62
60,208.26902249999998,208.35716343749996,121,62
69,208.26902249999998,208.3731890625,120,62
48,208.26902249999998,208.32511218749997,116,47
36,208.26902249999998,208.32511218749997,121,47
60,208.46132999999998,208.50940687499997,112,0
70,208.46132999999998,208.5494709375,112,0
67,208.46132999999998,208.573509375,112,0
60,208.46132999999998,208.54145812499996,121,62
67,208.46132999999998,208.58152218749998,120,62
70,208.46132999999998,208.60556062499998,119,62
36,208.46132999999998,208.52543249999997,122,47
48,208.46132999999998,208.53344531249996,118,47
65,208.65363749999997,208.82991937499997,112,0
69,208.65363749999997,208.90203468749996,112,0
65,208.65363749999997,208.7417784375,120,62
60,208.65363749999997,208.75780406249999,117,62
69,208.65363749999997,208.77382968749998,119,62
48,208.65363749999997,208.7257528125,120,47
36,208.65363749999997,208.7417784375,119,47
67,208.84594499999997,208.90203468749996,112,0
64,208.84594499999997,209.03825249999997,112,0
67,208.84594499999997,208.97414999999998,121,62
64,208.84594499999997,208.97414999999998,120,62
60,208.84594499999997,208.97414999999998,121,62
48,208.84594499999997,208.9180603125,122,47
36,208.84594499999997,208.9340859375,121,47
29,209.03023968749997,209.13440624999998,125,33
41,209.03023968749997,209.14241906249998,125,33
65,209.03825249999997,209.102355,123,0
69,209.03825249999997,209.12639343749998,123,0
77,209.03825249999997,209.13440624999998,123,0
41,209.03825249999997,209.15043187499998,123,0
29,209.03825249999997,209.15844468749998,123,0
65,209.03825249999997,209.15043187499998,119,48
77,209.03825249999997,209.16645749999998,114,48
72,209.03825249999997,209.16645749999998,119,48
65,209.06229093749997,209.15844468749998,124,55
77,209.07831656249996,209.15844468749998,123,55
41,209.22254718749997,209.31870093749998,125,33
29,209.22254718749997,209.32671374999998,125,33
65,209.23055999999997,209.31068812499998,123,0
69,209.23055999999997,209.33472656249998,123,0
77,209.23055999999997,209.34273937499998,123,0
41,209.23055999999997,209.36677781249998,123,0
29,209.23055999999997,209.36677781249998,123,0
77,209.23055999999997,209.41485468749997,117,48
72,209.23055999999997,209.42286749999997,118,48
65,209.23055999999997,209.42286749999997,118,48
65,209.2706240625,209.35876499999998,124,55
77,209.278636875,209.35876499999998,124,55
41,209.41485468749997,209.72735437499998,125,33
29,209.41485468749997,209.74337999999997,125,33
60,209.42286749999997,209.50299562499998,112,0
64,209.42286749999997,209.51100843749998,112,0
67,209.42286749999997,209.54305968749998,112,0
77,209.42286749999997,209.51902124999998,117,48
72,209.42286749999997,209.61517499999997,117,48
65,209.42286749999997,209.61517499999997,117,48
67,209.42286749999997,209.51100843749998,121,62
64,209.42286749999997,209.51100843749998,121,62
60,209.42286749999997,209.51902124999998,120,62
77,209.4629315625,209.60716218749997,124,55
65,209.4629315625,209.60716218749997,123,55
64,209.61517499999997,209.73536718749997,112,0
67,209.61517499999997,209.78344406249997,112,0
77,209.61517499999997,210.57671249999999,94,48
64,209.61517499999997,209.69530312499998,119,62
60,209.61517499999997,209.71934156249998,117,62
67,209.61517499999997,209.74337999999997,120,62
36,209.61517499999997,209.67126468749998,116,47
48,209.61517499999997,209.68729031249998,118,47
65,209.80748249999996,209.94370031249997,112,0
69,209.80748249999996,209.95972593749997,112,0
65,209.80748249999996,209.88761062499998,120,62
60,209.80748249999996,209.89562343749998,119,62
69,209.80748249999996,209.91966187499997,120,62
48,209.80748249999996,209.86357218749998,119,47
36,209.80748249999996,209.86357218749998,121,47
60,209.99979,210.04786687499998,112,0
70,209.99979,210.08793093749998,112,0
67,209.99979,210.11196937499997,112,0
60,209.99979,210.09594374999998,120,62
67,209.99979,210.11998218749997,120,62
70,209.99979,210.14402062499997,119,62
48,209.99979,210.05587968749998,118,47
36,209.99979,210.07190531249998,122,47
65,210.1920975,210.368379375,112,0
69,210.1920975,210.44049468749998,112,0
65,210.1920975,210.26421281249998,120,62
60,210.1920975,210.28825124999997,121,62
69,210.1920975,210.30427687499997,120,62
48,210.1920975,210.25619999999998,120,47
36,210.1920975,210.28023843749997,119,47
67,210.384405,210.44049468749998,112,0
64,210.384405,210.57671249999999,112,0
64,210.384405,210.51260999999997,119,62
67,210.384405,210.52062281249997,121,62
60,210.384405,210.52062281249997,122,62
36,210.384405,210.45652031249998,120,47
48,210.384405,210.47254593749997,122,47
65,210.57671249999999,210.76901999999998,123,0
65,210.60075093749998,210.68889187499997,124,55
77,210.60075093749998,210.69690468749997,123,55
77,210.76901999999998,210.89722499999996,123,0
77,210.76901999999998,210.88921218749996,116,48
77,210.79305843749998,210.88119937499997,122,55
65,210.80107124999998,210.88119937499997,124,55
77,210.96132749999998,211.4741475,121,0
77,210.96132749999998,211.73857031249997,116,48
65,210.98536593749998,211.12959656249998,124,55
77,210.98536593749998,211.14562218749998,124,55
75,211.15363499999998,213.25299187499996,122,0
75,211.15363499999998,212.98856906249998,116,48
84,211.34594249999998,212.91645375,121,60
72,211.34594249999998,213.22094062499997,123,0
72,211.34594249999998,212.53183874999996,107,48
72,211.34594249999998,212.91645375,119,62
72,211.34594249999998,212.91645375,119,69
80,211.73055749999997,212.94049218749998,120,60
68,211.73055749999997,213.19690218749997,123,0
68,211.73055749999997,212.98055624999998,118,48
68,211.73055749999997,212.94049218749998,119,62
68,211.73055749999997,212.94049218749998,119,69
77,212.11517249999997,212.98055624999998,120,60
65,212.11517249999997,213.18087656249998,123,0
65,212.11517249999997,213.00459468749997,118,48
65,212.11517249999997,212.98055624999998,119,62
65,212.11517249999997,212.98055624999998,119,69
75,212.49978749999997,213.02062031249997,121,60
63,212.49978749999997,213.24497906249997,123,0
63,212.49978749999997,212.52382593749996,117,48
63,212.49978749999997,213.02062031249997,119,62
63,212.49978749999997,213.02062031249997,119,69
43,213.26100468749996,213.56549156249997,125,33
60,213.2690175,213.53344031249998,122,60
60,213.2690175,213.44529937499996,123,0
72,213.2690175,213.461325,123,0
48,213.2690175,213.461325,123,0
84,213.2690175,213.4693378125,123,0
60,213.2690175,213.42927374999996,116,48
72,213.2690175,213.4533121875,116,48
67,213.2690175,213.461325,116,48
48,213.2690175,213.53344031249998,120,62
48,213.2690175,213.53344031249998,120,69
60,213.2690175,213.50940187499998,123,55
36,213.2690175,213.34914562499998,108,47
59,213.6536325,213.89401687499998,122,60
71,213.6536325,213.76581187499997,123,0
59,213.6536325,213.8219015625,123,0
83,213.6536325,213.84593999999998,123,0
47,213.6536325,213.84593999999998,123,0
59,213.6536325,213.79786312499996,114,48
74,213.6536325,213.84593999999998,114,48
71,213.6536325,213.84593999999998,114,48
65,213.6536325,213.84593999999998,114,48
47,213.6536325,213.89401687499998,121,62
47,213.6536325,213.89401687499998,120,69
59,213.6536325,213.89401687499998,121,55
36,213.6536325,213.75779906249997,105,47
41,213.66164531249999,213.97414499999996,125,33
38,214.03023468749998,214.27061906249997,125,33
65,214.03824749999998,214.23055499999998,123,60
56,214.03824749999998,214.32670874999997,123,60
75,214.03824749999998,214.22254218749998,123,0
51,214.03824749999998,214.23055499999998,123,0
87,214.03824749999998,214.23856781249998,123,0
63,214.03824749999998,214.29465749999997,123,0
75,214.03824749999998,214.22254218749998,115,48
63,214.03824749999998,214.22254218749998,115,48
71,214.03824749999998,214.23055499999998,115,48
53,214.03824749999998,214.23055499999998,122,62
44,214.03824749999998,214.32670874999997,122,62
53,214.03824749999998,214.23055499999998,120,69
44,214.03824749999998,214.32670874999997,120,69
63,214.03824749999998,214.25459343749998,122,55
36,214.03824749999998,214.16645249999996,117,47
35,214.41484968749998,214.70331093749996,125,33
55,214.42286249999998,214.67125968749997,123,60
62,214.42286249999998,214.80747749999998,123,60
74,214.42286249999998,214.51901624999996,123,0
86,214.42286249999998,214.59113156249998,123,0
62,214.42286249999998,214.59113156249998,123,0
50,214.42286249999998,214.61516999999998,123,0
62,214.42286249999998,214.57510593749998,116,48
77,214.42286249999998,214.61516999999998,116,48
74,214.42286249999998,214.61516999999998,116,48
67,214.42286249999998,214.61516999999998,116,48
43,214.42286249999998,214.67125968749997,122,62
50,214.42286249999998,214.80747749999998,122,62
43,214.42286249999998,214.67125968749997,121,69
50,214.42286249999998,214.80747749999998,121,69
62,214.42286249999998,214.62318281249998,123,55
36,214.42286249999998,214.5430546875,122,47
32,214.79946468749998,215.06388749999996,125,33
68,214.80747749999998,214.99978499999997,123,60
53,214.80747749999998,215.04786187499997,123,60
80,214.80747749999998,214.919656875,123,0
68,214.80747749999998,214.93568249999998,123,0
92,214.80747749999998,214.99177218749998,123,0
56,214.80747749999998,214.99978499999997,123,0
80,214.80747749999998,214.97574656249998,120,48
68,214.80747749999998,214.97574656249998,120,48
74,214.80747749999998,214.99978499999997,120,48
59,214.80747749999998,214.99978499999997,120,48
56,214.80747749999998,214.99978499999997,122,62
41,214.80747749999998,215.04786187499997,122,62
56,214.80747749999998,214.99978499999997,121,69
41,214.80747749999998,215.04786187499997,121,69
68,214.80747749999998,215.00779781249997,121,55
36,214.80747749999998,214.92766968749999,121,47
31,215.17606687499998,215.42446406249996,125,33
67,215.19209249999997,215.38439999999997,123,60
50,215.19209249999997,215.44048968749996,123,60
79,215.19209249999997,215.29625906249998,123,0
91,215.19209249999997,215.35234874999998,123,0
67,215.19209249999997,215.36837437499997,123,0
55,215.19209249999997,215.38439999999997,123,0
67,215.19209249999997,215.36036156249997,120,48
83,215.19209249999997,215.38439999999997,120,48
77,215.19209249999997,215.38439999999997,120,48
55,215.19209249999997,215.38439999999997,120,48
55,215.19209249999997,215.38439999999997,122,62
38,215.19209249999997,215.44048968749996,122,62
55,215.19209249999997,215.38439999999997,121,69
38,215.19209249999997,215.44048968749996,121,69
67,215.19209249999997,215.40042562499997,123,55
36,215.19209249999997,215.31228468749998,122,47
36,215.56869468749997,215.93728406249997,98,33
72,215.57670749999997,215.96132249999997,123,60
48,215.57670749999997,215.96933531249996,122,60
48,215.57670749999997,215.76901499999997,123,0
84,215.57670749999997,215.79305343749996,123,0
60,215.57670749999997,215.80106624999996,123,0
96,215.57670749999997,215.817091875,123,0
72,215.57670749999997,215.8251046875,123,0
48,215.57670749999997,215.76901499999997,120,48
60,215.57670749999997,215.77702781249997,120,48
72,215.57670749999997,215.79305343749996,120,48
24,215.57670749999997,215.79305343749996,120,48
36,215.57670749999997,215.96132249999997,122,62
12,215.57670749999997,215.96933531249996,121,62
60,215.57670749999997,215.96132249999997,121,69
36,215.57670749999997,215.96933531249996,120,69
72,215.57670749999997,215.80106624999996,123,55
36,215.57670749999997,215.68087406249998,123,47
24,215.58472031249997,215.76100218749997,125,33
79,215.96132249999997,216.07350187499998,119,69
79,216.15362999999996,216.30587343749997,120,69
81,216.34593749999996,216.51420656249996,120,69
79,216.538245,217.42766718749996,120,69
67,216.7305525,216.81068062499997,113,48
43,216.7305525,216.79465499999998,112,62
55,216.7305525,216.81068062499997,111,62
67,216.92286,217.10715468749999,108,48
55,216.92286,217.00298812499997,113,62
43,216.92286,217.00298812499997,113,62
69,217.11516749999998,217.2834365625,118,48
57,217.11516749999998,217.29946218749998,116,62
45,217.11516749999998,217.31548781249998,117,62
67,217.30747499999998,217.71612843749998,118,48
55,217.30747499999998,217.49176968749998,115,62
43,217.30747499999998,217.59593624999997,116,62
43,217.49176968749998,217.57991062499997,121,33
72,217.49978249999998,217.58792343749997,123,0
76,217.49978249999998,217.61196187499996,121,0
55,217.49978249999998,217.57991062499997,120,48
48,217.49978249999998,217.59593624999997,120,48
64,217.49978249999998,217.61997468749996,119,48
55,217.49978249999998,217.58792343749997,120,62
52,217.49978249999998,217.61997468749996,121,62
79,217.49978249999998,217.59593624999997,120,69
76,217.49978249999998,217.61997468749996,120,69
76,217.49978249999998,217.57189781249997,122,55
48,217.49978249999998,217.55587218749997,110,47
36,217.49978249999998,217.57189781249997,115,47
43,217.68407718749998,217.78824374999996,123,33
72,217.69208999999998,217.80426937499996,123,0
76,217.69208999999998,217.8122821875,116,0
64,217.69208999999998,217.77221812499997,118,48
55,217.69208999999998,217.77221812499997,116,48
48,217.69208999999998,217.77221812499997,113,48
43,217.69208999999998,217.70811562499998,101,62
52,217.69208999999998,217.84433343749998,118,62
55,217.69208999999998,218.02862812499998,119,62
76,217.69208999999998,217.84433343749998,118,69
79,217.69208999999998,218.02862812499998,119,69
76,217.69208999999998,217.76420531249997,123,55
48,217.69208999999998,217.74817968749997,110,47
36,217.69208999999998,217.75619249999997,111,47
45,217.87638468749998,217.98055124999996,121,33
74,217.88439749999998,217.97253843749996,123,0
77,217.88439749999998,218.02862812499998,122,0
65,217.88439749999998,217.96452562499996,115,48
57,217.88439749999998,217.96452562499996,119,48
50,217.88439749999998,217.96452562499996,122,48
53,217.88439749999998,218.03664093749998,119,62
77,217.88439749999998,218.03664093749998,119,69
77,217.88439749999998,217.9885640625,124,55
48,217.88439749999998,217.95651281249997,119,47
36,217.88439749999998,217.95651281249997,121,47
43,218.06869218749998,218.15683312499996,122,33
72,218.07670499999998,218.188884375,118,0
76,218.07670499999998,218.21292281249998,122,0
64,218.07670499999998,218.15683312499996,120,48
55,218.07670499999998,218.15683312499996,121,48
48,218.07670499999998,218.15683312499996,108,48
55,218.07670499999998,218.20490999999998,119,62
52,218.07670499999998,218.20490999999998,119,62
79,218.07670499999998,218.20490999999998,119,69
76,218.07670499999998,218.20490999999998,119,69
76,218.07670499999998,218.16484593749996,122,55
48,218.07670499999998,218.11676906249997,107,47
36,218.07670499999998,218.12478187499997,117,47
41,218.26099968749998,218.34914062499996,125,33
74,218.26901249999997,218.34914062499996,120,0
71,218.26901249999997,218.34914062499996,123,0
62,218.26901249999997,218.34914062499996,119,48
53,218.26901249999997,218.34914062499996,118,48
47,218.26901249999997,218.34914062499996,119,48
50,218.26901249999997,218.38920468749998,120,62
55,218.26901249999997,218.39721749999998,119,62
74,218.26901249999997,218.38920468749998,120,69
79,218.26901249999997,218.39721749999998,119,69
74,218.26901249999997,218.3731790625,123,55
48,218.26901249999997,218.34112781249996,119,47
36,218.26901249999997,218.3571534375,122,47
40,218.45330718749997,218.55747374999999,122,33
72,218.46131999999997,218.5494609375,123,0
69,218.46131999999997,218.5494609375,123,0
60,218.46131999999997,218.5334353125,119,48
52,218.46131999999997,218.541448125,121,48
45,218.46131999999997,218.541448125,119,48
48,218.46131999999997,218.56548656249998,120,62
55,218.46131999999997,218.58151218749998,119,62
72,218.46131999999997,218.56548656249998,120,69
79,218.46131999999997,218.58151218749998,119,69
72,218.46131999999997,218.5494609375,122,55
48,218.46131999999997,218.5334353125,119,47
36,218.46131999999997,218.5334353125,121,47
38,218.64561468749997,218.95010156249998,121,33
71,218.65362749999997,218.78984531249998,123,0
67,218.65362749999997,218.78984531249998,123,0
50,218.65362749999997,218.87798624999996,123,48
59,218.65362749999997,218.894011875,122,48
43,218.65362749999997,218.894011875,123,48
47,218.65362749999997,218.85394781249997,121,62
55,218.65362749999997,218.86997343749997,121,62
71,218.65362749999997,218.85394781249997,120,69
79,218.65362749999997,218.86997343749997,120,69
71,218.65362749999997,218.86196062499997,122,55
36,218.65362749999997,218.733755625,121,47
48,218.65362749999997,218.74176843749999,121,47
62,219.03824249999997,219.18247312499997,123,0
67,219.03824249999997,219.31869093749998,123,0
71,219.03824249999997,219.37478062499997,123,0
55,219.03824249999997,219.41484468749996,113,52
55,219.03824249999997,219.32670374999998,119,62
79,219.04625531249997,219.33471656249998,119,69
38,219.41484468749996,219.50298562499998,110,33
36,219.41484468749996,219.88760062499998,123,33
64,219.42285749999996,219.83952374999998,123,0
72,219.42285749999996,219.87157499999998,122,0
67,219.42285749999996,219.87157499999998,123,0
60,219.42285749999996,219.87958781249998,123,0
48,219.42285749999996,219.87958781249998,119,0
55,219.42285749999996,219.90362624999997,123,0
55,219.42285749999996,219.87157499999998,119,48
60,219.42285749999996,219.87958781249998,119,48
52,219.42285749999996,220.11195937499997,113,52
60,219.42285749999996,220.1840746875,113,52
48,219.42285749999996,220.1840746875,113,52
59,219.42285749999996,219.438883125,121,62
60,219.42285749999996,219.87157499999998,118,62
84,219.438883125,219.88760062499998,119,69
83,219.4468959375,219.4629215625,120,69
84,219.97574156249996,220.09593374999997,120,69
36,219.9917671875,220.1680490625,122,33
64,219.99978,220.08792093749997,123,0
48,219.99978,220.08792093749997,121,0
60,219.99978,220.14401062499996,123,0
72,219.99978,220.15202343749996,122,0
67,219.99978,220.16003624999996,123,0
55,219.99978,220.1840746875,117,0
55,219.99978,220.09593374999997,117,48
60,219.99978,220.11195937499997,110,48
60,219.99978,220.11195937499997,120,62
48,219.99978,220.07990812499997,110,47
36,219.99978,220.07990812499997,117,47
33,220.1840746875,220.56067687499998,121,33
65,220.19208749999999,220.32029249999997,123,0
72,220.19208749999999,220.33631812499996,122,0
69,220.19208749999999,220.35234375,123,0
53,220.19208749999999,220.3603565625,122,0
60,220.19208749999999,220.368369375,121,0
53,220.19208749999999,220.27221562499997,119,48
57,220.19208749999999,220.28022843749997,119,48
60,220.19208749999999,220.32029249999997,117,48
53,220.19208749999999,220.94529187499998,113,52
57,220.19208749999999,220.95330468749998,113,52
60,220.19208749999999,220.33631812499996,121,62
84,220.19208749999999,220.33631812499996,120,69
36,220.19208749999999,220.26420281249997,122,47
48,220.19208749999999,220.28022843749997,122,47
33,220.56868968749998,220.65683062499997,120,33
84,220.56868968749998,220.68086906249997,119,69
65,220.57670249999998,220.65683062499997,123,0
69,220.57670249999998,220.66484343749997,123,0
60,220.57670249999998,220.68086906249997,122,0
53,220.57670249999998,220.68888187499996,119,0
72,220.57670249999998,220.69689468749996,123,0
53,220.57670249999998,220.64881781249997,119,48
57,220.57670249999998,220.66484343749997,119,48
60,220.57670249999998,220.68086906249997,119,48
60,220.57670249999998,220.68888187499996,119,62
84,220.74497156249998,220.897215,118,69
33,220.76099718749998,220.86516374999997,118,33
65,220.76900999999998,220.84913812499997,122,0
60,220.76900999999998,220.88118937499996,119,0
69,220.76900999999998,220.88920218749996,123,0
72,220.76900999999998,220.913240625,122,0
53,220.76900999999998,220.92926624999998,119,0
57,220.76900999999998,220.83311249999997,114,48
53,220.76900999999998,220.84913812499997,114,48
60,220.76900999999998,220.88118937499996,111,48
60,220.76900999999998,220.913240625,117,62
83,220.94529187499998,221.073496875,119,69
35,220.95330468749998,221.40202218749997,124,33
64,220.96131749999998,221.04945843749996,123,0
68,220.96131749999998,221.073496875,122,0
59,220.96131749999998,221.073496875,123,0
52,220.96131749999998,221.073496875,123,0
71,220.96131749999998,221.0895225,123,0
52,220.96131749999998,221.03343281249997,118,48
56,220.96131749999998,221.04945843749996,118,48
59,220.96131749999998,221.073496875,118,48
59,220.96131749999998,221.72253468749997,113,52
56,220.96131749999998,221.72253468749997,113,52
52,220.96131749999998,221.72253468749997,113,52
59,220.96131749999998,221.0895225,118,62
48,220.96131749999998,221.02541999999997,122,47
36,220.96131749999998,221.05747124999996,122,47
83,221.14561218749998,221.265804375,118,69
64,221.15362499999998,221.24977874999996,121,0
59,221.15362499999998,221.2577915625,123,0
52,221.15362499999998,221.2577915625,113,0
71,221.15362499999998,221.265804375,120,0
68,221.15362499999998,221.2738171875,123,0
52,221.15362499999998,221.21772749999997,106,48
59,221.15362499999998,221.24977874999996,110,48
56,221.15362499999998,221.24977874999996,107,48
59,221.15362499999998,221.2738171875,116,62
64,221.34593249999998,221.42606062499996,123,0
59,221.34593249999998,221.43407343749996,122,0
52,221.34593249999998,221.43407343749996,112,0
71,221.34593249999998,221.44208625,122,0
68,221.34593249999998,221.44208625,122,0
52,221.34593249999998,221.42606062499996,116,48
56,221.34593249999998,221.44208625,116,48
59,221.34593249999998,221.4500990625,117,48
59,221.34593249999998,221.46612468749998,119,62
83,221.34593249999998,221.46612468749998,119,69
35,221.53022718749997,221.66644499999998,124,33
59,221.53823999999997,221.618368125,123,0
64,221.53823999999997,221.63439375,123,0
52,221.53823999999997,221.65041937499998,122,0
71,221.53823999999997,221.67445781249998,121,0
68,221.53823999999997,221.67445781249998,123,0
52,221.53823999999997,221.618368125,116,48
56,221.53823999999997,221.65843218749998,116,48
59,221.53823999999997,221.66644499999998,115,48
59,221.53823999999997,221.69048343749998,117,62
83,221.53823999999997,221.69048343749998,118,69
48,221.53823999999997,221.61035531249996,115,47
36,221.53823999999997,221.61035531249996,118,47
40,221.72253468749997,222.179265,123,33
69,221.73054749999997,221.88279093749998,123,0
72,221.73054749999997,221.89080374999998,122,0
64,221.73054749999997,221.90682937499997,123,0
45,221.73054749999997,221.90682937499997,123,0
57,221.73054749999997,221.92285499999997,123,0
52,221.73054749999997,221.86676531249998,118,48
57,221.73054749999997,221.88279093749998,119,48
60,221.73054749999997,221.89881656249997,116,48
57,221.73054749999997,222.355546875,113,52
60,221.73054749999997,222.49176468749997,113,52
52,221.73054749999997,221.94689343749997,121,62
48,221.73054749999997,221.8026628125,122,47
36,221.73054749999997,221.8026628125,121,47
76,221.73856031249997,221.95490624999996,120,69
45,222.11516249999997,222.20330343749998,122,0
69,222.11516249999997,222.23535468749998,123,0
64,222.11516249999997,222.23535468749998,123,0
57,222.11516249999997,222.24336749999998,123,0
72,222.11516249999997,222.25939312499997,123,0
52,222.11516249999997,222.26740593749997,120,48
60,222.11516249999997,222.28343156249997,118,48
57,222.11516249999997,222.29144437499997,122,48
52,222.11516249999997,222.40362374999998,121,62
76,222.12317531249997,222.41163656249998,120,69
40,222.29945718749997,222.47573906249997,123,33
36,222.49176468749997,223.50939187499998,123,33
48,222.49977749999996,223.64560968749998,121,0
58,222.49977749999996,223.71772499999997,123,0
60,222.49977749999996,223.91003249999997,123,0
67,222.49977749999996,223.92605812499997,123,0
64,222.49977749999996,223.95009656249997,123,0
70,222.49977749999996,223.990160625,123,0
52,222.49977749999996,223.9981734375,118,48
58,222.49977749999996,226.72252968749999,103,48
55,222.49977749999996,226.77060656249998,119,48
55,222.49977749999996,222.52381593749996,113,52
48,222.49977749999996,224.01419906249998,113,52
58,222.49977749999996,224.03022468749998,113,52
50,222.49977749999996,223.2690075,120,62
48,222.49977749999996,222.59593124999998,119,47
36,222.49977749999996,222.61195687499998,122,47
74,222.50779031249996,223.83791718749998,120,69
36,222.88439249999996,222.94849499999998,107,47
48,222.88439249999996,222.95650781249998,107,47
36,223.2690075,223.31708437499998,108,47
48,223.46131499999998,223.49336624999998,80,47
36,223.64560968749998,223.90201968749997,123,33
36,223.65362249999998,223.71772499999997,110,47
48,223.65362249999998,223.72573781249997,110,47
48,223.84592999999998,223.94208374999997,119,62
72,223.84592999999998,223.94208374999997,119,69
74,223.95009656249997,224.03823749999998,118,69
36,224.03022468749998,225.28022343749998,122,33
64,224.03823749999998,225.19208249999997,123,0
67,224.03823749999998,225.20810812499997,123,0
52,224.03823749999998,225.22413374999996,123,0
72,224.03823749999998,225.24817218749996,123,0
60,224.03823749999998,225.24817218749996,123,0
70,224.03823749999998,225.256185,123,0
58,224.03823749999998,225.2641978125,123,0
64,224.03823749999998,225.59272312499996,116,48
60,224.03823749999998,226.81067062499997,107,48
64,224.03823749999998,225.432466875,113,52
67,224.03823749999998,225.52862062499997,113,52
52,224.03823749999998,225.56868468749997,113,52
72,224.03823749999998,224.11836562499997,118,69
48,224.03823749999998,224.11035281249997,108,47
36,224.03823749999998,224.11035281249997,110,47
74,224.13439124999996,224.20650656249998,119,69
72,224.21451937499998,224.31067312499997,118,69
74,224.30266031249997,224.31067312499997,119,69
72,224.39080124999998,224.48695499999997,117,69
48,224.42285249999998,224.49496781249997,105,47
36,224.42285249999998,224.49496781249997,110,47
74,224.47894218749997,224.5430446875,119,69
72,224.56708312499998,224.65522406249997,117,69
74,224.64721124999997,224.72733937499999,119,69
72,224.74336499999998,224.83150593749997,118,69
48,224.80746749999997,224.87958281249996,112,47
36,224.80746749999997,224.887595625,112,47
74,224.83150593749997,224.91163406249999,119,69
72,224.92765968749998,225.01580062499997,118,69
74,225.00778781249997,225.0879159375,119,69
72,225.11195437499998,225.20009531249997,119,69
74,225.19208249999997,225.256185,118,69
36,225.19208249999997,225.24817218749996,116,47
48,225.19208249999997,225.256185,119,47
72,225.28022343749998,225.36836437499997,118,69
74,225.36836437499997,225.4484925,119,69
36,225.37637718749997,225.48054374999998,122,33
72,225.47253093749998,225.56868468749997,119,69
74,225.56067187499997,225.63278718749999,119,69
36,225.56868468749997,225.76099218749997,123,33
67,225.57669749999997,226.74656812499998,123,0
60,225.57669749999997,226.74656812499998,123,0
55,225.57669749999997,226.75458093749998,123,0
70,225.57669749999997,226.76259374999998,123,0
72,225.57669749999997,226.78663218749998,123,0
64,225.57669749999997,226.80265781249997,123,0
76,225.57669749999997,226.81067062499997,123,0
58,225.57669749999997,226.81067062499997,123,0
67,225.57669749999997,227.15522156249997,113,48
67,225.57669749999997,227.10714468749998,113,52
55,225.57669749999997,227.10714468749998,113,52
72,225.65682562499998,225.73695374999997,118,69
74,225.73695374999997,225.80105625,119,69
47,225.76900499999996,225.78503062499996,74,47
48,225.76900499999996,225.82509468749998,107,47
72,225.83310749999998,225.91323562499997,118,69
74,225.91323562499997,225.99336375,119,69
48,225.96131249999996,225.96932531249996,98,47
72,226.01740218749998,226.09753031249997,118,69
74,226.09753031249997,226.17765843749999,119,69
48,226.15361999999996,226.20169687499998,100,47
72,226.20169687499998,226.20970968749998,118,69
74,226.28182499999997,226.36195312499999,119,69
48,226.3459275,226.40201718749998,91,47
72,226.38599156249998,226.46611968749997,119,69
74,226.47413249999997,226.54624781249998,118,69
48,226.538235,226.59432468749998,122,47
72,226.56227343749998,226.65842718749997,119,69
74,226.65842718749997,226.72252968749999,118,69
72,226.72252968749999,226.81067062499997,117,69
48,226.73054249999998,226.78663218749998,118,47
74,226.81067062499997,226.88278593749996,117,69
72,226.86676031249996,226.96291406249998,117,69
48,226.92284999999998,226.97893968749997,117,47
71,226.97893968749997,227.067080625,111,69
72,227.05906781249996,228.22779375,119,69
72,227.11515749999998,228.4104234375,123,0
82,227.11515749999998,228.41448187499998,123,0
76,227.11515749999998,228.41448187499998,123,0
84,227.11515749999998,228.41854031249997,123,0
67,227.11515749999998,228.42259874999996,123,0
70,227.11515749999998,228.42665718749998,123,0
60,227.11515749999998,228.43071562499998,123,0
84,227.11515749999998,228.03704718749998,115,48
72,227.11515749999998,228.05733937499997,113,48
60,227.11515749999998,228.05733937499997,119,48
72,227.11515749999998,228.17909249999997,113,52
64,227.11515749999998,228.17909249999997,113,52
70,227.11515749999998,228.18720937499998,113,52
48,227.30746499999998,227.31547781249998,90,47
48,227.49977249999998,227.50778531249998,89,47
48,227.69207999999998,227.72048906249998,86,47
48,227.78948249999996,227.84224218749998,123,47
48,227.88688499999998,227.93964468749996,86,47
48,227.98428749999997,228.03298875,91,47
48,228.08168999999998,228.138508125,123,47
48,228.17909249999997,228.21967687499998,97,47
48,228.27649499999998,228.32519624999998,123,47
48,228.37389749999997,228.42665718749998,122,47
41,228.46724156249996,228.72292312499997,125,33
65,228.47129999999999,228.73915687499996,123,0
53,228.47129999999999,228.75133218749997,122,30
48,228.56870249999997,228.6214621875,123,47
53,228.666105,228.94613718749997,117,30
33,228.7269815625,228.95831249999998,124,33
57,228.73103999999998,229.00295531249998,123,0
45,228.73103999999998,228.99077999999997,122,30
45,228.92584499999998,229.18558499999997,117,30
34,228.98672156249998,229.23022781249998,124,33
58,228.99077999999997,229.21805249999997,122,0
46,228.99077999999997,229.2383446875,121,30
46,229.18558499999997,229.43314968749996,115,30
35,229.24646156249997,229.51431843749998,125,33
59,229.25051999999997,229.46155874999997,123,0
47,229.25051999999997,229.50214312499998,121,30
47,229.44532499999997,229.69694812499998,116,30
36,229.50620156249997,229.65636374999997,124,33
60,229.51026,229.615779375,122,0
48,229.51026,229.66448062499998,121,30
38,229.63607156249998,229.75376624999998,119,33
62,229.64012999999997,229.74564937499997,123,0
50,229.64012999999997,229.77405843749997,119,30
48,229.70506499999996,229.85928562499998,115,30
40,229.7659415625,229.86740249999997,120,33
64,229.76999999999998,229.89175312499998,123,0
52,229.76999999999998,229.94857125,121,30
50,229.83493499999997,229.96886343749998,113,30
41,229.89581156249997,229.96480499999998,123,33
65,229.89986999999996,229.99727249999998,122,0
53,229.89986999999996,229.98509718749997,121,30
52,229.96480499999998,230.14337625,116,30
41,230.02568156249998,230.3097721875,124,33
65,230.02973999999998,230.29759687499998,122,0
53,230.02973999999998,230.30571374999997,121,30
53,230.09467499999997,230.17990218749998,115,30
53,230.22454499999998,230.50051874999997,115,30
33,230.28542156249998,230.58980437499997,124,33
57,230.28947999999997,230.56545375,123,0
45,230.28947999999997,230.59386281249996,121,30
45,230.48428499999997,230.78866781249997,115,30
34,230.54516156249997,230.74402499999997,121,33
58,230.54921999999996,230.79678468749998,122,0
46,230.54921999999996,230.79678468749998,121,30
46,230.74402499999997,230.99158968749998,115,30
35,230.80490156249996,230.9266546875,121,33
59,230.80895999999998,230.97535593749998,123,0
47,230.80895999999998,230.97535593749998,120,30
36,230.93477156249998,231.04029093749998,118,33
60,230.93882999999997,231.03217406249996,123,0
48,230.93882999999997,231.04434937499997,117,30
47,231.003765,231.1701609375,114,30
38,231.0646415625,231.19045312499998,118,33
62,231.06869999999998,231.23915437499997,123,0
50,231.06869999999998,231.20668687499997,121,30
48,231.13363499999997,231.23915437499997,110,30
36,231.19451156249997,231.60441374999996,124,33
60,231.19857,231.531361875,123,0
48,231.19857,231.531361875,123,30
50,231.26350499999998,231.40149187499998,116,30
48,231.39337499999996,231.726166875,117,30
41,231.58412156249997,231.84792,125,33
65,231.58817999999997,231.86821218749998,123,0
53,231.58817999999997,231.86821218749998,120,30
53,231.78298499999997,232.06301718749998,114,30
33,231.84386156249997,232.11171843749997,123,33
57,231.84792,232.11171843749997,123,0
45,231.84792,232.08736781249996,120,30
45,232.04272499999996,232.28217281249997,114,30
34,232.1036015625,232.35522468749997,124,33
58,232.10765999999998,232.3308740625,122,0
46,232.10765999999998,232.375516875,121,30
46,232.30246499999998,232.570321875,115,30
35,232.36334156249998,232.602789375,125,33
59,232.36739999999998,232.602789375,123,0
47,232.36739999999998,232.6474321875,121,30
47,232.56220499999998,232.8422371875,115,30
36,232.62308156249998,232.76512687499996,122,33
60,232.62713999999997,232.7367178125,123,0
48,232.62713999999997,232.80165281249998,119,30
38,232.7529515625,232.86252937499998,122,33
62,232.75700999999998,232.87470468749999,123,0
50,232.75700999999998,232.89093843749998,120,30
48,232.82194499999997,232.99645781249998,113,30
40,232.88282156249997,232.97616562499996,122,33
64,232.88687999999996,233.05733437499998,122,0
52,232.88687999999996,233.0695096875,119,30
50,232.95181499999998,233.08574343749999,114,30
41,233.01269156249998,233.08980187499998,119,33
65,233.01674999999997,233.11009406249997,122,0
53,233.01674999999997,233.1141525,118,30
52,233.08168499999996,233.2643146875,113,30
43,233.14256156249996,233.40230156249999,125,33
67,233.14661999999998,233.40635999999998,123,0
55,233.14661999999998,233.40230156249999,122,30
53,233.21155499999998,233.30895749999996,112,30
55,233.341425,233.5971065625,117,30
35,233.40230156249999,233.73509343749998,125,33
59,233.40635999999998,233.68233374999997,123,0
47,233.40635999999998,233.72697656249997,121,30
47,233.60116499999998,233.92178156249997,115,30
36,233.66204156249998,233.852788125,121,33
60,233.66609999999997,233.88931406249998,123,0
48,233.66609999999997,233.88525562499999,116,30
48,233.86090499999997,234.080060625,109,30
37,233.92178156249997,234.03947624999998,119,33
61,233.92583999999997,234.02730093749997,122,0
49,233.92583999999997,234.080060625,117,30
38,234.05165156249998,234.15311249999996,122,33
62,234.05570999999998,234.17340468749998,123,0
50,234.12064499999997,234.291099375,121,30
49,234.12064499999997,234.274865625,110,30
40,234.18152156249997,234.31544999999997,122,33
64,234.18558,234.291099375,123,0
52,234.25051499999998,234.34791749999997,118,30
38,234.31139156249998,234.67665093749997,125,33
62,234.31544999999997,234.47778749999998,123,0
50,234.31544999999997,234.68070937499996,114,30
50,234.31544999999997,234.485904375,116,30
52,234.44531999999998,234.54272249999997,112,30
50,234.51025499999997,234.87551437499997,107,30
36,234.70100156249998,234.86739749999998,125,33
72,234.70505999999997,236.61658406249998,123,0
67,234.70505999999997,236.70992812499998,123,0
60,234.70505999999997,236.91285,123,0
43,234.70505999999997,237.07112906249998,123,30
48,234.70505999999997,237.81788156249996,121,30
43,234.89986499999998,237.26593406249998,117,30
48,234.89986499999998,238.01268656249997,115,30
70,234.95262468749996,235.1798971875,122,65
36,234.96074156249998,235.029735,119,33
36,235.0906115625,235.29353343749997,120,33
70,235.24889062499997,235.42340343749999,122,65
36,235.35035156249998,235.39905281249997,104,33
36,235.48022156249996,235.67502656249997,114,33
70,235.52486437499996,235.78866281249998,123,65
36,235.73996156249999,235.78866281249998,119,33
69,235.77648749999997,235.96317562499996,119,65
36,235.86983156249997,236.07681187499998,122,33
69,236.03216906249997,236.19450656249998,118,65
36,236.12957156249996,236.18638968749997,110,33
36,236.25944156249997,236.44207124999997,116,33
69,236.27973375,236.53135687499997,122,65
36,236.51918156249997,236.58817499999998,120,33
67,236.55164906249996,236.72616187499997,123,65
36,236.64905156249998,236.79109687499997,121,33
67,236.80327218749997,236.94125906249997,122,65
36,236.90879156249997,237.03054468749997,116,33
67,237.02242781249998,237.39986249999998,120,65
29,237.03866156249998,237.37551187499997,125,33
72,237.04271999999997,237.683953125,123,0
65,237.04271999999997,237.7285959375,123,0
69,237.04271999999997,237.75294656249997,123,0
60,237.04271999999997,237.77729718749998,123,0
41,237.04271999999997,237.79353093749998,121,30
41,237.23752499999998,237.98833593749998,115,30
65,237.42015468749997,237.79353093749998,123,65
29,237.4282715625,237.79353093749998,125,33
64,237.80570625,238.089796875,123,65
36,237.81788156249996,237.98021906249997,123,33
67,237.82193999999998,239.20992562499998,123,0
64,237.82193999999998,239.24239312499998,123,0
60,237.82193999999998,239.29921124999998,123,0
72,237.82193999999998,239.32356187499997,123,0
48,237.82193999999998,237.84223218749997,122,30
43,237.82193999999998,239.33573718749997,117,30
48,238.016745,238.03703718749998,117,30
43,238.016745,239.53054218749998,110,30
36,238.07762156249998,238.1506734375,111,33
65,238.11008906249998,238.21155,123,65
36,238.20749156249997,238.33736156249998,112,33
67,238.24401749999998,239.33167874999998,122,65
65,238.24807593749998,238.27648499999998,113,65
36,238.4672315625,238.55245874999997,121,33
36,238.59710156249997,238.7837896875,115,33
36,238.85684156249997,238.92583499999998,114,33
36,238.98671156249998,239.17339968749997,119,33
36,239.24645156249997,239.388496875,110,33
31,239.37632156249998,239.47372406249997,120,33
67,239.38037999999997,239.52648374999998,123,0
55,239.38037999999997,239.5386590625,122,0
43,239.38037999999997,239.54677593749997,118,30
34,239.50619156249996,239.60359406249998,120,33
70,239.51024999999998,239.61982781249998,122,0
58,239.51024999999998,239.65635374999997,122,0
46,239.51024999999998,239.62388624999997,120,30
43,239.57518499999998,239.74158093749998,112,30
36,239.63606156249998,239.70099656249997,114,33
72,239.64011999999997,239.71317187499997,122,0
60,239.64011999999997,239.72534718749998,122,0
48,239.64011999999997,239.73752249999998,121,30
46,239.705055,239.81869124999997,114,30
36,239.7659315625,239.89174312499998,124,33
72,239.76998999999998,239.91203531249997,123,0
60,239.76998999999998,239.93232749999999,117,0
48,239.76998999999998,239.91609375,121,30
48,239.83492499999997,239.93232749999999,115,30
34,239.89580156249997,239.98102874999998,123,33
70,239.89986,239.99320406249998,123,0
58,239.89986,240.03784687499999,123,0
46,239.89986,240.005379375,119,30
48,239.96479499999998,240.11089875,115,30
39,240.02567156249998,240.69531374999997,125,33
67,240.02972999999997,240.79271624999998,123,0
70,240.02972999999997,240.85765124999998,123,0
63,240.02972999999997,240.85765124999998,123,0
75,240.02972999999997,240.865768125,122,0
51,240.02972999999997,240.95911218749998,121,30
46,240.09466499999996,240.200184375,113,30
51,240.22453499999997,241.15391718749999,115,30
34,240.67502156249998,240.76430718749998,123,33
35,240.8048915625,240.89417718749996,121,33
36,240.93476156249997,241.12550812499998,120,33
72,240.93881999999996,243.16284374999998,123,0
67,240.93881999999996,243.17907749999998,123,0
60,240.93881999999996,243.203428125,123,0
43,240.93881999999996,243.21154499999997,124,30
48,240.93881999999996,244.12469343749999,122,30
43,241.13362499999997,243.40634999999997,119,30
48,241.13362499999997,244.3194984375,117,30
70,241.16203406249997,241.34060531249997,123,65
36,241.19450156249997,241.23914437499997,116,33
36,241.32437156249998,241.51105968749997,119,33
70,241.4380078125,241.60440375,120,65
36,241.58411156249997,241.6652803125,111,33
36,241.71398156249998,241.89661124999998,113,33
70,241.726156875,242.0102475,122,65
36,241.97372156249997,242.04677343749998,115,33
69,241.9980721875,242.1928771875,119,65
36,242.1035915625,242.20505249999997,114,33
34,242.23346156249997,242.30651343749997,119,33
69,242.30245499999998,242.45261718749998,123,65
67,242.33898093749997,242.37956531249998,81,65
35,242.36333156249998,242.4201496875,112,33
36,242.4932015625,242.67988968749998,123,33
69,242.54190281249998,242.81787656249998,120,65
36,242.75294156249998,242.83005187499998,112,33
67,242.79758437499999,242.96398031249998,122,65
36,242.88281156249997,243.06949968749998,116,33
67,243.02891531249998,243.22372031249998,120,65
36,243.1425515625,243.25618781249997,122,33
29,243.27242156249997,243.47128499999997,123,33
53,243.27648,243.82436906249998,122,0
65,243.27648,243.88930406249997,123,0
72,243.27648,243.94206375,123,0
69,243.27648,243.95018062499997,123,0
60,243.27648,243.9582975,123,0
41,243.27648,244.00699874999998,121,30
67,243.30488906249997,243.66608999999997,122,65
41,243.47128499999997,244.20180374999998,115,30
29,243.53216156249997,243.62956406249998,119,33
29,243.66203156249998,243.84060281249998,123,33
65,243.6863821875,244.01917406249999,123,65
29,243.92177156249997,244.01511562499996,112,33
70,244.05164156249998,244.38443343749998,123,65
34,244.05164156249998,244.20180374999998,122,33
65,244.05569999999997,245.44368562499997,123,0
62,244.05569999999997,245.4802115625,123,0
74,244.05569999999997,245.49238687499997,123,0
70,244.05569999999997,245.5532634375,123,0
58,244.05569999999997,245.63443218749998,123,0
46,244.05569999999997,245.59384781249997,121,30
53,244.05569999999997,245.60602312499998,121,30
46,244.25050499999998,245.78865281249998,116,30
53,244.25050499999998,245.80082812499998,116,30
34,244.31138156249997,244.41284249999998,118,33
67,244.39255031249996,244.48995281249998,122,65
34,244.44125156249999,244.60764749999998,121,33
65,244.4980696875,245.61008156249997,123,65
34,244.70099156249998,244.8024525,121,33
34,244.8308615625,244.95667312499998,121,33
34,245.09060156249998,245.17582874999997,121,33
34,245.22047156249997,245.313815625,124,33
34,245.35034156249998,245.43962718749998,122,33
33,245.4802115625,245.60602312499998,120,33
31,245.61008156249997,245.81706187499998,123,33
74,245.61413999999996,246.92907375,123,0
67,245.61413999999996,247.034593125,123,0
70,245.61413999999996,247.04676843749996,123,0
55,245.61413999999996,247.07111906249997,122,0
62,245.61413999999996,247.08329437499998,123,0
43,245.61413999999996,247.11170343749998,120,30
50,245.61413999999996,247.21316437499996,122,30
70,245.65066593749998,247.22128124999998,122,65
69,245.66284124999999,245.72371781249998,115,65
43,245.80894499999997,247.30650843749999,114,30
50,245.80894499999997,247.407969375,117,30
31,245.86982156249996,245.93475656249998,121,33
31,245.99969156249998,246.17826281249998,119,33
31,246.25943156249997,246.34465874999998,117,33
31,246.38930156249998,246.55975593749997,119,33
31,246.64904156249997,246.73426874999998,116,33
31,246.77891156249999,246.88037249999996,115,33
34,246.90878156249997,247.01024249999998,115,33
35,247.03865156249998,247.14417093749998,112,33
36,247.1685215625,247.37550187499997,119,33
64,247.17257999999998,248.54433187499998,123,0
67,247.17257999999998,248.60520843749998,123,0
76,247.17257999999998,248.66608499999998,123,0
72,247.17257999999998,248.6782603125,123,0
60,247.17257999999998,248.73101999999997,123,0
48,247.17257999999998,248.77566281249997,120,30
69,247.18069687499997,247.54189781249997,116,65
48,247.36738499999998,248.97046781249998,114,30
36,247.42826156249998,247.4850796875,120,33
67,247.54189781249997,248.60115,123,65
36,247.55813156249997,247.74076125,113,33
36,247.8178715625,247.89092343749996,114,33
36,247.94774156249997,248.1181959375,118,33
36,248.2074815625,248.26429968749997,104,33
36,248.33735156249998,248.54839031249998,112,33
36,248.59709156249997,248.72696156249998,121,33
31,248.72696156249998,248.88118218749997,123,33
65,248.73101999999997,250.10277187499997,123,0
55,248.73101999999997,250.21234968749997,123,0
74,248.73101999999997,250.216408125,123,0
70,248.73101999999997,250.23264187499998,123,0
62,248.73101999999997,250.24887562499998,123,0
43,248.73101999999997,250.20829124999997,122,30
46,248.73101999999997,250.25699249999997,120,30
43,248.92582499999997,250.40309624999998,117,30
46,248.92582499999997,250.45179749999997,114,30
70,248.98670156249997,249.19774031249997,122,65
31,248.98670156249997,249.055695,92,33
31,249.11657156249998,249.27485062499997,122,33
70,249.2626753125,249.4777725,123,65
31,249.37631156249998,249.45748031249997,115,33
31,249.5061815625,249.66446062499998,118,33
70,249.54270749999998,249.7172203125,123,65
31,249.76592156249998,249.8389734375,114,33
70,249.79027218749997,249.97696031249998,119,65
31,249.89579156249997,250.00131093749997,120,33
34,250.02566156249998,250.12306406249996,119,33
70,250.0500121875,250.3219275,122,65
35,250.1555315625,250.25293406249997,106,33
36,250.28540156249997,250.45991437499998,120,33
67,250.28945999999996,251.72208843749996,123,0
76,250.28945999999996,251.75861437499998,123,0
64,250.28945999999996,251.76673124999996,123,0
72,250.28945999999996,251.77890656249997,123,0
60,250.28945999999996,251.8276078125,123,0
43,250.28945999999996,251.80731562499997,120,30
48,250.28945999999996,251.8600753125,118,30
69,250.31381062499997,250.69530375,120,65
43,250.484265,252.00212062499998,114,30
48,250.484265,252.0548803125,112,30
36,250.54514156249996,250.61413499999998,112,33
36,250.67501156249998,250.84140749999997,118,33
67,250.6993621875,251.38929656249996,123,65
36,250.93475156249997,251.00374499999998,115,33
36,251.06462156249998,251.2269590625,116,33
36,251.32436156249997,251.4217640625,114,33
36,251.45423156249998,251.58816,118,33
36,251.71397156249998,251.8276078125,113,33
65,251.8276078125,252.05893874999998,123,65
31,251.8438415625,252.62306156249997,125,33
65,251.84789999999998,252.40390593749999,123,0
70,251.84789999999998,252.56218499999997,123,0
74,251.84789999999998,252.57841874999997,123,0
55,251.84789999999998,252.60276937499998,121,0
62,251.84789999999998,252.61494468749999,123,0
43,251.84789999999998,252.5824771875,118,30
46,251.84789999999998,252.62712,121,30
43,252.04270499999998,252.77728218749996,112,30
46,252.04270499999998,252.82192499999996,115,30
65,252.10358156249998,252.25780218749998,120,65
65,252.3714384375,252.45260718749998,122,65
65,252.50942531249999,252.59059406249997,122,65
64,252.5500096875,252.55812656249998,81,65
36,252.62306156249997,253.40228156249998,123,33
67,252.62712,253.28458687499997,123,0
76,252.62712,253.32517124999998,122,0
64,252.62712,253.3535803125,123,0
72,252.62712,253.37387249999998,123,0
60,252.62712,253.40633999999997,123,0
43,252.62712,253.3373465625,122,30
48,252.62712,253.4266321875,118,30
67,252.64335375,253.43069062499998,122,65
43,252.82192499999996,253.5321515625,117,30
48,252.82192499999996,253.62143718749996,112,30
31,253.40228156249998,254.1815015625,125,33
65,253.40633999999997,254.015105625,123,0
74,253.40633999999997,254.11250812499998,123,0
70,253.40633999999997,254.12468343749998,123,0
62,253.40633999999997,254.14091718749998,123,0
55,253.40633999999997,254.14497562499997,123,0
46,253.40633999999997,254.18961843749997,121,30
43,253.40633999999997,254.96072156249997,119,30
65,253.43474906249998,253.62955406249998,118,65
46,253.60114499999997,254.38442343749998,115,30
43,253.60114499999997,255.15552656249997,113,30
65,253.68637218749998,253.79594999999998,119,65
65,253.87306031249997,253.96234593749998,122,65
65,254.015105625,254.17338468749998,122,65
36,254.1815015625,254.70098156249998,121,33
64,254.18555999999998,254.80650093749998,123,0
76,254.18555999999998,254.84708531249998,121,0
67,254.18555999999998,254.859260625,123,0
72,254.18555999999998,254.91202031249998,123,0
60,254.18555999999998,254.95666312499998,123,0
48,254.18555999999998,254.98507218749998,116,30
67,254.242378125,254.52241031249997,123,65
48,254.38036499999998,255.17987718749998,109,30
65,254.49400124999997,254.72127374999997,123,65
64,254.7375075,254.94448781249997,123,65
31,254.76591656249997,254.87955281249998,118,33
41,254.96072156249997,255.21234468749998,124,33
77,254.96478,255.21640312499997,123,0
65,254.96478,255.21640312499997,123,0
53,254.96478,255.21640312499997,121,30
65,254.98101375,255.24887062499997,122,65
53,255.159585,255.41120812499997,115,30
33,255.22046156249996,255.47614312499996,124,33
69,255.22451999999998,255.47614312499996,123,0
57,255.22451999999998,255.47614312499996,123,0
45,255.22451999999998,255.47614312499996,121,30
62,255.24887062499997,255.38279906249997,120,65
60,255.3422146875,256.62873937499995,119,65
45,255.419325,255.67094812499997,116,30
34,255.48020156249999,255.71559093749997,123,33
70,255.48425999999998,255.735883125,122,0
58,255.48425999999998,255.735883125,122,0
46,255.48425999999998,255.735883125,120,30
46,255.67906499999998,255.930688125,114,30
35,255.73994156249998,255.97938937499998,125,33
71,255.74399999999997,256.0362075,123,0
59,255.74399999999997,256.0362075,123,0
47,255.74399999999997,256.0362075,122,30
47,255.93880499999997,256.23101249999996,117,30
36,255.99968156249997,256.14172687499996,122,33
72,256.00374,256.1660775,120,0
60,256.00374,256.1660775,120,0
48,256.00374,256.1660775,117,30
38,256.12955156249996,256.25130468749995,119,33
74,256.13361,256.2675384375,121,0
62,256.13361,256.2675384375,121,0
50,256.13361,256.2675384375,118,30
48,256.19854499999997,256.3608825,110,30
40,256.2594215625,256.4136421875,120,33
76,256.26347999999996,256.4379928125,122,0
64,256.26347999999996,256.4379928125,122,0
52,256.26347999999996,256.4379928125,120,30
50,256.32841499999995,256.46234343749995,112,30
41,256.3892915625,256.466401875,123,33
77,256.39335,256.48669406249996,123,0
65,256.39335,256.48669406249996,123,0
53,256.39335,256.48669406249996,121,30
52,256.458285,256.6327978125,114,30
41,256.51916156249996,256.79919375,125,33
77,256.52322,256.77484312499996,123,0
65,256.52322,256.77484312499996,123,0
53,256.52322,256.77484312499996,121,30
53,256.588155,256.6814990625,115,30
59,256.59627187499996,256.65308999999996,109,65
57,256.644973125,256.677440625,110,65
55,256.6896159375,256.7139665625,104,65
53,256.71802499999995,256.969648125,115,30
33,256.7789015625,257.067050625,125,33
69,256.78296,257.0548753125,123,0
57,256.78296,257.0548753125,123,0
45,256.78296,257.0548753125,121,30
45,256.977765,257.2496803125,116,30
70,257.04269999999997,257.2821478125,122,0
58,257.04269999999997,257.2821478125,122,0
46,257.04269999999997,257.2821478125,120,30
34,257.0711090625,257.29838156249997,123,33
46,257.237505,257.4769528125,114,30
35,257.29838156249997,257.44042687499996,123,33
71,257.30244,257.4444853125,122,0
59,257.30244,257.4444853125,122,0
47,257.30244,257.4444853125,120,30
36,257.4282515625,257.537829375,119,33
72,257.43231,257.54188781249997,120,0
60,257.43231,257.54188781249997,120,0
48,257.43231,257.54188781249997,117,30
47,257.49724499999996,257.63929031249995,114,30
38,257.5581215625,257.72045906249997,124,33
74,257.56217999999996,257.700166875,123,0
62,257.56217999999996,257.700166875,123,0
50,257.56217999999996,257.700166875,122,30
48,257.627115,257.7366928125,110,30
36,257.6879915625,258.05325093749997,124,33
72,257.69205,258.05325093749997,123,0
60,257.69205,258.05325093749997,123,0
48,257.69205,258.05325093749997,122,30
50,257.756985,257.89497187499995,117,30
48,257.88685499999997,258.2480559375,117,30
41,258.0776015625,258.35357531249997,125,33
77,258.08166,258.35763375,123,0
65,258.08166,258.35763375,123,0
53,258.08166,258.35763375,122,30
53,258.276465,258.55243874999996,117,30
33,258.3373415625,258.625490625,125,33
69,258.34139999999996,258.60925687499997,123,0
57,258.34139999999996,258.60925687499997,123,0
45,258.34139999999996,258.60925687499997,122,30
45,258.536205,258.804061875,117,30
34,258.59708156249997,258.8324709375,120,33
70,258.60114,258.8487046875,123,0
58,258.60114,258.8487046875,123,0
46,258.60114,258.8487046875,121,30
46,258.79594499999996,259.0435096875,115,30
35,258.8568215625,259.10844468749997,125,33
71,258.86087999999995,259.1327953125,123,0
59,258.86087999999995,259.1327953125,123,0
47,258.86087999999995,259.1327953125,121,30
47,259.055685,259.32760031249995,115,30
36,259.11656156249995,259.258606875,124,33
72,259.12062,259.2545484375,119,0
60,259.12062,259.2545484375,119,0
48,259.12062,259.2545484375,116,30
38,259.2464315625,259.3600678125,119,33
74,259.25048999999996,259.36412624999997,120,0
62,259.25048999999996,259.36412624999997,120,0
50,259.25048999999996,259.36412624999997,117,30
48,259.315425,259.4493534375,109,30
40,259.3763015625,259.4899378125,114,33
76,259.38036,259.5792234375,121,0
64,259.38036,259.5792234375,121,0
52,259.38036,259.5792234375,118,30
50,259.445295,259.55893125,110,30
41,259.50617156249996,259.57516499999997,121,33
77,259.51023,259.599515625,121,0
65,259.51023,259.599515625,121,0
53,259.51023,259.599515625,118,30
52,259.57516499999997,259.77402843749996,112,30
43,259.6360415625,259.8795478125,125,33
79,259.64009999999996,259.891723125,123,0
67,259.64009999999996,259.891723125,123,0
55,259.64009999999996,259.891723125,121,30
53,259.70503499999995,259.79432062499995,112,30
55,259.834905,260.086528125,116,30
35,259.89578156249996,260.24074874999997,124,33
71,259.89984,260.22857343749996,123,0
59,259.89984,260.22857343749996,123,0
47,259.89984,260.22857343749996,121,30
47,260.09464499999996,260.4233784375,116,30
36,260.1555215625,260.37467718749997,123,33
72,260.15958,260.411203125,122,0
60,260.15958,260.411203125,122,0
48,260.15958,260.411203125,119,30
48,260.354385,260.60600812499996,113,30
38,260.41526156249995,260.6344171875,123,33
74,260.41931999999997,260.65065093749996,122,0
62,260.41931999999997,260.65065093749996,122,0
50,260.41931999999997,260.65065093749996,120,30
50,260.614125,260.8454559375,114,30
39,260.6750015625,260.833280625,123,33
75,260.67906,260.800813125,120,0
63,260.67906,260.800813125,120,0
51,260.67906,260.800813125,117,30
40,260.80487156249995,260.92662468749995,120,33
76,260.80893,260.93879999999996,123,0
64,260.80893,260.93879999999996,123,0
52,260.80893,260.93879999999996,121,30
51,260.87386499999997,260.99561812499996,110,30
41,260.9347415625,261.08490374999997,125,33
77,260.93879999999996,261.0321440625,119,0
65,260.93879999999996,261.0321440625,119,0
53,260.93879999999996,261.0321440625,116,30
52,261.003735,261.133605,115,30
43,261.0646115625,261.18230625,120,33
79,261.06867,261.190423125,122,0
67,261.06867,261.190423125,122,0
55,261.06867,261.190423125,120,30
53,261.133605,261.22694906249995,109,30
66,261.19448156249996,261.3243515625,122,65
42,261.19448156249996,261.32840999999996,125,33
78,261.19854,261.368994375,122,0
66,261.19854,261.368994375,122,0
54,261.19854,261.368994375,120,30
55,261.26347499999997,261.38522812499997,114,30
44,261.3243515625,261.47451374999997,125,33
80,261.32840999999996,261.46233843749997,122,0
68,261.32840999999996,261.46233843749997,122,0
56,261.32840999999996,261.46233843749997,119,30
54,261.39334499999995,261.563799375,114,30
46,261.4542215625,261.57191624999996,125,33
82,261.45828,261.5678578125,123,0
70,261.45828,261.5678578125,123,0
58,261.45828,261.5678578125,121,30
56,261.523215,261.6571434375,113,30
58,261.653085,261.76266281249997,115,30
44,261.7139615625,261.8357146875,125,33
80,261.71801999999997,261.856006875,122,0
68,261.71801999999997,261.856006875,122,0
56,261.71801999999997,261.856006875,120,30
46,261.8438315625,261.9655846875,125,33
82,261.84789,261.9899353125,121,0
70,261.84789,261.9899353125,121,0
58,261.84789,261.9899353125,118,30
56,261.912825,262.05081187499997,114,30
48,261.97370156249997,262.12792218749996,123,33
84,261.97776,262.131980625,123,0
72,261.97776,262.131980625,123,0
60,261.97776,262.131980625,121,30
58,262.042695,262.18474031249997,112,30
60,262.17256499999996,262.32678562499996,116,30
46,262.3633115625,262.48100624999995,125,33
82,262.36737,262.48506468749997,122,0
70,262.36737,262.48506468749997,122,0
58,262.36737,262.48506468749997,120,30
48,262.49318156249996,262.635226875,121,33
84,262.49724,262.6636359375,122,0
72,262.49724,262.6636359375,122,0
60,262.49724,262.6636359375,119,30
58,262.56217499999997,262.6798696875,114,30
50,262.6230515625,262.692045,125,33
86,262.62710999999996,262.70422031249996,121,0
74,262.62710999999996,262.70422031249996,121,0
62,262.62710999999996,262.70422031249996,118,30
60,262.692045,262.85844093749995,113,30
35,262.7529215625,264.2870109375,125,33
75,262.75698,263.8568165625,123,0
71,262.75698,263.87710875,123,0
78,262.75698,263.89334249999996,123,0
66,262.75698,263.9461021875,123,0
47,262.75698,263.966394375,123,0
59,262.75698,263.9785696875,123,0
47,262.75698,262.821915,121,30
49,262.821915,262.88685,116,30
62,262.821915,262.8990253125,112,30
51,262.88685,262.951785,116,30
49,262.951785,263.01671999999996,117,30
47,262.951785,263.01671999999996,115,30
51,263.01671999999996,263.08165499999996,117,30
49,263.01671999999996,263.08165499999996,109,30
54,263.08165499999996,263.14659,118,30
51,263.08165499999996,263.14659,109,30
51,263.14659,263.211525,118,30
49,263.14659,263.211525,110,30
54,263.211525,263.27646,118,30
51,263.211525,263.27646,111,30
52,263.27646,263.341395,121,30
54,263.27646,263.341395,112,30
54,263.341395,263.40632999999997,118,30
51,263.341395,263.40632999999997,112,30
54,263.40632999999997,263.47126499999996,119,30
54,263.40632999999997,263.47126499999996,112,30
56,263.47126499999996,263.5686675,121,30
52,263.47126499999996,263.5362,115,30
58,263.5362,263.601135,120,30
54,263.5362,263.601135,112,30
58,263.601135,263.66607,119,30
54,263.601135,263.66607,113,30
56,263.66607,263.7512971875,119,30
56,263.66607,263.7634725,115,30
54,263.731005,263.79594,119,30
58,263.731005,263.79594,114,30
53,263.79594,263.86087499999996,119,30
58,263.79594,263.86087499999996,113,30
56,263.86087499999996,263.9542190625,119,30
56,263.86087499999996,263.9461021875,113,30
58,263.92580999999996,263.990745,120,30
54,263.92580999999996,263.990745,113,30
59,263.990745,264.063796875,121,30
53,263.990745,264.05568,113,30
61,264.05568,264.1327903125,121,30
56,264.05568,264.14902406249996,113,30
62,264.120615,264.18555,120,30
58,264.120615,264.18555,114,30
63,264.18555,264.31541999999996,118,30
59,264.18555,264.25860187499995,115,30
61,264.25048499999997,264.32759531249997,115,30
32,264.3113615625,265.8454509375,125,33
72,264.31541999999996,265.41525656249996,123,0
63,264.31541999999996,265.42743187499997,123,0
68,264.31541999999996,265.4396071875,123,0
75,264.31541999999996,265.50048375,123,0
56,264.31541999999996,265.5532434375,123,0
44,264.31541999999996,265.557301875,123,0
44,264.31541999999996,264.380355,120,30
62,264.31541999999996,264.380355,114,30
46,264.380355,264.44529,124,30
63,264.380355,264.510225,112,30
48,264.44529,264.510225,125,30
46,264.510225,264.57516,125,30
44,264.510225,264.57516,114,30
44,264.57516,264.640095,125,30
46,264.57516,264.640095,119,30
46,264.640095,264.70502999999997,125,30
48,264.640095,264.70502999999997,120,30
48,264.70502999999997,264.76996499999996,125,30
46,264.70502999999997,264.76996499999996,120,30
50,264.76996499999996,264.83489999999995,125,30
44,264.76996499999996,264.83489999999995,120,30
51,264.83489999999995,264.899835,125,30
46,264.83489999999995,264.899835,120,30
53,264.899835,264.96477,125,30
48,264.899835,264.96477,120,30
56,264.96477,265.029705,125,30
50,264.96477,265.029705,120,30
55,265.029705,265.09463999999997,125,30
51,265.029705,265.09463999999997,120,30
56,265.09463999999997,265.15957499999996,125,30
53,265.09463999999997,265.15957499999996,120,30
58,265.15957499999996,265.22451,125,30
56,265.15957499999996,265.22451,120,30
60,265.22451,265.289445,125,30
55,265.22451,265.289445,120,30
62,265.289445,265.35438,125,30
56,265.289445,265.35438,120,30
63,265.35438,265.419315,125,30
58,265.35438,265.419315,120,30
60,265.419315,265.48425,122,30
60,265.419315,265.48425,120,30
63,265.48425,265.87386,125,30
62,265.48425,265.54918499999997,120,30
63,265.54918499999997,265.61411999999996,120,30
60,265.61411999999996,265.67905499999995,116,30
63,265.67905499999995,266.068665,120,30
34,265.86980156249996,268.8162271875,125,33
77,265.87386,269.76995999999997,123,0
74,265.87386,269.76995999999997,123,0
70,265.87386,269.76995999999997,123,0
65,265.87386,269.76995999999997,123,0
58,265.87386,269.76995999999997,123,0
46,265.87386,269.76995999999997,123,0
46,265.87386,265.9509703125,118,30
48,265.93879499999997,266.00372999999996,119,30
50,266.00372999999996,266.09301562499996,119,30
48,266.068665,266.1660675,119,30
46,266.068665,266.14577531249995,112,30
50,266.1336,266.206651875,119,30
48,266.1336,266.198535,112,30
51,266.198535,266.26347,119,30
50,266.198535,266.287820625,112,30
50,266.26347,266.328405,119,30
48,266.26347,266.36087249999997,113,30
51,266.328405,266.39333999999997,119,30
50,266.328405,266.401456875,113,30
53,266.39333999999997,266.45827499999996,120,30
51,266.39333999999997,266.45827499999996,113,30
52,266.45827499999996,266.52320999999995,120,30
50,266.45827499999996,266.52320999999995,113,30
53,266.52320999999995,266.6003203125,120,30
51,266.52320999999995,266.588145,113,30
55,266.588145,266.65308,120,30
53,266.588145,266.65308,114,30
53,266.65308,266.718015,120,30
52,266.65308,266.718015,114,30
56,266.718015,266.79918375,121,30
53,266.718015,266.7951253125,114,30
55,266.78294999999997,266.8519434375,121,30
55,266.78294999999997,266.84788499999996,114,30
53,266.84788499999996,266.9168784375,121,30
53,266.84788499999996,266.91282,114,30
55,266.91282,266.9736965625,121,30
56,266.91282,266.99398874999997,115,30
56,266.977755,267.05892374999996,121,30
55,266.977755,267.04674843749996,115,30
58,267.04269,267.083274375,121,30
53,267.04269,267.1116834375,115,30
60,267.107625,267.16038468749997,121,30
55,267.107625,267.16850156249996,115,30
62,267.17256,267.2415534375,122,30
56,267.17256,267.25372875,115,30
63,267.23749499999997,267.3064884375,122,30
58,267.23749499999997,267.278079375,115,30
62,267.30242999999996,267.34707281249996,122,30
60,267.30242999999996,267.3551896875,116,30
60,267.36736499999995,267.4323,122,30
62,267.36736499999995,267.43635843749996,116,30
62,267.4323,267.497235,122,30
63,267.4323,267.50129343749995,116,30
63,267.497235,267.55811156249996,122,30
62,267.497235,267.5418778125,116,30
65,267.56217,267.618988125,122,30
60,267.56217,267.627105,116,30
67,267.627105,267.70421531249997,123,30
62,267.627105,267.69203999999996,117,30
68,267.69203999999996,267.765091875,123,30
63,267.69203999999996,267.7529165625,117,30
70,267.756975,267.8422021875,123,30
65,267.756975,267.81379312499996,117,30
68,267.82191,267.87061124999997,123,30
67,267.82191,267.8990203125,117,30
65,267.886845,267.943663125,123,30
68,267.886845,267.95989687499997,117,30
67,267.95178,268.008598125,123,30
70,267.95178,268.03700718749997,117,30
70,268.016715,268.0532409375,123,30
68,268.016715,268.06541625,117,30
72,268.08164999999997,268.14658499999996,124,30
65,268.08164999999997,268.138468125,118,30
74,268.14658499999996,268.219636875,124,30
67,268.14658499999996,268.20340312499997,118,30
75,268.21151999999995,271.32434156249997,124,30
70,268.21151999999995,268.24804593749997,118,30
72,268.276455,268.34139,118,30
74,268.34139,268.41444187499997,118,30
75,268.406325,271.5191465625,119,30
58,269.964765,270.15957,115,0
46,269.964765,270.15957,115,0
57,270.15957,270.354375,117,0
45,270.15957,270.354375,117,0
58,270.354375,270.54918,118,0
46,270.354375,270.54918,118,0
60,270.54918,270.74398499999995,119,0
48,270.54918,270.74398499999995,119,0
58,270.74398499999995,270.93879,120,0
46,270.74398499999995,270.93879,120,0
62,270.93879,271.13359499999996,122,0
50,270.93879,271.13359499999996,122,0
58,271.13359499999996,271.3284,123,0
46,271.13359499999996,271.3284,123,0
63,271.3284,271.52320499999996,123,0
51,271.3284,271.52320499999996,123,0
58,271.52320499999996,271.71801,123,0
46,271.52320499999996,271.71801,123,0
65,271.71801,271.91281499999997,123,0
53,271.71801,271.91281499999997,123,0
58,271.91281499999997,272.10762,123,0
46,271.91281499999997,272.10762,123,0
39,272.1035615625,273.00505499999997,125,33
67,272.10762,272.1316584375,123,0
63,272.10762,272.1316584375,123,0
51,272.10762,272.13967125,123,0
58,272.10762,272.492235,123,0
55,272.10762,272.8528115625,123,0
75,272.1316584375,273.00505499999997,122,0
63,272.13967125,273.01306781249997,123,0
67,272.13967125,273.021080625,123,0
58,272.1476840625,272.492235,123,0
70,272.1476840625,273.0290934375,123,0
51,272.1476840625,273.0611446875,123,0
51,272.2999275,272.5964015625,115,65
58,272.2999275,272.4842221875,115,30
55,272.2999275,272.604414375,111,30
55,272.492235,272.700568125,116,65
58,272.492235,272.6124271875,108,30
63,272.5162734375,272.6765296875,110,30
58,272.6845425,272.892875625,115,65
63,272.6845425,272.7246065625,105,30
58,272.6845425,272.8688371875,108,30
55,272.6845425,272.989029375,102,30
67,272.6925553125,272.8688371875,113,30
63,272.87685,273.7662721875,114,65
58,272.87685,273.0451190625,123,0
67,272.87685,272.9329396875,112,30
58,272.87685,272.99704218749997,98,30
70,272.892875625,273.9906309375,114,30
63,272.9008884375,273.0611446875,100,30
63,273.0691575,273.261465,123,0
67,273.0691575,273.2694778125,123,0
75,273.0691575,273.341593125,122,0
70,273.0691575,273.3816571875,121,0
63,273.0691575,273.1092215625,94,30
67,273.0771703125,273.2534521875,105,30
39,273.2534521875,273.64608,125,33
51,273.261465,273.61402875,122,0
67,273.261465,273.3175546875,104,30
70,273.277490625,274.3752459375,106,30
38,273.6380671875,274.559540625,125,33
58,273.64608,274.110823125,123,0
62,273.64608,274.44736125,123,0
74,273.64608,274.4713996875,122,0
65,273.64608,274.4874253125,123,0
70,273.64608,274.51146375,123,0
50,273.64608,274.5996046875,123,0
50,273.8383875,274.09479749999997,112,65
53,273.8383875,274.09479749999997,111,30
58,273.854413125,274.0226821875,114,30
53,274.030695,274.2790921875,115,65
58,274.030695,274.1508871875,110,30
62,274.06274625,274.2149896875,113,30
58,274.2230025,274.44736125,113,65
62,274.2230025,274.271079375,110,30
53,274.2230025,274.4794125,102,30
65,274.239028125,274.4072971875,112,30
58,274.239028125,274.4072971875,107,30
62,274.41531,275.296719375,114,65
58,274.41531,275.02428375,122,0
65,274.41531,274.45537406249997,113,30
70,274.41531,275.360821875,112,30
58,274.41531,274.5355021875,101,30
62,274.44736125,274.5996046875,105,30
74,274.6076175,274.82396343749997,120,0
65,274.6076175,274.82396343749997,123,0
70,274.6076175,274.8399890625,122,0
62,274.6076175,274.92813,123,0
62,274.6076175,274.655694375,101,30
65,274.623643125,274.7919121875,104,30
38,274.7919121875,275.17652718749997,125,33
50,274.799925,275.040309375,117,0
65,274.799925,274.8399890625,105,30
70,274.799925,275.745436875,104,30
36,275.17652718749997,276.162103125,125,33
55,275.18453999999997,275.69736,123,0
60,275.18453999999997,275.969795625,123,0
48,275.18453999999997,275.9938340625,122,0
72,275.18453999999997,276.386461875,122,0
67,275.18453999999997,276.4105003125,123,0
63,275.18453999999997,276.4425515625,123,0
60,275.3528090625,275.5611421875,112,30
48,275.3768475,275.60120625,113,65
55,275.3768475,275.681334375,111,30
63,275.55312937499997,275.7534496875,109,30
51,275.569155,275.7614625,113,65
60,275.569155,275.6412703125,114,30
60,275.7374240625,275.9457571875,104,30
55,275.7614625,275.9778084375,114,65
63,275.7614625,275.7855009375,108,30
67,275.7614625,275.9457571875,111,30
55,275.7614625,276.065949375,102,30
63,275.937744375,276.1380646875,99,30
70,275.9457571875,277.155691875,114,30
58,275.95377,276.6829359375,113,65
55,275.95377,276.5226796875,123,0
65,275.95377,277.2999225,117,30
60,275.95377,276.0258853125,106,30
60,276.1460775,276.482615625,120,0
63,276.1460775,276.1701159375,97,30
67,276.1460775,276.3303721875,102,30
36,276.3303721875,276.69094875,125,33
70,276.3303721875,277.540306875,107,30
48,276.338385,276.5066540625,118,0
65,276.338385,277.6845375,110,30
31,276.7149871875,277.444153125,125,33
59,276.723,277.412101875,123,0
55,276.723,277.444153125,123,0
67,276.723,277.4521659375,123,0
43,276.723,277.476204375,123,0
62,276.723,277.540306875,123,0
71,276.723,277.4201146875,103,48
43,276.723,277.49223,116,48
74,276.723,277.5002428125,101,48
55,276.723,277.5162684375,115,48
79,276.723,277.8127425,113,48
67,276.723,277.8367809375,104,48
36,277.4842171875,277.90889625,125,33
67,277.49223,277.7887040625,123,0
55,277.49223,277.828768125,123,0
48,277.49223,277.8367809375,123,0
63,277.49223,277.84479375,123,0
60,277.49223,277.84479375,123,0
48,277.49223,277.8047296875,117,48
75,277.49223,277.84479375,101,48
72,277.49223,277.8528065625,116,48
35,278.2534471875,279.0066515625,125,33
59,278.26146,278.8624209375,123,0
55,278.26146,278.99863875,123,0
67,278.26146,279.0066515625,122,0
62,278.26146,279.0547284375,123,0
43,278.26146,279.06274125,123,0
71,278.26146,278.8944721875,111,48
43,278.26146,278.9906259375,116,48
74,278.26146,279.014664375,112,48
55,278.26146,279.0226771875,118,48
79,278.26146,279.2790871875,115,48
67,278.26146,279.431330625,111,48
36,279.0226771875,279.783894375,125,33
48,279.03069,279.31915125,123,0
55,279.03069,279.3431896875,123,0
60,279.03069,279.367228125,123,0
63,279.03069,279.4072921875,123,0
67,279.03069,279.4393434375,123,0
48,279.03069,279.335176875,119,48
72,279.03069,279.44735625,115,48
75,279.03069,279.5194715625,114,48
34,279.7919071875,280.4970346875,125,33
62,279.79992,280.5451115625,122,65
58,279.79992,280.4008809375,123,0
56,279.79992,280.4810090625,123,0
65,279.79992,280.521073125,123,0
62,279.79992,280.53709875,123,0
53,279.79992,280.5451115625,123,0
46,279.79992,280.5611371875,120,0
46,279.79992,280.232611875,110,48
58,279.79992,280.31274,118,48
65,279.79992,280.456970625,118,48
74,279.79992,280.56915,116,48
77,279.79992,280.617226875,119,48
70,279.79992,281.2021621875,115,48
39,280.5611371875,281.322354375,125,33
63,280.56915,280.9297265625,115,65
58,280.56915,281.2662646875,123,0
67,280.56915,281.290303125,123,0
63,280.56915,281.322354375,122,0
55,280.56915,281.322354375,123,0
51,280.56915,281.322354375,123,0
58,280.56915,281.1380596875,115,48
67,280.56915,281.1540853125,114,48
63,280.56915,281.3143415625,117,48
75,280.56915,281.34639281249997,112,48
51,280.56915,281.35440562499997,116,48
67,280.953765,281.33838,115,65
79,280.953765,281.4104953125,112,48
38,281.3303671875,282.1797253125,125,33
66,281.33838,282.1476740625,123,65
66,281.33838,282.1957509375,122,0
60,281.33838,282.7085709375,123,0
50,281.33838,282.9489553125,122,0
62,281.33838,284.4393384375,123,0
78,281.33838,282.13966125,110,48
72,281.33838,282.5322890625,114,48
74,281.33838,284.4153,114,48
62,281.33838,284.4153,114,48
34,282.09959718749997,282.508250625,125,33
67,282.10761,282.508250625,123,65
67,282.10761,282.4040840625,122,0
79,282.10761,284.4153,111,48
33,282.4842121875,282.8848528125,125,33
69,282.492225,282.924916875,122,65
69,282.492225,282.748635,123,0
81,282.492225,282.6845325,112,48
31,282.8688271875,283.309531875,125,33
70,282.87684,284.4233128125,122,65
58,282.87684,283.7342109375,122,0
43,282.87684,284.078761875,122,0
67,282.87684,284.4233128125,121,0
70,282.87684,284.44735125,121,0
82,282.87684,284.4153,116,48
38,283.2534421875,283.6701084375,122,33
50,283.261455,284.4153,122,0
43,283.6380571875,283.9906209375,125,33
55,283.64607,284.431325625,123,0
31,284.0226721875,284.3912615625,125,33
58,284.030685,284.3752359375,110,0
32,284.4072871875,285.4970296875,125,33
60,284.4153,285.5130553125,122,65
44,284.4153,286.0098496875,123,0
72,284.4153,285.18453,112,48
63,284.4153,285.6332475,112,48
60,284.4153,285.70536281249997,112,48
68,284.4153,285.9777984375,112,48
51,284.799915,285.8656190625,121,0
60,285.18453,285.79350375,123,0
63,285.18453,285.9297215625,123,0
56,285.18453,285.9617728125,123,0
68,285.18453,286.0098496875,120,0
72,285.18453,285.95376,113,48
32,285.5611321875,285.8976703125,125,33
60,285.569145,285.79350375,117,65
74,285.569145,285.937734375,110,48
62,285.7614525,286.001836875,114,65
39,285.9457471875,287.2999125,125,33
58,285.95376,287.23581,116,65
51,285.95376,286.3143365625,122,0
67,285.95376,286.6989515625,119,0
58,285.95376,286.706964375,117,0
63,285.95376,287.059528125,115,0
70,285.95376,287.49222,114,48
67,285.95376,287.49222,114,48
63,285.95376,287.49222,114,48
51,286.338375,287.091579375,109,0
58,286.72299,287.0034384375,115,0
36,287.4842071875,288.4777959375,123,33
80,287.49222,287.84478375,121,60
72,287.49222,287.9168990625,122,0
67,287.49222,287.9810015625,123,0
48,287.49222,288.6540778125,122,0
79,287.87683499999997,288.3015140625,122,60
55,287.87683499999997,288.2694628125,117,0
63,287.87683499999997,288.309526875,120,0
75,288.26144999999997,288.63805218749997,120,60
60,288.26144999999997,288.63805218749997,123,0
67,288.26144999999997,288.67811625,123,0
72,288.26144999999997,289.078756875,122,0
36,288.63805218749997,288.99862874999997,119,33
67,288.646065,288.886449375,121,60
55,288.646065,289.0066415625,122,0
63,288.646065,289.014654375,121,0
70,288.8383725,290.5130503125,119,60
31,289.0226671875,290.200550625,123,33
67,289.03068,289.4874103125,121,0
70,289.03068,289.623628125,122,0
43,289.03068,290.200550625,121,0
50,289.415295,289.847986875,114,0
62,289.415295,290.1124096875,116,0
55,289.79991,290.5451015625,122,0
70,289.79991,290.5931784375,122,0
67,289.79991,291.16208812499997,123,0
34,290.1765121875,290.5771528125,120,33
50,290.184525,290.3367684375,114,0
62,290.184525,290.43292218749997,122,0
36,290.5611271875,291.6668953125,125,33
79,290.56914,290.9938190625,121,60
72,290.56914,291.0899728125,122,0
63,290.56914,291.3624084375,123,0
48,290.56914,291.739010625,121,0
77,290.953755,291.3784340625,120,60
55,290.953755,291.3624084375,119,0
75,291.33837,291.7870875,119,60
60,291.33837,291.7149721875,123,0
67,291.33837,291.7790746875,123,0
72,291.33837,292.1797153125,122,0
36,291.7149721875,292.0515103125,123,33
74,291.722985,291.9553565625,119,60
55,291.722985,291.8592028125,121,0
63,291.722985,292.0434975,121,0
70,291.9152925,293.630034375,120,60
31,292.0995871875,293.32554749999997,125,33
43,292.1076,293.2374065625,123,0
62,292.1076,293.42170125,118,0
67,292.1076,293.5418934375,122,0
70,292.1076,293.68612406249997,122,0
34,293.2534321875,293.6540728125,117,33
36,293.6380471875,295.1204175,125,33
79,293.64606,294.014649375,120,60
67,293.64606,294.2470209375,120,0
72,293.64606,294.591571875,123,0
63,293.64606,295.0643278125,123,0
48,293.64606,295.28067375,121,0
75,294.030675,294.42330281249997,118,60
77,294.41528999999997,294.8640075,119,60
67,294.41528999999997,295.0963790625,18,0
79,294.79990499999997,295.0162509375,119,60
72,294.79990499999997,294.92811,18,0
75,294.9922125,295.3768275,118,60
32,295.17650718749996,298.3255425,123,33
59,295.18452,297.892850625,123,0
63,295.18452,298.07714531249997,122,0
68,295.18452,298.10118375,122,0
56,295.18452,298.245414375,120,0
44,295.18452,298.3175296875,122,0
71,295.3768275,298.16528625,117,60
34,298.2534271875,301.33034718749997,125,33
78,298.26144,298.3656065625,117,60
79,298.26144,298.646055,121,60
68,298.26144,298.950541875,123,0
63,298.26144,299.0066315625,122,0
60,298.26144,299.1829134375,123,0
46,298.26144,301.31432156249997,123,0
79,298.26144,298.694131875,104,48
66,298.26144,298.3656065625,115,62
67,298.26144,298.646055,120,62
77,298.646055,298.9906059375,120,60
77,298.646055,298.9745803125,110,48
65,298.646055,298.9906059375,119,62
77,299.03067,299.4793875,121,60
63,299.03067,299.431310625,117,0
68,299.03067,299.51945156249997,120,0
77,299.03067,299.4793875,116,48
65,299.03067,299.4793875,120,62
75,299.415285,299.7438103125,118,60
58,299.415285,299.87201531249997,118,0
75,299.415285,299.7918871875,112,48
63,299.415285,299.7438103125,117,62
75,299.7999,300.184515,119,60
68,299.7999,301.033873125,118,0
63,299.7999,301.130026875,118,0
60,299.7999,301.226180625,119,0
75,299.7999,300.200540625,111,48
63,299.7999,300.184515,118,62
72,300.184515,301.0098346875,118,60
72,300.184515,300.969770625,114,48
60,300.184515,301.0098346875,116,62
58,300.3768225,301.0258603125,18,0
74,300.95374499999997,301.33034718749997,120,60
74,300.95374499999997,301.33034718749997,112,48
62,300.95374499999997,301.33034718749997,119,62
39,301.33034718749997,306.74700843749997,124,33
75,301.33835999999997,306.02585531249997,120,60
58,301.33835999999997,301.722975,119,0
63,301.33835999999997,301.94733375,121,0
67,301.33835999999997,301.979385,122,0
39,301.33835999999997,302.13964125,117,0
67,301.33835999999997,302.6764996875,65,48
75,301.33835999999997,302.8527815625,103,48
63,301.33835999999997,307.48418718749997,96,48
63,301.33835999999997,306.02585531249997,119,62
46,301.722975,302.1316284375,119,0
67,302.10759,302.508230625,123,0
51,302.10759,302.7245765625,122,0
70,302.492205,302.924896875,122,0
72,302.87682,303.3175246875,120,0
68,302.87682,303.35758875,122,0
63,302.87682,304.5034209375,117,0
56,302.87682,304.543485,122,0
72,302.87682,303.341563125,111,48
68,302.87682,304.3511775,111,48
74,303.261435,303.6540628125,118,0
70,303.261435,303.7021396875,123,0
74,303.261435,303.84637031249997,110,48
68,303.64605,304.287075,120,0
72,303.64605,304.4072671875,121,0
72,303.64605,304.0547034375,110,48
74,304.030665,304.44733125,118,0
74,304.030665,304.4072671875,89,48
67,304.41528,304.912074375,122,0
70,304.41528,304.93611281249997,121,0
55,304.41528,305.95374,117,0
70,304.41528,305.95374,101,48
67,304.41528,306.001816875,96,48
63,304.799895,305.809509375,121,0
67,305.18451,305.553099375,121,0
70,305.569125,305.95374,120,0
72,305.95374,306.39444468749997,119,0
69,305.95374,307.1476490625,122,0
66,305.95374,307.187713125,122,0
54,305.95374,307.5482896875,121,0
72,305.95374,306.4264959375,103,48
66,305.95374,307.5803409375,110,48
74,306.338355,306.7149571875,117,0
74,306.338355,306.69091875,112,48
72,306.72297,307.15566187499996,117,0
72,306.72297,307.2438028125,108,48
74,307.107585,307.508225625,118,0
74,307.107585,309.0707240625,100,48
65,307.49219999999997,307.9168790625,121,0
70,307.49219999999997,308.3495709375,122,0
53,307.49219999999997,310.6332225,120,0
62,307.49219999999997,307.53226406249996,113,48
70,307.49219999999997,308.95854468749997,106,48
65,307.49219999999997,310.38482531249997,71,48
62,307.87681499999997,308.58194249999997,122,0
65,308.26143,308.8784165625,116,0
70,308.646045,308.92649343749997,120,0
70,309.03066,309.5034159375,123,0
65,309.03066,310.184505,122,0
61,309.03066,310.3046971875,121,0
70,309.03066,309.4713646875,110,48
61,309.03066,310.6252096875,116,48
68,309.415275,309.687710625,118,0
68,309.415275,309.76783875,112,48
68,309.79989,310.1925178125,121,0
68,309.79989,310.1123896875,116,48
67,310.184505,310.39283812499997,117,0
67,310.184505,312.508220625,114,48
60,310.56912,310.8655940625,117,0
64,310.56912,311.0739271875,115,0
67,310.56912,311.4104653125,121,0
52,310.56912,313.1732840625,115,0
64,310.56912,312.1636696875,106,48
60,310.56912,314.07071906249996,111,48
60,310.953735,313.42168125,114,0
64,311.33835,313.67809124999997,122,0
46,311.7149521875,311.9713621875,112,33
70,311.722965,311.9393109375,117,0
46,312.0995671875,312.540271875,114,33
70,312.10758,312.57232312499997,120,0
70,312.10758,312.540271875,101,48
44,312.4841821875,313.3255275,118,33
68,312.492195,312.748605,118,0
68,312.492195,312.860784375,113,48
68,312.87681,313.1572584375,115,0
68,312.87681,313.2534121875,117,48
43,313.2534121875,313.5258478125,119,33
67,313.261425,313.533860625,115,0
67,313.261425,313.5819375,117,48
43,313.6380271875,314.02264218749997,120,33
60,313.64603999999997,314.030655,121,0
36,313.64603999999997,314.046680625,123,0
48,313.64603999999997,315.1845,120,0
67,313.64603999999997,315.9457171875,123,0
67,313.64603999999997,315.232576875,116,48
40,314.02264218749997,314.335141875,119,33
64,314.030655,314.44732125,122,0
64,314.030655,314.495398125,114,48
36,314.4072571875,314.8078978125,120,33
60,314.41526999999996,315.09635906249997,101,0
60,314.41526999999996,316.7149471875,108,48
34,314.79187218749996,315.2085384375,120,33
58,314.799885,315.1444359375,122,0
58,314.799885,315.21655125,108,48
33,315.1764871875,316.6508446875,120,33
65,315.1845,315.569115,123,0
60,315.1845,315.569115,123,0
57,315.1845,315.569115,123,0
53,315.1845,315.569115,123,0
57,315.1845,316.81911375,111,48
65,315.1845,326.514616875,106,48
48,315.53706375,315.937704375,115,0
53,315.937704375,316.4585371875,120,0
65,315.95373,316.7630240625,120,0
48,316.3784090625,316.803088125,102,0
60,316.72296,316.8271265625,18,48
58,316.72296,317.412061875,107,48
62,316.7469984375,317.2277671875,118,0
58,316.75501125,317.66045906249997,122,0
46,316.75501125,317.668471875,119,0
53,316.75501125,322.6764796875,117,0
62,317.26783125,317.64443343749997,105,0
57,317.49219,318.4937915625,110,48
57,317.6123821875,317.97295875,109,0
60,317.620395,318.0450740625,121,0
45,317.6284078125,318.6700734375,120,0
60,318.1252021875,318.5819325,119,0
57,318.133215,318.48577875,119,0
56,318.4537275,319.81590562499997,106,48
59,318.61398375,319.9200721875,114,0
44,318.6219965625,320.1284053125,117,0
56,318.630009375,320.008213125,122,0
65,319.2790471875,320.21654624999996,119,0
55,319.79988,322.027441875,89,48
62,319.79988,322.6764796875,76,48
55,320.02423875,322.6844925,115,0
58,320.0322515625,322.700518125,122,0
43,320.0322515625,322.72455656249997,122,0
65,320.92968656249997,322.6764796875,119,0
41,322.2998775,326.4425015625,18,48
53,322.2998775,326.5066040625,18,48
57,322.2998775,326.546668125,18,48
41,322.6844925,327.2998725,122,0
53,322.73256937499997,327.540256875,122,0
57,322.78064625,327.58833375,122,0
60,322.828723125,327.44410312499997,122,0
65,322.8768,327.876795,123,0
